<svg xmlns="http://www.w3.org/2000/svg" width="47" height="57" viewBox="0 0 47 57" fill="none">
  <path fill-rule="evenodd" clip-rule="evenodd" d="M5.12904 56.3189C3.97954 56.0741 2.94079 55.6357 2.14337 54.7206C1.2795 53.7273 0.951904 52.5626 0.951904 51.2744V26.9705V5.03097C0.951904 2.98612 1.76098 1.38195 3.64728 0.499424C4.34785 0.186169 5.10658 0.0240944 5.874 0.0237693C12.8583 -0.00489284 19.8427 -0.00119773 26.827 0.00249739L29.7372 0.00395033C32.7508 0.00395033 34.7304 1.97885 34.7327 4.99716C34.7374 13.8691 34.7335 22.7402 34.7211 31.6105C34.7211 32.2062 34.8784 32.6271 35.304 33.0456C36.6787 34.3861 38.0361 35.7476 39.4002 37.1159L39.4004 37.1161L39.401 37.1167L39.404 37.1197L39.4045 37.1202L39.4049 37.1207L39.4054 37.1211L39.4058 37.1216L39.4142 37.13C39.9437 37.6611 40.4742 38.1932 41.0072 38.7255L39.5312 40.0977C39.472 39.9399 39.3878 39.7927 39.2817 39.6617C36.3975 36.7642 33.5078 33.8734 30.6127 30.9891C29.3898 29.7697 27.8637 29.5179 26.5731 30.299C25.0774 31.2036 24.674 33.2823 25.7571 34.6556C26.158 35.1331 26.5862 35.587 27.0395 36.015C28.7975 37.7816 30.5591 39.5451 32.3241 41.3055C33.0038 41.9863 33.0458 42.2509 32.5177 43.0752C30.8855 45.626 29.7931 48.3925 29.3898 51.3863C29.2379 52.5114 29.204 53.6475 29.1701 54.7836V54.7837C29.1548 55.2958 29.1395 55.8078 29.1135 56.3189H5.12904ZM2.85919 46.941H26.2479V48.8378H2.82771V51.2056C2.82771 53.3123 3.95039 54.4443 6.04071 54.4454H27.2411C27.2906 50.1623 28.5057 45.9736 30.7561 42.3291C30.6926 42.2737 30.6322 42.2231 30.5747 42.1748L30.5746 42.1747L30.5745 42.1747C30.4611 42.0795 30.3589 41.9936 30.2653 41.9L24.9025 36.5373C23.4837 35.115 22.8833 33.4164 23.4919 31.4718C24.5866 27.9743 28.6856 26.8586 31.4766 29.2485C31.783 29.5106 32.0749 29.7888 32.385 30.0843L32.3851 30.0845C32.5303 30.2229 32.6794 30.3651 32.8359 30.5111V7.54448H2.85919V46.941ZM32.8313 5.59406C33.1449 2.96047 31.4568 1.83429 29.4236 1.85178C23.8133 1.89704 18.2031 1.88987 12.5924 1.8827H12.5923H12.5922H12.5922H12.5921H12.592H12.592H12.5919H12.5918H12.5917H12.5917H12.5916C10.3991 1.8799 8.20655 1.8771 6.0139 1.87742C3.79884 1.87742 2.55024 3.35219 2.88717 5.59406H32.8313ZM44.1759 56.3189C44.1719 56.2402 44.1665 56.1607 44.1611 56.0809C44.1505 55.924 44.1397 55.7657 44.1397 55.6089C44.1397 53.5431 44.1378 51.4784 44.1359 49.4143C44.1312 44.2561 44.1264 39.1018 44.1514 33.9445C44.1619 31.5732 43.3575 29.6473 41.5644 28.0804C40.3237 26.9962 39.116 25.8757 37.8933 24.7414L37.8932 24.7413C37.3489 24.2363 36.8016 23.7286 36.2471 23.2201L37.512 21.8444C37.5728 21.8986 37.6317 21.9503 37.6889 22.0005C37.8041 22.1016 37.9125 22.1967 38.0145 22.2933C38.4432 22.6874 38.8708 23.082 39.2981 23.4765L39.2989 23.4772C40.5147 24.5995 41.7289 25.7202 42.9623 26.8225C45.0269 28.668 46.0249 30.96 46.0214 33.723C46.0105 41.0171 46.0105 48.3117 46.0214 55.6066C46.0214 55.7651 46.0295 55.9274 46.0376 56.0898V56.0899V56.0899V56.09V56.0901V56.0902V56.0903V56.0904V56.0905V56.0906L46.0376 56.0909L46.0433 56.2071C46.0451 56.2445 46.0467 56.2817 46.0482 56.3189H44.1759ZM30.9847 13.784C30.9829 13.5702 30.9811 13.3565 30.9811 13.1428C30.9811 12.9296 30.9829 12.7166 30.9847 12.5034V12.5032V12.5029V12.5027V12.5024V12.5021V12.5019V12.5016V12.5014V12.5011V12.5008V12.5008V12.5007V12.5006V12.5005V12.5004V12.5004V12.5003V12.5002V12.5001V12.5001C30.9884 12.0721 30.992 11.6437 30.9811 11.2133C30.952 10.2842 30.3341 9.49608 29.4201 9.44595C27.9763 9.36901 26.5294 9.36901 25.0856 9.44595C24.1657 9.49492 23.5222 10.2737 23.5047 11.1947C23.4806 12.4957 23.4806 13.7964 23.5047 15.0967C23.5234 16.02 24.175 16.7999 25.0879 16.8454C26.5125 16.913 27.9453 16.9142 29.3688 16.8454C30.3108 16.7999 30.9508 16.0165 30.9811 15.0664C30.992 14.639 30.9884 14.2116 30.9847 13.7841V13.784ZM29.0727 11.3066V14.9894H25.391V11.3066H29.0727ZM8.43997 35.6594C8.23829 35.6594 8.0366 35.6609 7.83491 35.6625C7.43154 35.6656 7.02817 35.6687 6.62479 35.6594C5.53825 35.6302 4.75948 34.9296 4.71984 33.857C4.67437 32.5571 4.67321 31.2538 4.71984 29.955C4.75948 28.9128 5.54874 28.1888 6.58515 28.1702C7.8287 28.1492 9.07496 28.1492 10.3239 28.1702C11.3732 28.1876 12.1473 28.9 12.1893 29.9515C12.2336 31.2689 12.2336 32.5909 12.1893 33.9083C12.1519 34.9377 11.4012 35.6221 10.3636 35.6571C9.93689 35.671 9.50916 35.6664 9.08143 35.6617C8.86757 35.6594 8.65371 35.6571 8.43997 35.6571V35.6594ZM6.60614 33.7509H10.2971V30.0763H6.60614V33.7509ZM17.21 35.6619C17.4176 35.6601 17.6253 35.6583 17.833 35.6583C18.0286 35.6586 18.2243 35.6603 18.42 35.6619H18.4202H18.4203H18.4205H18.4206H18.4208H18.4209H18.4211H18.4213H18.4215H18.4218H18.422H18.4222H18.4225H18.4227H18.4229C18.8501 35.6655 19.2774 35.669 19.7053 35.6594C20.7906 35.6291 21.5577 34.9308 21.5974 33.8466C21.6417 32.5642 21.6394 31.2818 21.5974 29.9994C21.5612 28.9443 20.7965 28.197 19.7682 28.1749C18.4858 28.1469 17.2034 28.1469 15.921 28.1749C14.9277 28.1982 14.1688 28.9128 14.1338 29.9084C14.0872 31.2433 14.086 32.584 14.1338 33.9188C14.1699 34.9471 14.9254 35.6233 15.9676 35.6583C16.3803 35.6691 16.7949 35.6655 17.21 35.6619ZM16.0213 30.0623H19.7064L19.7123 33.7335H16.0213V30.0623ZM12.2183 13.7416L12.2183 13.7418C12.2216 14.1334 12.225 14.5265 12.2149 14.9171C12.1776 16.1156 11.4933 16.8524 10.3076 16.8908C9.08118 16.9316 7.85124 16.9316 6.6248 16.8908C5.44732 16.8512 4.72801 16.0876 4.70936 14.9089C4.6907 13.7303 4.69187 12.5633 4.70936 11.3917C4.72568 10.1909 5.45781 9.41909 6.65511 9.38528C7.85241 9.35147 9.07419 9.35147 10.2831 9.38528C11.463 9.41792 12.1729 10.1547 12.2149 11.338C12.2266 11.7447 12.2227 12.1492 12.2188 12.5531V12.5532C12.2168 12.7548 12.2149 12.9564 12.2149 13.1579C12.2149 13.3517 12.2166 13.5465 12.2183 13.7416ZM10.2913 14.9894V11.3089H6.60964V14.9894H10.2913ZM12.2193 41.9304L12.2193 41.9303C12.2171 41.7286 12.2149 41.5269 12.2149 41.3253C12.2149 41.1412 12.2164 40.9569 12.2179 40.7727C12.2214 40.3514 12.2248 39.9299 12.2102 39.5089C12.1706 38.3209 11.4665 37.5806 10.2866 37.5468C9.07886 37.513 7.85941 37.5142 6.65978 37.5468C5.46015 37.5795 4.72219 38.3489 4.7047 39.545C4.68838 40.7167 4.68721 41.8883 4.7047 43.0623C4.72219 44.2363 5.43683 45.0034 6.61198 45.0442C7.85591 45.0897 9.10451 45.092 10.3496 45.0442C11.4909 45.0046 12.1683 44.2748 12.2149 43.1393C12.2281 42.7367 12.2237 42.3336 12.2193 41.9304ZM6.60265 43.1451V39.4471L10.2983 39.4494V43.1451H6.60265ZM8.45743 18.7888C8.67116 18.7888 8.8849 18.7866 9.09863 18.7844C9.5261 18.78 9.95357 18.7756 10.381 18.7888C11.4163 18.8285 12.1566 19.5175 12.1916 20.5539C12.2359 21.8713 12.2347 23.1933 12.1916 24.5107C12.1566 25.5343 11.3988 26.2489 10.3717 26.2722C9.1064 26.3018 7.84188 26.3018 6.57813 26.2722C5.51956 26.2489 4.74662 25.4876 4.71282 24.4151C4.67784 23.1513 4.67784 21.8868 4.71282 20.6215C4.74546 19.5443 5.50907 18.8215 6.58512 18.7853C7.00042 18.7713 7.41624 18.776 7.83085 18.7807H7.83095C8.03782 18.783 8.24439 18.7853 8.45044 18.7853L8.45743 18.7888ZM10.3076 20.6938H6.6166V24.3754H10.3076V20.6938ZM18.4637 18.7822C18.262 18.7838 18.0603 18.7853 17.8586 18.7853C17.6603 18.7857 17.4618 18.7843 17.2631 18.7829L17.2626 18.7829C16.8379 18.7799 16.4124 18.7769 15.9852 18.7912C14.8951 18.825 14.1548 19.5186 14.1199 20.6145C14.0779 21.8969 14.0779 23.1793 14.1199 24.4617C14.1548 25.5436 14.9196 26.2629 16.0015 26.2827C17.2303 26.3037 18.4583 26.3037 19.6855 26.2827C20.7814 26.2606 21.5636 25.5226 21.5974 24.4174C21.6382 23.1548 21.6394 21.8876 21.5974 20.625C21.5613 19.5186 20.7942 18.8156 19.6738 18.7853C19.2705 18.776 18.8671 18.7791 18.4637 18.7822ZM16.019 20.6961H19.7123V24.3754H16.019V20.6961ZM23.4897 21.8747L23.4897 21.8743V21.8742V21.8741V21.874C23.4863 21.4591 23.4829 21.0445 23.493 20.6319C23.5233 19.5897 24.2566 18.8261 25.3012 18.8016C26.5836 18.7697 27.866 18.7697 29.1484 18.8016C30.2186 18.8249 30.9589 19.5955 30.9741 20.6669C30.9927 21.9105 30.9927 23.1567 30.9741 24.4057C30.9578 25.4666 30.1988 26.2524 29.1379 26.278C27.8742 26.3083 26.6096 26.3083 25.3443 26.278C24.2566 26.2535 23.5117 25.4619 23.4895 24.3672C23.481 23.9511 23.4838 23.5355 23.4867 23.1211V23.1211V23.121V23.1209C23.4881 22.9143 23.4895 22.7079 23.4895 22.5019L23.493 22.4973C23.493 22.2898 23.4913 22.0822 23.4897 21.8747ZM25.3898 24.3754H29.0668V20.6914H25.3898V24.3754ZM14.11 12.5058V12.5059V12.5059C14.1132 12.7113 14.1164 12.9166 14.1164 13.1218L14.1152 13.1264C14.1152 13.3402 14.1117 13.554 14.1082 13.7679C14.1012 14.1956 14.0942 14.6233 14.1152 15.05C14.163 16.1086 14.8088 16.8267 15.8639 16.8745C17.179 16.9328 18.5022 16.9328 19.8184 16.8745C20.8886 16.8267 21.5706 16.0841 21.5986 15.0092C21.6328 13.761 21.6328 12.5151 21.5986 11.2716C21.5706 10.2399 20.9236 9.48324 19.9163 9.43194C18.5268 9.36082 17.1345 9.36082 15.745 9.43194C14.7995 9.48207 14.1816 10.1932 14.1233 11.1399C14.096 11.5953 14.103 12.0508 14.11 12.5058ZM19.6913 11.3101V14.9871L16.012 14.9847V11.3101H19.6913ZM14.1163 41.2693C14.1163 41.0689 14.1135 40.8686 14.1107 40.6682C14.1044 40.2274 14.0981 39.7865 14.1222 39.3457C14.1781 38.3641 14.7925 37.6424 15.7601 37.5911C17.1496 37.5183 18.542 37.5183 19.9315 37.5911C20.9352 37.6436 21.5776 38.4072 21.6044 39.4378C21.6359 40.6829 21.6382 41.9303 21.6044 43.1754C21.5741 44.248 20.8886 44.9848 19.8149 45.0337C18.5173 45.092 17.2128 45.092 15.914 45.0337C14.8112 44.9871 14.156 44.2526 14.1117 43.1358C14.0946 42.7205 14.1003 42.3046 14.106 41.89V41.8899C14.1088 41.683 14.1117 41.4765 14.1117 41.2705L14.1163 41.2693ZM16.0143 43.1346H19.7123V39.4565H16.012L16.0143 43.1346ZM18.754 52.53V50.7288H16.9435V52.53H18.754Z" fill="#1D78F2"/>
</svg>