<svg xmlns="http://www.w3.org/2000/svg" width="51" height="50" viewBox="0 0 51 50" fill="none">
  <path fill-rule="evenodd" clip-rule="evenodd" d="M42.9862 0H42.1066C41.6055 0.270371 41.106 0.543361 40.6066 0.816286C39.3551 1.5003 38.1043 2.1839 36.8303 2.82482C35.505 3.48901 34.8891 4.48127 35.0018 5.95557C35.0279 6.29492 35.0212 6.63709 35.0143 6.98816C35.0111 7.15138 35.0078 7.31653 35.0078 7.48421H15.0127V6.63485C15.0107 6.4872 15.0104 6.33938 15.0101 6.19154C15.0094 5.81844 15.0086 5.44519 14.9805 5.07401C14.9607 4.68 14.8398 4.29772 14.6296 3.96392C14.4193 3.63012 14.1267 3.35602 13.7799 3.16798C12.0732 2.19083 10.3524 1.23884 8.63152 0.28685L8.63145 0.286809C8.39919 0.175522 8.15983 0.0797098 7.91493 0H7.03538C6.86999 0.0901712 6.70465 0.180313 6.53933 0.270436C4.75822 1.24144 2.98131 2.21014 1.20862 3.18811C0.538396 3.55643 0.219384 4.18842 0.00100632 4.88381V11.8165C0.27272 12.7977 0.941942 13.3945 1.82048 13.8614C3.37328 14.6806 4.8989 15.5521 6.4195 16.4296C6.55938 16.5112 6.65397 16.7899 6.65397 16.9771C6.66068 21.3896 6.66404 25.8018 6.66404 30.2136C6.66404 30.4761 6.66326 30.7386 6.66248 31.001C6.66046 31.6831 6.65845 32.3648 6.67008 33.0465C6.67611 33.3534 6.60466 33.5235 6.30276 33.6845C4.9656 34.4084 3.64169 35.1531 2.31803 35.8977C1.96909 36.094 1.62016 36.2903 1.27102 36.4862C0.591733 36.8635 0.230454 37.4824 0 38.197V45.1337C0.246555 46.125 0.913764 46.7237 1.79231 47.1877C3.23239 47.9465 4.64128 48.7525 6.05016 49.5697C7.01223 50.1282 7.94411 50.1493 8.91222 49.5959C9.95985 48.9974 11.013 48.4095 12.066 47.8216C12.5748 47.5375 13.0836 47.2535 13.5917 46.9683C14.5498 46.4349 15.0127 45.6238 15.0127 44.5329V42.5464H35.0028C35.0028 42.7494 35.0053 42.9514 35.0077 43.1526C35.0127 43.553 35.0175 43.9506 35.0028 44.3478C34.9565 45.6017 35.4949 46.4802 36.6019 47.0729C38.1084 47.877 39.5948 48.7193 41.0721 49.5737C42.0372 50.1322 42.967 50.1443 43.9341 49.5908C45.4537 48.7126 46.9851 47.8529 48.5281 47.0116C49.5637 46.446 50.0397 45.6017 50.0246 44.4262C50.0044 42.5705 50.0105 40.7138 50.0246 38.8581C50.0326 37.7421 49.5677 36.9249 48.5915 36.3845C46.927 35.4637 45.2625 34.5419 43.6131 33.5949C43.4712 33.5144 43.3706 33.2387 43.3706 33.0525C43.3595 29.5685 43.3595 26.0845 43.3595 22.6006C43.3595 22.1108 43.36 21.621 43.3605 21.1312C43.3618 19.7321 43.3632 18.3329 43.3535 16.9338C43.3505 16.6339 43.4451 16.491 43.7148 16.3431C45.4141 15.4173 47.1025 14.4723 48.7797 13.5082C49.6079 13.0332 50.0175 12.2754 50.0175 11.3224C50.0242 9.33522 50.0242 7.34903 50.0175 5.36384C50.0135 4.3917 49.6019 3.62587 48.7545 3.14182C47.6289 2.49946 46.4978 1.86883 45.3656 1.23755C44.8074 0.926325 44.2489 0.614938 43.6906 0.301904C43.4611 0.189376 43.2259 0.0886112 42.9862 0ZM35.0077 40.1079C35.0083 40.3412 35.0088 40.5784 35.0088 40.8215L15.0187 40.8145C15.0187 40.6146 15.0159 40.4165 15.0131 40.2198C15.0075 39.83 15.002 39.4453 15.0187 39.0614C15.0741 37.7662 14.5367 36.8656 13.3844 36.2567C11.9477 35.4992 10.5346 34.6983 9.12002 33.8967C8.9354 33.792 8.75076 33.6874 8.56604 33.5828C8.46969 33.5285 8.41146 33.3927 8.3595 33.2715C8.35176 33.2534 8.34416 33.2356 8.33659 33.2185C8.31933 33.1391 8.31728 33.0572 8.33055 32.977C8.33726 27.6541 8.33424 22.3312 8.32149 17.0083C8.32149 16.65 8.43018 16.482 8.74919 16.3099C10.4217 15.4042 12.0782 14.4683 13.7306 13.5273C14.6182 13.0242 15.0077 12.2191 15.0127 11.2127V9.20003H35.0058C35.0058 9.41535 35.0074 9.62771 35.009 9.83811C35.0121 10.2531 35.0152 10.6605 35.0058 11.0678C34.9776 12.2593 35.4768 13.1137 36.5355 13.6843C37.3721 14.1359 38.2011 14.6004 39.03 15.0648C39.8324 15.5144 40.6346 15.9639 41.4434 16.4015C41.6958 16.5382 41.6938 16.7075 41.6914 16.9034C41.6912 16.9223 41.691 16.9415 41.691 16.961V25.0671C41.691 25.7028 41.6907 26.3385 41.6904 26.9741C41.6895 29.0082 41.6886 31.0422 41.697 33.0756C41.699 33.3765 41.6065 33.5174 41.3358 33.6654C39.6357 34.5952 37.947 35.5395 36.2698 36.4982C35.4003 36.9944 35.0169 37.7874 35.0088 38.7716C35.0055 39.2121 35.0066 39.6525 35.0077 40.1079ZM36.6774 40.0144C36.6856 39.9164 36.6997 39.8189 36.7196 39.7226H36.7237C36.8975 39.8198 37.066 39.9146 37.2309 40.0073C37.5625 40.1937 37.8797 40.372 38.1969 40.5468C38.425 40.6699 38.6528 40.7926 38.8802 40.9151C39.7568 41.3873 40.6286 41.8569 41.4948 42.3411C41.5994 42.3995 41.6829 42.5927 41.6829 42.7265C41.6936 43.1476 41.6928 43.5693 41.6919 43.9913C41.6913 44.2855 41.6907 44.5798 41.694 44.8741C41.7 45.4839 41.9899 45.821 42.493 45.8341C43.0143 45.8472 43.3464 45.49 43.3565 44.8751C43.3614 44.5558 43.3606 44.2364 43.3597 43.9169C43.3586 43.5204 43.3575 43.1238 43.3676 42.7275C43.3706 42.5947 43.4531 42.3995 43.5537 42.3421C44.6769 41.7125 45.8081 41.0961 46.9421 40.4781C47.3089 40.2782 47.6759 40.0782 48.0431 39.8776C48.0942 39.8494 48.1477 39.825 48.2186 39.7926C48.2594 39.774 48.3059 39.7527 48.3611 39.7266V42.161C48.3611 42.4266 48.3597 42.6923 48.3584 42.9581C48.3557 43.4898 48.353 44.0217 48.3611 44.553C48.3752 44.7495 48.3301 44.9457 48.2316 45.1163C48.1332 45.2869 47.9858 45.4241 47.8086 45.5101C46.232 46.3856 44.659 47.2688 43.0898 48.1598C42.9194 48.2701 42.7207 48.3288 42.5177 48.3288C42.3147 48.3288 42.116 48.2701 41.9456 48.1598C40.3787 47.2652 38.8038 46.3856 37.2278 45.5081C36.8645 45.3068 36.6774 45.019 36.6774 44.6024V40.0144ZM1.66842 41.0835C1.66747 40.6345 1.66651 40.1814 1.66651 39.7226C1.74509 39.762 1.8157 39.7967 1.8809 39.8288C1.99524 39.8849 2.09295 39.933 2.1878 39.9842C2.3868 40.0928 2.58583 40.2013 2.78484 40.3097C4.01187 40.9786 5.2384 41.6471 6.45673 42.332C6.56944 42.3954 6.65196 42.6118 6.65196 42.7597C6.66411 43.2012 6.66343 43.6431 6.66275 44.0849C6.6623 44.3752 6.66185 44.6655 6.66504 44.9556C6.67007 45.3481 6.83914 45.7093 7.22659 45.7707C7.5357 45.7993 7.84506 45.7188 8.1011 45.5433C8.25507 45.4386 8.30942 45.1146 8.31847 44.8861C8.33282 44.4938 8.33174 44.1011 8.33065 43.7084C8.32976 43.3851 8.32886 43.0617 8.33659 42.7386C8.34061 42.6048 8.41609 42.4085 8.51672 42.3502C9.86742 41.5992 11.2181 40.8619 12.5688 40.1246C12.7276 40.0379 12.8865 39.9512 13.0453 39.8645C13.0908 39.839 13.139 39.8185 13.2014 39.7919C13.2328 39.7785 13.2679 39.7636 13.3079 39.7457C13.3124 39.8057 13.3177 39.8615 13.3228 39.9145C13.3325 40.016 13.3412 40.1073 13.3412 40.1986C13.3437 40.7886 13.3427 41.3786 13.3417 41.9685C13.3403 42.7943 13.339 43.62 13.3472 44.4454C13.3532 44.9556 13.1781 45.3008 12.7172 45.5523C11.1916 46.3869 9.67537 47.2383 8.16853 48.1065C7.71064 48.3701 7.32118 48.3852 6.85323 48.1135C5.34975 47.24 3.83016 46.3937 2.30655 45.5574C1.8547 45.3098 1.65343 44.9838 1.65947 44.4645C1.6732 43.3468 1.67084 42.2287 1.66842 41.0835ZM36.6854 6.60164C36.6984 6.5287 36.7186 6.45723 36.7458 6.3883C37.1449 6.61201 37.5369 6.84089 37.9262 7.06819C38.8344 7.59855 39.728 8.12033 40.6635 8.54792C41.531 8.94342 41.844 9.43954 41.7 10.3453C41.6526 10.6421 41.6666 10.9513 41.6804 11.2569C41.6851 11.3595 41.6897 11.4617 41.692 11.5629C41.7041 12.1446 42.0372 12.5059 42.5222 12.5009C43.0073 12.4958 43.3434 12.1255 43.3535 11.5499C43.3676 10.8504 43.3706 10.15 43.3535 9.45162C43.3464 9.17085 43.443 9.04908 43.7017 8.91222C44.8002 8.33153 45.8864 7.72875 46.9719 7.12641C47.2766 6.95732 47.5812 6.78828 47.8861 6.61976C47.9758 6.57021 48.0671 6.52373 48.1783 6.46716C48.2229 6.44446 48.2707 6.42013 48.3228 6.39333C48.3267 6.46204 48.3314 6.52526 48.3357 6.58493C48.3438 6.69481 48.351 6.79264 48.351 6.89047C48.3516 7.34068 48.3509 7.79151 48.3501 8.24236C48.3484 9.20844 48.3467 10.1746 48.3591 11.1352C48.3651 11.6324 48.1789 11.9604 47.7452 12.2C46.1981 13.0574 44.655 13.9238 43.116 14.7994C42.7074 15.0278 42.3411 15.0369 41.9265 14.7994C40.3727 13.9151 38.8148 13.0399 37.253 12.1738C36.8927 11.9735 36.6804 11.7048 36.6804 11.2852C36.6837 9.72334 36.6854 8.16215 36.6854 6.60164ZM1.67809 6.52764C1.68134 6.4802 1.685 6.42695 1.68865 6.36515C1.84767 6.45386 2.00089 6.5401 2.15035 6.62422C2.4587 6.79777 2.75104 6.96231 3.04521 7.12092C3.4155 7.32408 3.78706 7.52629 4.15897 7.72868C4.92922 8.14785 5.70094 8.56781 6.46579 8.99876C6.5219 9.04501 6.56752 9.10267 6.59962 9.16791C6.63172 9.23315 6.64956 9.30448 6.65196 9.37715C6.66357 9.80168 6.66257 10.2251 6.66156 10.6499C6.66091 10.9249 6.66026 11.2005 6.66303 11.4774C6.66907 12.1205 7.02028 12.5079 7.52346 12.4988C8.02663 12.4898 8.32854 12.1215 8.32854 11.4834C8.33289 11.1808 8.33178 10.8789 8.33067 10.5766C8.32921 10.1805 8.32775 9.7838 8.3386 9.3842C8.34115 9.31013 8.35942 9.23746 8.39222 9.17101C8.42501 9.10456 8.47157 9.04584 8.5288 8.99876C9.78055 8.30147 11.0394 7.61554 12.2982 6.92963C12.5382 6.79886 12.7782 6.66809 13.0181 6.53724C13.0648 6.51222 13.1132 6.48902 13.1822 6.45604C13.2158 6.43993 13.2543 6.42149 13.2999 6.39937C13.3056 6.45799 13.3121 6.51188 13.3183 6.56261C13.3305 6.66342 13.3412 6.75178 13.3412 6.84015C13.3437 7.44522 13.3428 8.05028 13.342 8.65535C13.3408 9.48332 13.3396 10.3113 13.3472 11.1393C13.3512 11.6314 13.1661 11.9625 12.7283 12.203C11.1899 13.0483 9.65792 13.9071 8.1323 14.7792C7.7046 15.0208 7.33426 15.0409 6.89952 14.7913C5.36283 13.9077 3.81507 13.0443 2.26428 12.1839C1.84967 11.9554 1.65544 11.6445 1.66047 11.1634C1.67145 10.0978 1.66966 9.03216 1.66786 7.96653C1.66719 7.56692 1.66651 7.1673 1.66651 6.76769C1.66651 6.69624 1.67148 6.62388 1.67809 6.52764ZM38.3591 5.38245C37.9164 5.13499 37.4701 4.88557 37.0185 4.63423L38.8632 3.59769C39.1354 3.44489 39.4069 3.29069 39.6785 3.13649C40.4388 2.70473 41.1992 2.27297 41.9748 1.87181C42.2324 1.73998 42.6541 1.66349 42.8805 1.78325C44.1678 2.4672 45.4391 3.18214 46.7385 3.9129C47.1599 4.14984 47.5841 4.38844 48.0129 4.62819L48.0036 4.63341C47.0984 5.14265 46.2569 5.61603 45.4145 6.08841C44.706 6.48558 43.9979 6.88443 43.2901 7.28495C42.8684 7.51641 42.4115 7.61906 41.9818 7.38559C40.7763 6.73333 39.5811 6.06535 38.3591 5.38245ZM13.0062 4.63373C12.532 4.36816 12.0647 4.10628 11.6023 3.84719C10.3428 3.14137 9.12006 2.4562 7.89681 1.77319C7.53453 1.57192 7.21149 1.70979 6.89047 1.89294C5.91504 2.44795 4.93771 2.99434 3.96044 3.5407C3.5201 3.78688 3.07978 4.03305 2.63965 4.28C2.51811 4.34844 2.39739 4.41729 2.26327 4.49379C2.18638 4.53764 2.10509 4.584 2.01672 4.63423C2.54416 4.92903 3.06445 5.22036 3.57994 5.509C4.68338 6.12686 5.76482 6.7324 6.84719 7.33326C7.03665 7.44748 7.25287 7.50976 7.47406 7.51382C7.69525 7.51789 7.91361 7.46359 8.10714 7.3564C9.71701 6.47299 11.3188 5.5775 13.0062 4.63373ZM12.9991 37.9751L7.93807 35.1407C7.58585 34.9394 7.25778 35.029 6.92569 35.2172C5.78717 35.8601 4.64526 36.4982 3.50386 37.136C3.25701 37.274 3.01019 37.4119 2.76343 37.5499C2.61877 37.6311 2.4749 37.7147 2.31519 37.8075C2.22159 37.8619 2.12255 37.9195 2.01471 37.9816C2.44901 38.2241 2.87733 38.4659 3.30198 38.7056C4.52844 39.398 5.72436 40.0731 6.94581 40.6987C7.27187 40.8668 7.80825 40.7762 8.19167 40.6434C8.55542 40.5174 8.89148 40.3128 9.22727 40.1085C9.36619 40.0239 9.50507 39.9394 9.64585 39.8604L10.0537 39.6311C11.0062 39.0953 11.9665 38.5552 12.9991 37.9751ZM46.7701 37.279C47.1799 37.5089 47.5934 37.7408 48.0119 37.9756C47.6577 38.1742 47.3113 38.3688 46.97 38.5605C46.2134 38.9853 45.4823 39.3959 44.7493 39.8051C44.2381 40.0919 43.7278 40.3777 43.2146 40.6585C42.7658 40.901 42.3049 40.9252 41.8601 40.6796C40.5927 39.9789 39.3307 39.2701 38.068 38.5609C37.7856 38.4024 37.5033 38.2438 37.2208 38.0852C37.1964 38.0718 37.177 38.0485 37.1489 38.0149C37.1329 37.9958 37.1141 37.9733 37.09 37.9474L39.6431 36.5113C39.859 36.3901 40.0751 36.2692 40.2912 36.1483C40.8555 35.8326 41.4198 35.5169 41.9808 35.196C42.3179 35.0018 42.645 34.9615 42.9952 35.1578C44.2401 35.8603 45.4867 36.5594 46.7701 37.279ZM23.0745 14.8426C21.9856 13.79 20.6452 13.3079 18.8961 13.2747C16.661 13.3985 14.7872 14.5014 13.7939 16.7929C12.8007 19.0844 13.1921 21.243 14.8717 23.0856C15.804 24.109 16.7977 25.0763 17.7909 26.0431C18.081 26.3255 18.3711 26.6079 18.6596 26.8916C19.3865 27.6007 20.298 28.0913 21.2902 28.3075C21.5559 28.3689 21.6545 28.4766 21.7159 28.7383C21.9528 29.7758 22.479 30.725 23.2335 31.4755C23.4773 31.7208 23.7211 31.9665 23.9652 32.2124C24.9229 33.1775 25.8835 34.1456 26.8563 35.0984C27.8258 36.0622 29.1144 36.6381 30.4792 36.7176C31.6724 36.8113 32.8654 36.5332 33.8942 35.9214C34.923 35.3096 35.737 34.3942 36.2244 33.301C37.2247 31.1032 36.7568 28.5309 35.0168 26.7648C34.3565 26.0946 33.6898 25.4304 33.0231 24.7663C32.5365 24.2816 32.05 23.797 31.566 23.31C30.781 22.5225 29.7982 21.961 28.7211 21.6848C28.6327 21.6531 28.5522 21.6025 28.4855 21.5364C28.4187 21.4703 28.3672 21.3904 28.3347 21.3023C28.065 20.3101 27.6312 19.4074 26.9097 18.6718C25.6447 17.3826 24.3737 16.0985 23.0745 14.8426ZM21.6136 24.9138C21.7286 24.9807 21.8447 25.0483 21.9574 25.1214L21.5458 26.642C20.8492 26.4712 20.2141 26.109 19.7123 25.5964C19.4629 25.3492 19.2133 25.1025 18.9637 24.8558C18.0215 23.9245 17.0797 22.9937 16.1568 22.039C14.5255 20.3554 14.5678 17.763 16.188 16.1549C17.8083 14.5467 20.3614 14.5276 22.0349 16.1438C23.2425 17.3112 24.4307 18.4977 25.5994 19.7033C27.1995 21.3617 27.2277 23.7468 25.7 25.4877C24.5417 26.8081 24.587 28.1234 25.8319 29.3642C26.1895 29.7209 26.546 30.0786 26.9025 30.4363C27.6493 31.1857 28.396 31.935 29.1528 32.6741C29.8573 33.3654 30.7187 33.5949 31.6687 33.293C32.5975 32.9981 33.1732 32.343 33.3674 31.388C33.5304 30.5889 33.3422 29.8462 32.7777 29.2616C31.5526 28.0029 30.3094 26.7618 29.0482 25.5381C28.8632 25.358 28.6295 25.2281 28.3915 25.0959C28.2811 25.0345 28.1697 24.9727 28.0619 24.9051C28.1267 24.667 28.1931 24.4218 28.2649 24.1568C28.3393 23.8819 28.4196 23.5856 28.5098 23.2537C28.6959 23.3704 28.8857 23.4774 29.0732 23.5831C29.4786 23.8116 29.8727 24.0337 30.1934 24.3345C31.4865 25.5471 32.7405 26.8061 33.9612 28.0922C34.5361 28.69 34.9124 29.4508 35.0384 30.2706C35.1645 31.0904 35.0343 31.9291 34.6656 32.6721C33.8726 34.2842 32.5372 35.0883 30.7408 35.0631C29.7485 35.0581 28.7978 34.6639 28.0931 33.9652L27.9657 33.8413C26.736 32.6458 25.5055 31.4495 24.3314 30.2015C22.8199 28.5913 22.8319 26.2254 24.2901 24.5659C25.4807 23.2104 25.4505 21.9212 24.1895 20.6522C23.9337 20.396 23.6785 20.1397 23.4235 19.8835C22.5749 19.0312 21.7283 18.1809 20.8686 17.3414C20.1641 16.649 19.3037 16.4205 18.3527 16.7225C17.4248 17.0163 16.8472 17.6714 16.654 18.6265C16.5646 19.0103 16.5748 19.4106 16.6834 19.7894C16.7921 20.1682 16.9957 20.513 17.2749 20.7911C18.4758 22.0276 19.6965 23.2466 20.937 24.4482C21.1299 24.6322 21.3694 24.7716 21.6136 24.9138ZM18.8388 18.3658C18.919 18.3053 19.0002 18.244 19.0773 18.1776L19.0763 18.1807C19.1768 18.2396 19.2701 18.2887 19.3559 18.3338C19.5279 18.4242 19.6699 18.4989 19.7807 18.6063C20.9253 19.7348 22.0621 20.87 23.1912 22.0118C23.5716 22.3973 23.5817 22.8894 23.2536 23.2275C22.9074 23.5817 22.4042 23.5747 22.0017 23.1721C20.8619 22.0397 19.725 20.9032 18.5912 19.7626C18.3175 19.4879 18.1635 19.1397 18.3839 18.7965C18.4918 18.6277 18.6626 18.4989 18.8388 18.3658ZM31.6905 30.6797C31.7325 30.7663 31.7778 30.8595 31.8327 30.9583V30.9653C31.7693 31.0379 31.7108 31.1139 31.6533 31.1886C31.522 31.3591 31.3964 31.5221 31.2319 31.6194C30.8888 31.8378 30.5416 31.703 30.2618 31.4252C29.4896 30.6564 28.7181 29.8868 27.9472 29.1166C27.8304 28.9995 27.7129 28.883 27.5956 28.7667C27.3429 28.5161 27.0906 28.266 26.8453 28.0097C26.4659 27.6121 26.4427 27.1321 26.7678 26.791C27.1079 26.4297 27.6171 26.4347 28.0197 26.8322C29.1676 27.9627 30.3044 29.1032 31.4302 30.2538C31.5376 30.3646 31.6079 30.5094 31.6905 30.6797Z" fill="#04122D"/>
</svg>