<svg xmlns="http://www.w3.org/2000/svg" width="60" height="46" viewBox="0 0 60 46" fill="none">
<path fill-rule="evenodd" clip-rule="evenodd" d="M0.295215 34.4768C0.557715 34.1112 0.940918 34.1124 1.33467 34.1252C1.54583 34.1329 1.75748 34.1306 1.99093 34.128H1.9912H1.9913C2.11661 34.1267 2.2482 34.1252 2.38936 34.1252V31.3831C2.38936 31.2369 2.3946 31.0908 2.39982 30.9451C2.41135 30.6235 2.4228 30.3042 2.37764 29.992C2.24521 29.0756 2.63076 28.4452 3.25537 27.8088C7.0249 23.969 11.5933 22.0538 16.9604 22.0631C17.3618 22.0631 17.7632 22.0627 18.1646 22.0622C19.4261 22.0607 20.6876 22.0592 21.9491 22.0725C22.3007 22.0725 22.5034 21.9553 22.7214 21.6928C23.1309 21.1954 23.5338 20.6903 23.937 20.1848L23.9371 20.1847C24.9589 18.9036 25.9825 17.6203 27.1194 16.4557C31.8069 11.6604 37.5784 9.17134 44.278 8.83852C44.338 8.83852 44.398 8.83277 44.4764 8.82525C44.5205 8.82101 44.5705 8.81621 44.6296 8.81157V8.17876C44.6296 7.73768 44.6306 7.29652 44.6315 6.85531V6.85519C44.6341 5.69167 44.6367 4.52788 44.6214 3.3647C44.6214 2.87954 44.7737 2.57251 45.2179 2.35454C45.9625 1.9899 46.6998 1.60982 47.437 1.22985C47.8843 0.999254 48.3316 0.768696 48.7804 0.541648C49.4905 0.181883 49.8444 0.397508 49.8491 1.19204L49.851 1.58632C49.8565 2.76974 49.8621 3.95315 49.8421 5.13657C49.8362 5.50102 49.9452 5.71431 50.2851 5.8397C50.486 5.90996 50.6756 6.00947 50.8476 6.13501C51.7417 6.81118 52.5573 6.71274 53.5323 6.16665C54.2835 5.74712 54.5753 5.33579 54.5108 4.49087C54.4519 3.70637 54.4664 2.91627 54.4809 2.12647V2.1263C54.4863 1.83192 54.4917 1.53759 54.4933 1.2436C54.4933 0.409227 54.8565 0.180711 55.5843 0.547508C56.0466 0.780697 56.5076 1.01636 56.9686 1.25203L56.9695 1.25248C57.6944 1.62304 58.4194 1.9936 59.1491 2.35454C59.5394 2.5479 59.7128 2.79868 59.7081 3.25688C59.687 5.48032 59.687 7.70376 59.7081 9.9272C59.7081 10.3561 59.5593 10.6092 59.1854 10.7932C58.6768 11.0447 58.1705 11.3025 57.6641 11.5604L57.664 11.5605C57.1205 11.8372 56.5768 12.1141 56.0296 12.3834C55.7612 12.5159 55.6288 12.6553 55.63 12.987C55.6417 19.6573 55.6417 26.3284 55.63 33.0002C55.63 33.3249 55.7472 33.4772 56.0202 33.6131C56.5326 33.865 57.0407 34.1248 57.549 34.3847C58.0719 34.6521 58.5951 34.9197 59.1233 35.1788C59.5394 35.3827 59.7093 35.6604 59.7093 36.1315C59.6905 38.319 59.6905 40.5042 59.7093 42.687C59.7093 43.1557 59.5347 43.4358 59.1233 43.6409C58.4174 43.9872 57.7168 44.3475 57.016 44.708C56.5313 44.9572 56.0465 45.2066 55.5597 45.4514C54.8624 45.803 54.4874 45.5686 54.4839 44.7846C54.482 44.3467 54.4828 43.9087 54.4837 43.4707C54.4854 42.5746 54.4872 41.6784 54.4651 40.7827C54.4651 40.6411 54.356 40.5018 54.2468 40.3624C54.196 40.2975 54.1452 40.2326 54.1054 40.1674C54.0996 40.1595 54.0878 40.1556 54.0756 40.1516C54.068 40.149 54.0602 40.1465 54.0538 40.1428L54.0341 40.1326C52.1166 39.142 52.1056 39.1363 50.2171 40.1885C50.1166 40.257 50.0324 40.3466 49.9702 40.451C49.9081 40.5555 49.8696 40.6723 49.8573 40.7932C49.8344 41.7107 49.8366 42.6288 49.8389 43.5471C49.8398 43.9436 49.8408 44.3401 49.8397 44.7366C49.8397 45.5944 49.4882 45.803 48.7065 45.4069C47.8292 44.9592 46.9546 44.5073 46.0827 44.051C46.0636 44.0415 46.051 44.0205 46.0313 43.9877L46.0313 43.9877C46.0195 43.9681 46.0052 43.9443 45.9854 43.9163L46.4718 42.9729L48.6866 44.0792C48.6866 43.7302 48.6928 43.3885 48.6988 43.052V43.0519V43.0517C48.7123 42.2977 48.7254 41.5702 48.6679 40.8483C48.5952 39.9342 48.9093 39.4116 49.7624 39.0905C50.111 38.9587 50.4412 38.7783 50.7718 38.5977C51.0702 38.4347 51.3689 38.2715 51.6819 38.1436C51.9909 38.0242 52.3326 38.0204 52.644 38.1331C53.1705 38.3632 53.6812 38.6299 54.192 38.8968L54.1922 38.8969C54.5034 39.0595 54.8147 39.222 55.1296 39.3764C55.5058 39.5616 55.6628 39.8206 55.6558 40.2448C55.6415 41.1359 55.644 42.0276 55.6466 42.957V42.9573C55.6477 43.3306 55.6487 43.71 55.6487 44.0979C55.9026 43.9681 56.1511 43.8422 56.3952 43.7185L56.3952 43.7185C57.0875 43.3678 57.7449 43.0348 58.3921 42.6788C58.4964 42.6225 58.5421 42.3823 58.5433 42.2264V42.2259C58.5526 40.351 58.562 38.4762 58.5327 36.6014C58.5162 36.4804 58.4734 36.3644 58.4072 36.2618C58.3409 36.1591 58.253 36.0722 58.1495 36.0073C57.1347 35.4506 56.1011 34.9256 55.0593 34.4194C54.6351 34.2131 54.4815 33.926 54.4815 33.4608C54.4917 26.4795 54.4917 19.4991 54.4815 12.5194C54.4815 12.0506 54.6491 11.7706 55.0675 11.5666C56.1093 11.0592 57.1429 10.5354 58.1577 9.97759C58.26 9.91092 58.3465 9.82266 58.4111 9.719C58.4757 9.61535 58.5168 9.49882 58.5315 9.37759C58.5608 7.52134 58.5538 5.66509 58.5386 3.80884C58.5386 3.62837 58.4542 3.35766 58.3218 3.28501C57.7018 2.93914 57.0685 2.6188 56.3897 2.27549L56.3894 2.27536C56.1484 2.15343 55.9015 2.02859 55.6476 1.89868V3.91079C55.6476 4.09357 55.6462 4.27646 55.6449 4.45936V4.4594C55.6417 4.89562 55.6386 5.33191 55.6534 5.76704C55.6722 5.94042 55.6345 6.11524 55.5461 6.26554C55.4576 6.41584 55.3231 6.53362 55.1624 6.60141C54.8719 6.74669 54.5837 6.89707 54.2955 7.04744L54.2954 7.04748L54.2954 7.0475C53.7444 7.33501 53.1935 7.62247 52.6265 7.87407C52.3317 7.9868 52.0051 7.98387 51.7124 7.86587C51.2039 7.64017 50.7094 7.38264 50.2145 7.12494L50.2145 7.12491C49.8872 6.95446 49.5597 6.78393 49.228 6.62251C48.8261 6.42798 48.6726 6.14673 48.6796 5.70493C48.6928 4.83769 48.6903 3.96929 48.6877 3.06228C48.6866 2.68361 48.6854 2.29822 48.6854 1.90337C48.4286 2.03423 48.1776 2.16091 47.9313 2.28521C47.238 2.6351 46.5819 2.9662 45.9386 3.31899C45.8343 3.37524 45.7862 3.6143 45.7851 3.76782C45.7803 4.61078 45.7798 5.45374 45.7794 6.2967V6.29896C45.7788 7.33024 45.7782 8.36153 45.7698 9.39282C45.7698 9.72329 45.8987 9.86157 46.1706 9.99985C46.655 10.2393 47.1356 10.4867 47.6162 10.7341L47.6164 10.7342L47.6167 10.7343C48.1661 11.0172 48.7158 11.3001 49.2714 11.5713C49.6921 11.7764 49.8479 12.0612 49.8468 12.5288C49.8366 19.5092 49.8366 26.4897 49.8468 33.4702C49.8468 33.9389 49.6862 34.2249 49.2679 34.4288C48.8345 34.6376 48.406 34.8579 47.9773 35.0783L47.9772 35.0783L47.9771 35.0783C47.4437 35.3525 46.9101 35.6268 46.3663 35.8795C45.9245 36.0858 45.6854 36.3284 45.7722 36.8381C45.8055 37.0682 45.8055 37.3018 45.7722 37.5319C45.7511 37.6959 45.6983 37.9596 45.5987 37.9913C45.0753 38.1587 44.9283 38.56 44.7721 38.9865C44.6835 39.2285 44.5919 39.4785 44.4269 39.6987C44.5384 39.7993 44.6495 39.8975 44.7595 39.9948L44.7596 39.9949C45.0034 40.2104 45.2422 40.4216 45.4698 40.6444C45.8003 40.9678 45.7886 41.2819 45.464 41.6041C44.6968 42.3666 43.9311 43.1319 43.1671 43.8999C42.8261 44.2409 42.4229 44.2725 42.1745 43.8823C41.5253 42.8581 40.7378 42.9834 39.8612 43.4956C39.8387 43.5085 39.8172 43.5247 39.7858 43.5484C39.7715 43.5592 39.7552 43.5715 39.7358 43.5858V44.8936C39.7358 45.3624 39.512 45.6143 39.0327 45.6131H35.7831C35.3366 45.6131 35.0987 45.3975 35.0976 44.9417C35.0917 44.884 35.0917 44.8259 35.0976 44.7682C35.3097 43.8307 34.9112 43.3221 34.0007 43.0784C33.6878 42.994 33.5249 43.0069 33.3116 43.2342C32.17 44.4466 32.1295 44.4049 31.2313 43.4795L31.2312 43.4793C31.1475 43.3931 31.0563 43.2992 30.9562 43.1979C30.7673 43.0072 30.5885 42.7927 30.4098 42.5782C30.0095 42.0979 29.6095 41.6179 29.0976 41.4073C28.5627 41.1868 27.9164 41.2343 27.2709 41.2818C26.9971 41.3019 26.7234 41.3221 26.4585 41.3217C26.1003 41.3217 25.7414 41.3208 25.3822 41.3199H25.3809C24.33 41.3172 23.2757 41.3145 22.2245 41.3346C22.1122 41.3438 22.003 41.3766 21.9043 41.4309C21.8055 41.4853 21.7194 41.5599 21.6515 41.6499C18.3702 46.9526 11.2218 46.9502 7.94053 41.6499C7.87249 41.5601 7.78607 41.4858 7.68705 41.432C7.58803 41.3783 7.47868 41.3463 7.36631 41.3381C6.39239 41.3271 5.41873 41.3265 4.44472 41.3258H4.44381C3.34839 41.3251 2.25254 41.3243 1.15537 41.3088C0.957802 41.3088 0.761325 41.2078 0.564822 41.1068C0.473433 41.0598 0.382039 41.0129 0.290527 40.976L0.295215 34.4768ZM7.77764 25.6584H9.67373C10.3628 25.6643 10.5644 25.8987 10.494 26.5959C10.344 27.9928 9.32803 29.2514 7.93936 29.4729C7.18109 29.5934 6.40366 29.5936 5.62628 29.5938C5.29955 29.5939 4.97284 29.594 4.64756 29.603C4.40819 29.61 4.16881 29.6077 3.93083 29.6053H3.93072C3.81223 29.6041 3.69409 29.603 3.57646 29.603V34.1334C3.86373 34.1334 4.14974 34.1338 4.43473 34.1342L4.4404 34.1342C5.50093 34.1356 6.54743 34.1369 7.59248 34.1194C7.70967 34.1194 7.8667 33.9436 7.94404 33.8135C11.2253 28.5038 18.3995 28.4885 21.6269 33.7995C21.7991 34.0831 21.9784 34.137 22.2726 34.1346C23.1359 34.1268 23.9993 34.1277 24.8626 34.1286C25.5461 34.1293 26.2297 34.13 26.9132 34.1264C26.9675 34.1264 27.0227 34.1288 27.0779 34.1312C27.3927 34.1449 27.7074 34.1586 27.8659 33.7268C27.9069 33.6166 28.1976 33.5616 28.378 33.5475C28.5511 33.5337 28.7241 33.5363 28.8956 33.5389H28.8957C29.0726 33.5416 29.2479 33.5442 29.4198 33.5288C29.564 33.5159 29.7714 33.4303 29.823 33.3178C29.974 33.0096 30.097 32.6868 30.2262 32.3478L30.2263 32.3477L30.2265 32.3472C30.2686 32.2365 30.3115 32.1242 30.3562 32.01L30.1618 31.8264L30.1611 31.8257C29.9097 31.5882 29.6638 31.3559 29.4187 31.1229C29.0542 30.7713 29.0519 30.4291 29.4116 30.0682C30.1663 29.3182 30.9183 28.5663 31.6675 27.8124C32.0319 27.4444 32.3788 27.4749 32.7116 27.8452C32.9216 28.0802 33.1263 28.3193 33.3172 28.5424L33.3172 28.5424C33.3948 28.633 33.47 28.721 33.5425 28.8049L35.1116 28.1569V26.787C35.1116 26.3252 35.3343 26.1084 35.7913 26.1096H39.0397C39.5202 26.1096 39.7569 26.3241 39.7511 26.8127C39.7471 27.1203 39.7485 27.4278 39.7498 27.7272V27.7278C39.7504 27.8743 39.7511 28.0188 39.7511 28.1604L41.3214 28.8108C41.4085 28.7119 41.4986 28.6085 41.5911 28.5024L41.5914 28.5021C41.7762 28.2901 41.9703 28.0673 42.1687 27.8487C42.5085 27.4737 42.8589 27.4713 43.2163 27.8311C43.9663 28.585 44.7179 29.3374 45.471 30.0881C45.8354 30.4502 45.8226 30.7971 45.4429 31.1299C45.2133 31.3329 44.9803 31.5308 44.7582 31.7194L44.7572 31.7203C44.6578 31.8048 44.5605 31.8874 44.4667 31.9678C44.5479 32.1132 44.6165 32.2654 44.6718 32.4225C44.8628 33.3823 45.4335 33.6987 46.3897 33.5686C46.5913 33.5408 46.814 33.6664 47.0362 33.7917C47.1319 33.8457 47.2276 33.8996 47.3214 33.9413C47.465 33.9735 47.6264 33.9054 47.8004 33.832L47.8004 33.832C47.8664 33.8042 47.9342 33.7756 48.0034 33.7514C48.5507 33.5604 48.7065 33.2217 48.7065 32.6264C48.6855 27.6764 48.6873 22.7264 48.6891 17.7765C48.6896 16.3843 48.6901 14.9921 48.6901 13.5999V12.8991C48.0971 12.8991 47.5124 12.8962 46.9336 12.8934L46.933 12.8934C45.6547 12.8872 44.4051 12.8811 43.1565 12.9061C38.9589 12.9889 35.2706 14.4088 32.0917 17.1659C31.6675 17.5331 31.2748 17.9389 30.8825 18.3441L30.8825 18.3441C30.694 18.5389 30.5057 18.7335 30.314 18.9237C30.8607 19.0345 31.3351 19.0408 31.8007 19.0469L31.9546 19.0491C33.3608 19.0831 34.2983 20.3053 33.9761 21.6659C33.9576 21.7398 33.9447 21.8165 33.9289 21.9107L33.9289 21.9109L33.9288 21.9111C33.9196 21.9662 33.9093 22.0272 33.8964 22.0971H46.9042V23.2233H33.1933H26.8124C26.0905 23.2233 25.9405 23.0663 25.937 22.3327V21.2885C25.9476 19.9151 26.8077 19.0479 28.1894 19.0561C28.3584 19.0642 28.527 19.0322 28.6814 18.9627C28.8357 18.8933 28.9715 18.7883 29.0776 18.6565C29.193 18.5301 29.3081 18.403 29.4232 18.2759L29.4235 18.2755C30.1002 17.5285 30.7796 16.7784 31.5386 16.1276C35.0132 13.1592 39.0726 11.7424 43.6347 11.7377H46.8597C46.5689 11.4567 46.2067 11.2963 45.8514 11.1388C45.3072 10.8977 44.7791 10.6638 44.5487 10.0151C44.4717 10.0151 44.3931 10.0136 44.3134 10.012C44.1508 10.0089 43.9838 10.0056 43.8163 10.0151C37.7542 10.4276 32.4866 12.6846 28.2011 17.003C26.8923 18.3263 25.7234 19.7915 24.5551 21.2562C24.2149 21.6826 23.8747 22.1091 23.5312 22.5319C23.1233 23.0334 22.7108 23.2268 22.0628 23.2268C21.7105 23.2268 21.358 23.2261 21.0055 23.2255H21.0053H21.0051C18.8637 23.2215 16.7195 23.2175 14.5874 23.3604C12.1733 23.5256 9.93389 24.3752 7.77764 25.6584ZM46.0218 34.7088C45.8514 34.7088 45.7017 34.7062 45.5654 34.7038C45.3267 34.6996 45.1294 34.6962 44.9354 34.7088C44.4069 34.751 44.1257 34.5342 43.9675 34.0186C43.7863 33.47 43.5626 32.9363 43.2983 32.4225C43.119 32.0581 43.1214 31.7499 43.4331 31.485C43.6544 31.297 43.881 31.129 44.0794 30.982C44.1605 30.922 44.2368 30.8654 44.3061 30.8124L42.5249 28.9772L42.3338 29.2079C42.1841 29.3886 42.0299 29.5746 41.8769 29.7612C41.5499 30.1596 41.1948 30.1608 40.7495 29.9264C40.2547 29.6667 39.7374 29.4526 39.2038 29.2866C38.762 29.1506 38.5522 28.9221 38.5745 28.4592C38.5862 28.2067 38.5823 27.9531 38.5784 27.7003L38.5784 27.6998C38.5765 27.5738 38.5745 27.4479 38.5745 27.3225H36.2565C36.2565 27.4542 36.263 27.5835 36.2692 27.71V27.71C36.2834 27.9953 36.2968 28.2661 36.2343 28.5178C36.1512 28.8102 35.9619 29.061 35.7034 29.2209C35.3758 29.3975 35.028 29.5339 34.6796 29.6704C34.4361 29.7659 34.1922 29.8615 33.955 29.9709C33.5858 30.142 33.2823 30.1198 33.0175 29.8116C32.824 29.5864 32.6537 29.3719 32.5056 29.1854C32.4509 29.1166 32.3993 29.0516 32.3507 28.9913L30.5612 30.6999C30.6383 30.7709 30.7142 30.8427 30.79 30.9143L30.7901 30.9144C30.953 31.0683 31.1151 31.2215 31.2854 31.3655C31.6956 31.71 31.7226 32.0686 31.4647 32.5374C31.2067 33.0115 30.9993 33.5115 30.846 34.0291C30.7089 34.4979 30.4733 34.7206 29.987 34.7006C29.735 34.6904 29.483 34.6939 29.2359 34.6973H29.2359H29.2356C29.114 34.699 28.9935 34.7006 28.8749 34.7006V37.0221C29.0042 37.0221 29.1295 37.0242 29.2522 37.0261C29.4897 37.03 29.7172 37.0337 29.9437 37.0221C30.4546 36.9893 30.7077 37.2167 30.8519 37.7077C31.0089 38.2239 31.2169 38.7233 31.4729 39.1983C31.7073 39.6413 31.7179 39.9999 31.3112 40.3245C31.0994 40.4939 30.885 40.6607 30.6939 40.8093L30.5144 40.9491C31.1647 41.6229 31.6698 42.1479 32.2476 42.7491C32.3264 42.6604 32.4052 42.5729 32.4837 42.4858C32.6387 42.3138 32.7924 42.1432 32.9425 41.9674C33.2706 41.576 33.6187 41.5584 34.0686 41.794C34.5827 42.057 35.1172 42.2776 35.6671 42.4538C36.0843 42.5909 36.2729 42.8241 36.2601 43.2542C36.2522 43.5185 36.2549 43.7834 36.2575 44.0438V44.044C36.2588 44.1726 36.2601 44.3001 36.2601 44.426H38.5874C38.5874 44.2986 38.5894 44.1747 38.5914 44.0532C38.5953 43.8171 38.599 43.5902 38.5874 43.3643C38.5558 42.8581 38.7679 42.5944 39.2624 42.4479C39.7957 42.2807 40.3123 42.0645 40.8058 41.8022C41.2347 41.5807 41.5769 41.5983 41.8827 41.9745C42.0588 42.1857 42.2269 42.3997 42.3846 42.6003L42.3848 42.6006L42.3854 42.6013C42.4374 42.6674 42.4882 42.7321 42.5378 42.7948L44.3741 41.0112C44.2785 40.9333 44.1802 40.8589 44.0824 40.7849C43.8505 40.6095 43.6213 40.436 43.4366 40.2225C43.2901 40.0502 43.1624 39.6436 43.2573 39.5194C43.4991 39.1954 43.6171 38.8089 43.735 38.4231C43.8976 37.8906 44.0599 37.3594 44.5464 36.9952C44.6108 36.9483 44.6167 36.776 44.5979 36.6706C44.4315 35.7553 44.8159 35.1975 45.6866 34.9362C45.8055 34.8715 45.9177 34.7954 46.0218 34.7088ZM14.8065 44.4553C16.1365 44.4539 17.4362 44.0585 18.5416 43.3191C19.647 42.5796 20.5085 41.5292 21.0174 40.3004C21.5263 39.0717 21.6597 37.7198 21.4008 36.4153C21.142 35.1108 20.5024 33.9122 19.5629 32.9709C18.6234 32.0296 17.4261 31.3878 16.1221 31.1264C14.8181 30.865 13.4659 30.9959 12.2362 31.5024C11.0065 32.009 9.95443 32.8685 9.21284 33.9725C8.47125 35.0764 8.07337 36.3754 8.06943 37.7053C8.06974 39.4932 8.77923 41.208 10.0422 42.4734C11.3053 43.7388 13.0187 44.4516 14.8065 44.4553ZM22.7155 40.1627H24.4956H29.4843C29.9812 40.1627 30.3808 39.7877 30.2729 39.4444C30.074 38.8132 29.9753 38.5001 29.7617 38.3436C29.5514 38.1896 29.2297 38.1875 28.5913 38.1834H28.5339C27.8519 38.1741 27.689 38.01 27.6843 37.3209V35.3206H22.7155V40.1627ZM6.88701 35.3346H1.48584V40.1276H6.88701V35.3346ZM27.0995 22.0631H27.5683C27.9563 22.0631 28.3441 22.0639 28.732 22.0646H28.732H28.7324C29.8098 22.0667 30.8873 22.0687 31.9686 22.0549C32.0903 22.0574 32.2112 22.0355 32.3242 21.9904C32.4371 21.9453 32.5399 21.878 32.6264 21.7924C32.7128 21.7068 32.7812 21.6047 32.8275 21.4922C32.8737 21.3797 32.8969 21.259 32.8956 21.1374C32.8956 20.6147 32.5065 20.2198 31.9183 20.2127C30.644 20.1979 29.3698 20.1979 28.0956 20.2127C27.4769 20.2198 27.1323 20.5725 27.103 21.1807C27.0927 21.3614 27.0948 21.5416 27.0972 21.7488V21.7488V21.749C27.0983 21.8467 27.0995 21.9505 27.0995 22.0631ZM5.39742 28.4426H5.39768H5.3977C6.0118 28.4476 6.62634 28.4526 7.23975 28.4323C7.69918 28.4249 8.14247 28.2617 8.49697 27.9693C8.85148 27.677 9.09616 27.2729 9.19092 26.8233C7.45537 26.7928 5.90264 27.2651 4.57959 28.4381C4.85202 28.4381 5.12468 28.4403 5.39742 28.4426ZM42.0633 35.9132C42.0538 36.83 41.7729 37.7234 41.256 38.4806C40.7391 39.2379 40.0095 39.825 39.1591 40.1679C38.3088 40.5107 37.376 40.594 36.4784 40.4071C35.5808 40.2202 34.7587 39.7716 34.1159 39.1178C33.4731 38.4641 33.0385 37.6345 32.8668 36.7339C32.6951 35.8333 32.794 34.902 33.1512 34.0576C33.5084 33.2132 34.1078 32.4936 34.8736 31.9895C35.6395 31.4855 36.5375 31.2197 37.4543 31.2257C38.0648 31.2307 38.6683 31.356 39.2303 31.5943C39.7923 31.8327 40.3019 32.1794 40.7299 32.6147C41.1579 33.05 41.4959 33.5653 41.7247 34.1313C41.9535 34.6972 42.0686 35.3027 42.0633 35.9132ZM40.8129 35.3272H34.0313C33.7618 36.6292 34.3524 37.9933 35.4914 38.7585C36.0619 39.1457 36.7355 39.3527 37.425 39.3527C38.1145 39.3527 38.7881 39.1457 39.3586 38.7585C40.5024 37.9827 41.0942 36.6034 40.8129 35.3237V35.3272ZM34.4321 34.0909H40.4157C39.6598 32.9753 38.6883 32.4022 37.4274 32.4011C36.1665 32.3999 35.1915 32.9694 34.4321 34.0874V34.0909ZM18.3492 40.1313C18.8261 39.4286 19.0837 38.6002 19.0895 37.7511C19.0943 36.6156 18.65 35.5244 17.8537 34.715C17.0573 33.9057 15.9733 33.444 14.838 33.4304C13.9888 33.4225 13.1564 33.6667 12.4461 34.1322C11.7359 34.5976 11.1796 35.2633 10.8479 36.045C10.5161 36.8268 10.4237 37.6893 10.5824 38.5236C10.7411 39.3578 11.1438 40.1262 11.7394 40.7315C12.335 41.3368 13.0968 41.7518 13.9284 41.9239C14.7599 42.096 15.6239 42.0176 16.4108 41.6985C17.1978 41.3794 17.8724 40.834 18.3492 40.1313ZM13.0771 35.1129C13.5938 34.7719 14.2001 34.5917 14.8192 34.5952C15.6499 34.6011 16.4443 34.9363 17.0281 35.5273C17.6119 36.1184 17.9373 36.9169 17.9329 37.7475C17.9287 38.3667 17.7411 38.9707 17.3937 39.4832C17.0463 39.9957 16.5548 40.3937 15.9813 40.627C15.4078 40.8602 14.7779 40.9182 14.1715 40.7936C13.565 40.6689 13.0091 40.3673 12.574 39.9268C12.1389 39.4863 11.8441 38.9267 11.727 38.3188C11.6099 37.7108 11.6756 37.0817 11.9159 36.5111C12.1562 35.9405 12.5603 35.454 13.0771 35.1129Z" fill="#04122D"/>
</svg>