<svg xmlns="http://www.w3.org/2000/svg" width="60" height="57" viewBox="0 0 60 57" fill="none">
<path fill-rule="evenodd" clip-rule="evenodd" d="M59.8537 10.3345C59.6645 10.8638 59.4744 11.3927 59.2842 11.9216L59.2839 11.9223C58.8522 13.123 58.4204 14.324 57.9998 15.5294C57.203 17.8048 56.4155 20.0825 55.6281 22.3601L55.6261 22.3659C55.1403 23.7708 54.6546 25.1758 54.1666 26.5802C53.1623 29.4677 51.0225 30.9841 47.9498 30.9853H17.4026C17.5012 31.5819 17.5918 32.1741 17.6818 32.7621L17.6818 32.7622C17.8871 34.103 18.0889 35.4219 18.374 36.7205C18.7631 38.4994 20.4319 39.6841 22.3584 39.7029C23.8925 39.7177 25.4261 39.7146 26.9595 39.7114L26.9651 39.7114C27.6061 39.7101 28.2471 39.7087 28.8881 39.7087H51.9119C52.1257 39.7013 52.3397 39.7056 52.5529 39.7216C52.7873 39.7435 53.0059 39.8493 53.1683 40.0197C53.3307 40.1901 53.426 40.4134 53.4365 40.6486C53.4523 40.893 53.3774 41.1346 53.226 41.327C53.0746 41.5195 52.8574 41.6493 52.6162 41.6916C52.3828 41.718 52.1477 41.7255 51.9131 41.7138C49.2157 41.7138 46.5182 41.7092 43.8206 41.7047H43.8204C36.8597 41.6929 29.8985 41.6811 22.9385 41.7478C19.642 41.7794 16.6772 39.8517 16.1006 35.8486C15.3792 30.8434 14.5737 25.8511 13.7682 20.8588L13.7682 20.8587C13.4327 18.7794 13.0972 16.7002 12.7678 14.6201C12.6522 13.8872 12.5375 13.1541 12.4227 12.421C12.0722 10.1812 11.7215 7.9411 11.3463 5.70562C11.0053 3.64546 9.35881 2.29312 7.2635 2.28491C5.94166 2.28023 4.62035 2.28179 3.29887 2.28335C2.63806 2.28413 1.97721 2.28491 1.31623 2.28491C0.540448 2.28491 0.0271672 1.73765 0.170136 1.08843C0.287323 0.572803 0.629511 0.27749 1.16623 0.278662C1.77083 0.278662 2.37568 0.273938 2.98054 0.269214C4.67 0.256019 6.35952 0.242824 8.04396 0.332568C10.8096 0.480225 13.0104 2.80991 13.4346 5.81811C13.5331 6.50915 13.6446 7.19915 13.7601 7.91384L13.7602 7.9139C13.8178 8.27059 13.8765 8.63343 13.935 9.00562H14.7377C29.2549 9.00562 43.7717 9.00288 58.2881 8.99741C58.9209 8.99741 59.474 9.0771 59.8537 9.6396V10.3345ZM57.408 11.0669H14.2596L14.3342 11.5379C15.257 17.3623 16.1735 23.1468 17.0967 28.9791H47.9709C50.1412 28.9791 51.5533 27.9677 52.2694 25.9076C52.9561 23.9287 53.642 21.949 54.3272 19.9685C54.6018 19.1744 54.8761 18.381 55.1506 17.5869L55.1528 17.5803L55.1554 17.573C55.9004 15.4176 56.647 13.2576 57.408 11.0669ZM29.3335 51.0315C29.3326 52.1554 28.9983 53.2538 28.3728 54.1876C27.7474 55.1214 26.859 55.8487 25.8201 56.2774C24.7812 56.7061 23.6384 56.8169 22.5364 56.5959C21.4345 56.3749 20.4228 55.8319 19.6296 55.0357C18.8363 54.2395 18.2971 53.2259 18.0802 52.1231C17.8633 51.0203 17.9784 49.878 18.4109 48.8406C18.8435 47.8033 19.5741 46.9176 20.5102 46.2957C21.4464 45.6737 22.546 45.3435 23.6699 45.3467C25.1732 45.3544 26.6125 45.9565 27.6736 47.0216C28.7347 48.0866 29.3314 49.5281 29.3335 51.0315ZM27.3203 51.0397C27.3016 50.0774 26.9059 49.161 26.2182 48.4876C25.5306 47.8143 24.606 47.4378 23.6436 47.4394C22.6812 47.4409 21.7578 47.8203 21.0724 48.4958C20.3869 49.1714 19.9941 50.0891 19.9785 51.0514C19.9706 51.539 20.0599 52.0232 20.2412 52.4759C20.4225 52.9286 20.6922 53.3406 21.0345 53.688C21.3767 54.0353 21.7848 54.311 22.2348 54.4988C22.6848 54.6867 23.1677 54.7831 23.6553 54.7823C24.143 54.7816 24.6256 54.6837 25.075 54.4943C25.5244 54.305 25.9315 54.028 26.2727 53.6796C26.6139 53.3312 26.8822 52.9183 27.0621 52.465C27.242 52.0118 27.3297 51.5272 27.3203 51.0397ZM40.028 47.8755C39.3981 48.8071 39.0588 49.9045 39.053 51.0289C39.0486 52.5326 39.639 53.9769 40.6954 55.047C41.7518 56.117 43.1885 56.7258 44.6921 56.7407C45.8165 56.7492 46.9182 56.424 47.8577 55.8061C48.7972 55.1883 49.5323 54.3055 49.9699 53.2697C50.4074 52.2339 50.5279 51.0915 50.3159 49.9872C50.1039 48.8829 49.5691 47.8663 48.7791 47.0661C47.9891 46.2659 46.9794 45.7181 45.8779 45.492C44.7764 45.2659 43.6326 45.3717 42.5912 45.796C41.5499 46.2203 40.6578 46.944 40.028 47.8755ZM42.1267 48.4744C42.8107 47.7827 43.7415 47.391 44.7143 47.3856C45.196 47.3829 45.6735 47.4751 46.1196 47.6569C46.5656 47.8388 46.9715 48.1067 47.314 48.4454C47.6565 48.7841 47.9289 49.1869 48.1158 49.6309C48.3026 50.0749 48.4001 50.5514 48.4028 51.033C48.4055 51.5147 48.3133 51.9922 48.1315 52.4383C47.9496 52.8843 47.6817 53.2902 47.343 53.6327C47.0043 53.9752 46.6014 54.2476 46.1575 54.4345C45.7135 54.6213 45.237 54.7188 44.7553 54.7215C43.7825 54.727 42.8474 54.3457 42.1557 53.6617C41.464 52.9777 41.0723 52.0469 41.0669 51.0741C41.0614 50.1013 41.4427 49.1661 42.1267 48.4744Z" fill="#04122D"/>
</svg>