<svg xmlns="http://www.w3.org/2000/svg" width="61" height="50" viewBox="0 0 61 50" fill="none">
  <path fill-rule="evenodd" clip-rule="evenodd" d="M2.85073 0H58.0077C58.7631 0.00211305 59.4869 0.303136 60.0211 0.837295C60.5553 1.37145 60.8563 2.09532 60.8584 2.85074V36.7713C60.8563 37.5267 60.5553 38.2506 60.0211 38.7847C59.4869 39.3189 58.7631 39.6199 58.0077 39.622H35.1858V46.1963H43.8581V50H17.0003V46.1963H25.6726V39.622H2.85073C2.09532 39.6199 1.37145 39.3189 0.837295 38.7847C0.303136 38.2506 0.00211305 37.5267 0 36.7713V2.85074C0.00211305 2.09532 0.303136 1.37145 0.837295 0.837295C1.37145 0.303136 2.09532 0.00211305 2.85073 0ZM3.80365 35.8184H57.0547V3.78763H3.80365V35.8184ZM15.9435 19.875L25.3286 23.5986V27.3862L11.8676 21.5326V18.2895L25.3286 12.4679V16.2796L15.9435 19.875ZM34.2648 9.65723H31.438L26.5774 29.9567H29.348L34.2648 9.65723ZM35.5141 12.492L48.983 18.3216V21.5327L35.5141 27.4023V23.6066L44.9151 19.9151L35.5141 16.2556V12.492Z" fill="#04122D"/>
</svg>