<svg xmlns="http://www.w3.org/2000/svg" width="58" height="57" viewBox="0 0 58 57" fill="none">
<path fill-rule="evenodd" clip-rule="evenodd" d="M57.077 3.9375V8.21016C56.77 8.71523 56.3129 8.86875 55.7375 8.86289C54.4054 8.84935 53.0727 8.8517 51.7398 8.85405C51.2271 8.85496 50.7143 8.85586 50.2016 8.85586H49.6239C49.6204 8.91928 49.6171 8.97362 49.6141 9.02186L49.6141 9.02206C49.6081 9.12081 49.6036 9.194 49.6028 9.26719C49.5852 10.4871 49.3415 10.7238 48.0993 10.7238H46.8114V54.6691H48.404C48.3595 54.5977 48.3208 54.535 48.2853 54.4774L48.284 54.4755C48.2368 54.3989 48.1952 54.3315 48.1532 54.2648C47.2836 52.8832 47.8379 50.9836 49.325 50.3262C49.6836 50.1703 49.754 50.0355 49.6661 49.6441C49.3145 48.1113 50.3024 46.6594 51.8586 46.3266C52.2168 46.2508 52.5865 46.2476 52.9459 46.3173C53.3053 46.3869 53.647 46.528 53.9509 46.7321C54.2548 46.9363 54.5146 47.1993 54.715 47.5056C54.9154 47.812 55.0523 48.1554 55.1176 48.5156C55.1838 48.8678 55.167 49.2357 55.1495 49.62C55.1413 49.8009 55.1329 49.9855 55.1329 50.1738C56.1875 50.4938 56.7735 51.3211 57.0747 52.4004V53.277L56.4418 54.702H57.0747V56.5664H0.981689V54.8801C1.10928 54.798 1.22868 54.7295 1.33919 54.666L1.33921 54.666L1.33925 54.666C1.54438 54.5482 1.71889 54.448 1.85825 54.3117C2.67005 53.5157 3.47365 52.7115 4.27678 51.9078L4.2768 51.9078L4.27682 51.9077L4.27684 51.9077L4.27686 51.9077L4.27689 51.9076L4.27695 51.9076L4.277 51.9075C4.72591 51.4583 5.17468 51.0092 5.62466 50.5617C6.33833 49.8504 6.76958 49.848 7.47388 50.55C7.81142 50.8862 8.15294 51.2189 8.49448 51.5517L8.49456 51.5518L8.49465 51.5519L8.49473 51.5519L8.49481 51.552L8.49489 51.5521L8.49497 51.5522L8.49505 51.5523L8.49513 51.5523L8.49522 51.5524L8.4953 51.5525L8.49538 51.5526L8.49546 51.5527L8.49554 51.5527L8.49562 51.5528L8.49571 51.5529L8.49579 51.553L8.49587 51.5531L8.49595 51.5531L8.49603 51.5532L8.49611 51.5533L8.49619 51.5534L8.49628 51.5535L8.49636 51.5535L8.49644 51.5536L8.49652 51.5537L8.4966 51.5538L8.49681 51.554C9.35918 52.3942 10.2217 53.2345 11.0211 54.1312C11.5566 54.7329 12.1303 54.7107 12.7677 54.6861L12.7679 54.6861C12.8865 54.6816 13.0073 54.6769 13.1305 54.6762V12.6316H15.0055V16.3488H27.111V18.2109H15.0079V20.9836H20.5543L20.6129 20.1H22.4188C22.4303 20.2452 22.441 20.3841 22.4514 20.5192C22.4633 20.6741 22.4749 20.8241 22.4868 20.973H28.086V19.1766H29.961V20.9695H35.586V17.325H37.461V54.6668H41.1383V10.7273H40.2934C40.1957 10.7273 40.0979 10.7285 40.0003 10.7297C39.8052 10.732 39.6105 10.7344 39.4168 10.7273C38.7512 10.6945 38.4137 10.3758 38.3622 9.71016C38.3481 9.53415 38.3528 9.35658 38.3574 9.17678V9.17673V9.17667V9.17663V9.17657V9.17651V9.17646V9.17641V9.17635V9.1763V9.17624V9.17619V9.17613V9.17607V9.17602V9.17596V9.1759V9.17585V9.17579V9.17573V9.17567V9.17561V9.17555V9.17549V9.17543V9.17537V9.17531V9.17525C38.3598 9.085 38.3622 8.99419 38.3622 8.90273H6.57739C6.57314 8.94187 6.56842 8.97607 6.56414 9.00712L6.56413 9.00716L6.56413 9.00717C6.55662 9.06162 6.55044 9.1064 6.55044 9.15117C6.55044 14.5957 6.55435 20.0402 6.56216 25.4848C6.57652 25.5906 6.61386 25.692 6.67156 25.7819C6.72925 25.8718 6.8059 25.9479 6.89614 26.0051C7.99302 26.6273 8.59302 27.7172 8.36567 28.9289C8.30016 29.2759 8.15038 29.6072 7.99181 29.9579L7.99179 29.958C7.9206 30.1154 7.84764 30.2768 7.77974 30.4453C7.96244 30.689 8.14984 30.9362 8.33965 31.1865L8.33984 31.1867C8.85364 31.8643 9.38512 32.5652 9.88911 33.2848C10.1078 33.5916 10.239 33.9521 10.2688 34.3277C10.3168 35.4398 10.3157 36.5543 10.2688 37.6699C10.2419 38.0252 10.1056 38.3633 9.87856 38.6379C9.3935 39.2093 8.86243 39.74 8.29067 40.2246C8.00345 40.4654 7.64921 40.6123 7.27583 40.6453C6.18277 40.7002 5.08764 40.7002 3.99458 40.6453C3.60685 40.6056 3.23972 40.4514 2.93989 40.2023C2.38623 39.7492 1.87868 39.2424 1.42466 38.6895C1.16559 38.3742 1.00574 37.9892 0.965283 37.5832C0.909033 36.5433 0.909033 35.5012 0.965283 34.4613C0.988173 34.0502 1.11826 33.6523 1.34263 33.307C1.90352 32.4796 2.51526 31.6884 3.12872 30.8949L3.12874 30.8948L3.12877 30.8948L3.30317 30.6691C3.47075 30.45 3.46841 30.3023 3.3313 30.0469C3.16051 29.7288 3.03445 29.3872 2.89943 29.0213L2.89942 29.0213L2.89941 29.0213C2.83896 28.8575 2.77672 28.6888 2.70786 28.5152H4.63794C4.64662 28.5336 4.65561 28.5521 4.66466 28.5708C4.68617 28.615 4.70803 28.6601 4.727 28.7062C4.96138 29.2734 5.30005 29.4891 5.81216 29.3836C6.26567 29.291 6.50122 28.9898 6.5352 28.541C6.57153 28.0488 6.26919 27.7207 5.68794 27.5777C4.87583 27.3809 4.68013 27.1359 4.68013 26.2793V9.50742V8.8582C4.36329 8.8582 4.05702 8.85943 3.75777 8.86063H3.75742H3.75708H3.75673H3.75639H3.75606H3.75573H3.7554H3.75535H3.7553H3.75525H3.7552H3.75515H3.75511H3.75506H3.75502H3.75497H3.75493H3.75488H3.75484H3.7548H3.75476H3.75472H3.75468H3.75464H3.7546H3.75456H3.75453H3.75449H3.75446H3.75442H3.75439H3.75436H3.75432H3.75429C3.1749 8.86294 2.62179 8.86515 2.06919 8.8582C1.36606 8.84766 0.971142 8.52656 0.95708 7.91016C0.930127 6.66914 0.933642 5.42578 0.95708 4.18359C0.967627 3.63047 1.30864 3.31641 1.85239 3.2625C2.07072 3.24589 2.28976 3.24041 2.50864 3.24609H38.3575C38.3575 3.0608 38.3597 2.88737 38.3619 2.72191V2.72149V2.72109V2.72069V2.7203V2.71992V2.71955V2.71919V2.71883V2.71849V2.71815V2.71783V2.71751V2.7172V2.71689C38.366 2.40507 38.3697 2.12147 38.3575 1.83984C38.327 1.25391 38.4688 0.764062 38.9915 0.433594H48.9688C49.4891 0.759375 49.645 1.24336 49.611 1.83281C49.5925 2.14183 49.5966 2.45196 49.601 2.78179V2.78198C49.6031 2.93239 49.6051 3.0869 49.6051 3.24727H50.2579C50.8786 3.24727 51.4993 3.24831 52.12 3.24935H52.1201C53.3614 3.25143 54.6028 3.25352 55.8442 3.24727C56.4067 3.23203 56.8356 3.40547 57.077 3.9375ZM15.0184 26.3367V54.6551H35.5262V34.1004H34.8969C34.377 34.1004 33.8569 34.0994 33.3368 34.0983H33.3367H33.3366H33.3365H33.3364H33.3363H33.3362H33.336C32.0114 34.0957 30.6865 34.0931 29.3622 34.1074C29.1265 34.1192 28.8912 34.0794 28.6726 33.9907C28.454 33.9021 28.2574 33.7667 28.0965 33.5941C27.1356 32.6168 26.1598 31.6555 25.1692 30.7102C24.9739 30.5366 24.7267 30.4323 24.4661 30.4137C23.8837 30.3898 23.2997 30.3935 22.7147 30.3972C22.4393 30.399 22.1637 30.4007 21.8879 30.3996C20.8883 30.3938 20.586 30.0891 20.5836 29.0848V26.3344L15.0184 26.3367ZM29.9821 32.1961H35.5344V22.9242H29.9821V32.1961ZM22.4879 22.9113V28.5187C22.7266 28.5187 22.9622 28.5204 23.1956 28.5221C23.7428 28.526 24.2778 28.5298 24.8118 28.5117C25.3801 28.493 25.8383 28.6559 26.218 29.0848C26.5971 29.5099 26.9883 29.9241 27.3795 30.3382C27.5458 30.5142 27.712 30.6903 27.8774 30.8672L28.025 30.75V22.9137L22.4879 22.9113ZM2.81216 35.0789C2.81216 35.2835 2.81139 35.4832 2.81064 35.6793C2.8086 36.2109 2.80666 36.716 2.82036 37.2211C2.84042 37.3775 2.90511 37.5247 3.00669 37.6453C3.64185 38.4949 4.41294 39.0234 5.55435 38.8031C5.77125 38.7613 5.99862 38.7724 6.22626 38.7836H6.22632H6.22639H6.22645H6.22651H6.22657H6.22664H6.2267H6.22676H6.22683H6.22689H6.22695H6.22701H6.22708H6.22714H6.22721H6.22727H6.22734H6.22741H6.22749H6.22756H6.22763H6.22771H6.22779H6.22786H6.22794H6.22802H6.22811C6.33192 38.7887 6.43578 38.7938 6.53872 38.7938C7.03208 38.7938 8.34809 37.882 8.38911 37.4051C8.4362 36.8624 8.42622 36.315 8.41623 35.767C8.41205 35.5377 8.40786 35.3082 8.40786 35.0789H2.81216ZM47.6821 8.82891V2.33203H45.8575V2.96016C45.8575 3.37886 45.8585 3.7977 45.8595 4.21658V4.21671V4.21684V4.21697V4.2171V4.21723V4.21736V4.21749V4.21762V4.21775V4.21788V4.21801V4.21814V4.21827V4.2184V4.21853V4.21866V4.21879V4.21892V4.21905V4.21918V4.21931V4.21944V4.21957V4.21971V4.21984V4.21997V4.2201V4.22112C45.8616 5.06101 45.8637 5.90108 45.8575 6.74062C45.8493 7.57617 45.5165 7.89844 44.6856 7.9043C43.8332 7.90898 42.9809 7.90742 42.1286 7.90586C41.7024 7.90508 41.2762 7.9043 40.85 7.9043C40.7228 7.9043 40.5956 7.91149 40.4554 7.91941C40.3839 7.92345 40.309 7.92769 40.229 7.93125C40.2442 8.27695 40.2571 8.55469 40.27 8.82539L47.6821 8.82891ZM40.2758 2.32031V6.00703H43.9473V2.32031H40.2758ZM20.5614 22.9312H15.0184V24.4043H20.5614V22.9312ZM4.27935 54.6562H8.77817L6.54341 52.3898L4.27935 54.6562ZM7.47153 33.1488C7.3256 32.9566 7.19103 32.7655 7.06018 32.5798C6.77071 32.1689 6.49945 31.7839 6.16372 31.4684C5.96216 31.2809 5.3188 31.248 5.13481 31.4203C4.76985 31.7636 4.47333 32.1794 4.16254 32.6153L4.16252 32.6153C4.03723 32.7911 3.90962 32.97 3.77427 33.1488H7.47153ZM28.6977 6.95859C28.4758 6.81106 28.2637 6.66944 28.0587 6.53255C27.4788 6.14534 26.9556 5.79595 26.4266 5.45742C26.37 5.42208 26.3061 5.40003 26.2397 5.39293C26.1733 5.38582 26.1062 5.39385 26.0434 5.41641C25.4964 5.76208 24.957 6.12368 24.3651 6.52048L24.3651 6.52051C24.1543 6.66179 23.937 6.80753 23.7102 6.95859H28.6977ZM17.2708 6.95859L17.3235 6.86367C17.1478 6.74607 16.9723 6.62812 16.7968 6.51016C16.2536 6.14501 15.7102 5.77979 15.1602 5.42461C15.1079 5.39606 15.0496 5.38004 14.99 5.3778C14.9305 5.37556 14.8712 5.38717 14.8168 5.41172C14.2701 5.75941 13.7298 6.12258 13.1892 6.48592L13.1892 6.48593L13.1892 6.48594L13.1892 6.48594L13.1892 6.48595L13.1892 6.48595L13.1892 6.48596L13.1892 6.48596L13.1892 6.48597L13.1892 6.48598L13.1892 6.48598L13.1891 6.48599L13.1891 6.48599L13.1891 6.486L13.1891 6.486L13.1891 6.48601L13.1891 6.48602L13.1891 6.48602L13.1891 6.48603L13.1891 6.48603L13.1891 6.48604L13.1891 6.48604L13.1891 6.48605L13.189 6.48606L13.189 6.48606L13.189 6.48607L13.189 6.48607L13.189 6.4861L13.1889 6.48618L13.1888 6.48625L13.1887 6.48632L13.1885 6.48639L13.1884 6.48646L13.1883 6.48653L13.1882 6.4866L13.1881 6.48667L13.188 6.48674L13.1879 6.48681L13.1878 6.48688L13.1877 6.48695L13.1876 6.48702L13.1866 6.48767C12.9993 6.61359 12.8119 6.73953 12.6243 6.86484L12.6711 6.95859H17.2708ZM43.0684 23.4949C43.2284 23.2555 43.3815 23.0278 43.5291 22.8083C43.8952 22.2639 44.2278 21.7694 44.5485 21.2684C44.6188 21.157 44.6551 20.9391 44.5942 20.8418C44.2534 20.3 43.8978 19.7675 43.5148 19.1939C43.3709 18.9784 43.2231 18.7571 43.0707 18.5273L43.0684 23.4949ZM44.8977 13.0043C44.8462 13.0394 44.7976 13.0786 44.7524 13.1215L43.8149 14.5277L43.8143 14.5286C43.236 15.3949 43.235 15.3964 43.8254 16.2785C44.0732 16.6492 44.3222 17.0186 44.6056 17.439L44.9024 17.8793L44.8977 13.0043ZM43.0719 45.9445C43.1956 45.759 43.3154 45.5798 43.4321 45.4053C43.8394 44.7961 44.208 44.2448 44.5661 43.6863C44.6008 43.6301 44.6225 43.5668 44.6296 43.5011C44.6367 43.4354 44.629 43.369 44.6071 43.3066C44.2632 42.7599 43.9016 42.2206 43.5104 41.6372L43.5104 41.6371L43.5104 41.6371L43.5103 41.6371L43.5103 41.637L43.5103 41.637L43.5103 41.637L43.5102 41.6369L43.5102 41.6369L43.5102 41.6368L43.5102 41.6368L43.5101 41.6368L43.5101 41.6367L43.5101 41.6367L43.5095 41.6359L43.5095 41.6358L43.5078 41.6334C43.3666 41.4227 43.2215 41.2063 43.0719 40.9816V45.9445ZM44.8825 29.1V24.1477C44.7437 24.3567 44.6094 24.5581 44.4789 24.754L44.4781 24.7551L44.478 24.7553L44.4779 24.7554L44.4774 24.7563L44.477 24.7568C44.0725 25.3637 43.7037 25.9172 43.3461 26.4773C43.3238 26.531 43.3142 26.589 43.3181 26.6469C43.3219 26.7049 43.3392 26.7612 43.3684 26.8113C43.7314 27.3763 44.1043 27.9349 44.5161 28.5519L44.5162 28.552C44.6348 28.7297 44.7567 28.9122 44.8825 29.1012V29.1ZM43.0907 29.7879V34.6945C43.2352 34.4774 43.3758 34.2679 43.5129 34.0636C43.887 33.5062 44.235 32.9877 44.5661 32.4586C44.5978 32.3838 44.6123 32.3029 44.6087 32.2218C44.605 32.1407 44.5833 32.0614 44.545 31.9898C44.2075 31.4491 43.854 30.9237 43.4729 30.3574L43.4729 30.3573C43.3486 30.1725 43.2213 29.9834 43.0907 29.7879ZM44.8872 35.3684C44.7265 35.6094 44.5731 35.8385 44.4252 36.0594L44.4251 36.0597C44.0619 36.6022 43.7318 37.0953 43.4071 37.5949C43.3438 37.6922 43.2618 37.8645 43.304 37.9289C43.6906 38.5373 44.0914 39.1376 44.5351 39.8022L44.5358 39.8032L44.5359 39.8035L44.537 39.8051C44.6507 39.9755 44.7673 40.1501 44.8872 40.3301V35.3684ZM44.8872 46.7707L44.7934 46.7355C44.6874 46.8942 44.5811 47.0528 44.4748 47.2114L44.4722 47.2152L44.4721 47.2153L44.4721 47.2154L44.472 47.2155L44.472 47.2155L44.4719 47.2156L44.4719 47.2157L44.4718 47.2158L44.4717 47.2159L44.4717 47.2159L44.4716 47.216L44.4716 47.2161L44.4715 47.2162L44.4715 47.2163L44.4714 47.2163L44.4713 47.2164L44.4713 47.2165L44.4712 47.2166L44.4712 47.2167L44.4711 47.2167L44.4711 47.2168L44.471 47.2169L44.4709 47.217L44.4709 47.2171L44.4708 47.2171L44.4708 47.2172L44.4707 47.2173L44.4707 47.2174C44.1026 47.7665 43.7344 48.3158 43.3754 48.8707C43.3436 48.9198 43.3232 48.9754 43.3157 49.0334C43.3082 49.0914 43.3138 49.1503 43.3321 49.2059C43.6952 49.7744 44.0697 50.3363 44.4788 50.9502L44.479 50.9504C44.6111 51.1487 44.747 51.3525 44.8872 51.5637V46.7707ZM6.90317 5.14922L9.36411 6.78984L11.825 5.14922H6.90317ZM20.5883 6.78984L23.0493 5.14922H18.1368L20.5883 6.78984ZM34.2418 5.17031H29.3903L31.8172 6.79102L34.2418 5.17031ZM2.84028 6.94453H6.22349C5.9707 6.77611 5.727 6.61203 5.4894 6.45205C4.83591 6.01205 4.22859 5.60314 3.60552 5.2207C3.47021 5.13713 3.28786 5.12978 3.10181 5.12228C3.01394 5.11874 2.92524 5.11517 2.84028 5.10352V6.94453ZM38.3106 6.94453H35.1433C35.4731 6.74239 35.7783 6.49678 36.0854 6.2496L36.0854 6.24957C36.7348 5.72693 37.3928 5.19728 38.3106 5.05664V6.94453ZM52.3825 48.1477C52.2593 48.1523 52.1383 48.1813 52.0264 48.2327C51.9144 48.2842 51.8137 48.3573 51.73 48.4477C51.6463 48.5382 51.5812 48.6442 51.5386 48.7599C51.4959 48.8755 51.4764 48.9983 51.4813 49.1215C51.4911 49.361 51.595 49.5871 51.7706 49.7504C51.9462 49.9136 52.1792 50.001 52.4188 49.9934C52.6668 49.9866 52.9021 49.8818 53.073 49.7019C53.2439 49.522 53.3365 49.2817 53.3305 49.0336C53.31 48.7948 53.2017 48.5722 53.0266 48.4086C52.8516 48.2449 52.6221 48.152 52.3825 48.1477ZM54.2575 51.8977C54.0189 51.905 53.7922 52.003 53.6234 52.1718C53.4547 52.3406 53.3566 52.5673 53.3493 52.8059C53.3472 52.9292 53.3701 53.0516 53.4165 53.1659C53.463 53.2801 53.5321 53.3838 53.6197 53.4706C53.7073 53.5574 53.8115 53.6256 53.9262 53.6711C54.0408 53.7165 54.1635 53.7383 54.2868 53.7352C54.5257 53.7311 54.7539 53.6352 54.9241 53.4674C55.0942 53.2996 55.1933 53.0728 55.2008 52.834C55.1975 52.5855 55.0968 52.3482 54.9204 52.1732C54.744 51.9981 54.506 51.8992 54.2575 51.8977ZM51.4543 52.8352C51.4547 52.5956 51.3634 52.3649 51.1991 52.1906C51.0348 52.0163 50.8099 51.9114 50.5707 51.8977C50.4481 51.8923 50.3255 51.9116 50.2104 51.9544C50.0953 51.9973 49.99 52.0627 49.9006 52.147C49.8113 52.2312 49.7397 52.3325 49.6901 52.4449C49.6406 52.5572 49.6141 52.6784 49.6122 52.8012C49.6079 52.9195 49.6272 53.0375 49.669 53.1484C49.7107 53.2592 49.774 53.3607 49.8552 53.4469C49.9364 53.5331 50.0339 53.6024 50.142 53.6507C50.2502 53.6989 50.3668 53.7253 50.4852 53.7281C50.6078 53.7347 50.7306 53.7167 50.8462 53.6752C50.9617 53.6336 51.0678 53.5693 51.1581 53.4861C51.2485 53.4028 51.3212 53.3024 51.3721 53.1906C51.423 53.0788 51.4509 52.9579 51.4543 52.8352ZM55.1879 5.30625L52.727 6.94688H55.1879V5.30625ZM43.0907 52.2387V54.6586H44.702L43.0907 52.2387ZM49.6239 6.76641L52.0497 5.15156H49.6239V6.76641ZM43.0614 12.1148L43.1563 12.1535L44.054 10.7695H43.0614V12.1148ZM28.1189 35.9893H29.9037V37.8092H28.1189V35.9893ZM29.9165 52.7963V50.9834H28.1106V52.7963H29.9165ZM29.9104 45.3141H28.1116V43.5176H29.9104V45.3141ZM28.1047 47.2427V49.0556H29.9083V47.2427H28.1047ZM28.1033 41.5534V39.7534H29.9009V41.5534H28.1033ZM20.6199 52.8022H22.4222V50.9917H20.6199V52.8022ZM18.6861 32.2651V34.0558H16.8826V32.2651H18.6861ZM24.365 52.7963H26.1556V50.9834H24.365V52.7963ZM18.6861 36.002V37.8043H16.8767V36.002H18.6861ZM22.4152 32.2559H20.6257V34.0711H22.4152V32.2559ZM26.1792 32.2578V34.0543H24.3616V32.2578H26.1792ZM18.6864 39.7451H16.884V41.5639H18.6864V39.7451ZM18.6865 43.5161V45.3056H16.8748V43.5161H18.6865ZM22.4198 36.0034H20.6116V37.8034H22.4198V36.0034ZM18.6862 47.2451V49.0451H16.8791V47.2451H18.6862ZM22.4197 49.0545V47.2451H20.6209V49.0545H22.4197ZM31.8533 50.9834H33.665V52.7822H31.8533V50.9834ZM16.8733 50.9834V52.7893L18.6709 52.7869V50.9834H16.8733ZM26.1663 43.4682V45.301H24.3265C24.3265 45.1593 24.3251 45.0197 24.3237 44.8818C24.3199 44.4984 24.3162 44.1277 24.3429 43.7588C24.3511 43.6545 24.5597 43.4905 24.6839 43.4823C25.0237 43.4577 25.3653 43.4613 25.7322 43.4652H25.7322H25.7322H25.7323H25.7323H25.7323H25.7324H25.7324H25.7324H25.7325C25.873 43.4667 26.0171 43.4682 26.1663 43.4682ZM26.17 49.0486V47.251H24.3723V49.0486H26.17ZM24.3582 39.75H26.1664V41.5477H24.3582V39.75ZM33.6615 49.0543V47.2637H31.865V49.0543H33.6615ZM26.1615 36.0186V37.7998H24.3591V36.0186H26.1615ZM31.863 45.3105H33.656V43.5176H31.863V45.3105ZM22.4197 39.7686V41.5592H20.6209V39.7686H22.4197ZM31.8557 39.7485V41.5579H33.6522V39.7485H31.8557ZM31.8665 36.0059H33.6524V37.8117H31.8665V36.0059ZM20.614 45.3104H22.4187V43.5127H20.614V45.3104Z" fill="#04122D"/>
</svg>