<svg xmlns="http://www.w3.org/2000/svg" width="60" height="58" viewBox="0 0 60 58" fill="none">
<path fill-rule="evenodd" clip-rule="evenodd" d="M0.820312 47.1192V49.1711C0.855228 49.3238 0.888699 49.4778 0.922265 49.6323C0.988962 49.9393 1.05603 50.248 1.13555 50.5504C1.6069 52.3807 2.61167 54.0296 4.02219 55.2876C5.43272 56.5456 7.18534 57.3559 9.05742 57.6157C9.16581 57.6407 9.27201 57.6744 9.375 57.7165H57.0141C57.5255 57.5615 57.9908 57.2826 58.3686 56.9046C58.7463 56.5266 59.025 56.0612 59.1797 55.5497V54.4106C58.8609 53.575 58.3992 52.8684 57.5484 52.4735C57.4441 52.4243 57.3645 52.2063 57.3645 52.0657C57.3527 49.4493 57.3527 46.8321 57.3645 44.2141C57.3645 44.0747 57.4441 43.8555 57.5484 43.8063C58.398 43.4114 58.8598 42.7036 59.1797 41.8704V40.7301C58.7777 39.6332 58.1133 38.8024 56.8945 38.6079C56.5375 38.5511 56.1693 38.5567 55.8023 38.5623C55.6923 38.564 55.5825 38.5657 55.473 38.5657H51.7594C52.0992 37.0235 51.6246 35.8997 50.2781 35.1602C50.2216 35.122 50.1739 35.0721 50.1383 35.0139C50.1027 34.9557 50.08 34.8905 50.0719 34.8227C50.0554 34.4198 50.0575 34.0137 50.0597 33.5794C50.0605 33.4251 50.0613 33.2673 50.0613 33.1047H52.957C52.8776 32.6208 52.8002 32.1461 52.7237 31.6775C52.5814 30.8051 52.4426 29.954 52.3008 29.104C52.216 28.5962 52.1291 28.0887 52.0423 27.5812C51.8412 26.4057 51.64 25.2303 51.4641 24.0508C51.4328 23.7454 51.5104 23.4387 51.6832 23.1848C52.902 21.5079 52.3641 19.2461 50.4891 18.3801C50.1246 18.2125 50.0461 18.0122 50.0543 17.6536C50.0616 17.217 50.0601 16.7805 50.0587 16.3441C50.0568 15.7928 50.055 15.2418 50.0707 14.6911C50.0801 14.3219 49.9547 14.1614 49.6113 14.0442C49.2013 13.9093 48.8018 13.7506 48.3702 13.5791C48.1603 13.4957 47.9429 13.4093 47.7129 13.3211L55.2223 10.3083C55.0998 10.2546 54.9939 10.2072 54.8985 10.1645C54.7211 10.0852 54.58 10.0221 54.4359 9.96489C46.4789 6.78364 38.523 3.59732 30.5684 0.405909C30.3988 0.327922 30.2148 0.286182 30.0281 0.283357C29.8414 0.280532 29.6563 0.316684 29.4844 0.389503L5.41172 10.0375C5.30746 10.0794 5.20551 10.1263 5.07501 10.1863C4.99722 10.2221 4.90929 10.2626 4.80469 10.3094C5.16562 10.4553 5.51382 10.5964 5.85385 10.7341C6.54057 11.0123 7.19397 11.2769 7.85156 11.5411C10.2227 12.4918 12.5973 13.4403 14.9754 14.3864C15.232 14.4883 15.4195 14.5739 15.4195 14.9254C15.4078 18.4586 15.4078 21.9918 15.4078 25.5239C15.4078 25.5692 15.4014 25.6145 15.3929 25.6748C15.3878 25.7112 15.3819 25.7532 15.3762 25.804C14.9805 25.804 14.5861 25.7998 14.1925 25.7957C13.3317 25.7866 12.4752 25.7776 11.6203 25.8122C8.76914 25.927 6.61523 27.2442 5.28047 29.7684C3.68438 32.7883 4.47422 36.502 7.10977 38.6934L7.47539 38.9958C7.38261 39.0345 7.29819 39.0695 7.21884 39.1023C7.09675 39.1529 6.98666 39.1985 6.87656 39.2454C3.56641 40.661 1.58672 43.1403 0.9375 46.6833C0.917723 46.7715 0.892838 46.859 0.867976 46.9463C0.851588 47.0039 0.835211 47.0615 0.820312 47.1192ZM10.9688 44.0407H55.5047V45.8524H39.1594V47.684H55.5047V52.2086C55.4566 52.2129 55.4086 52.2187 55.3605 52.2244C55.2645 52.2359 55.1684 52.2473 55.0723 52.2473C40.1605 52.2559 25.2492 52.2559 10.3383 52.2473C7.3582 52.2461 5.37539 49.4278 6.40078 46.6973C6.68526 45.9355 7.19043 45.2758 7.85174 44.8026C8.51304 44.3294 9.30044 44.0641 10.1133 44.0407H10.9688ZM30.5366 6.79427C30.4731 6.77392 30.4028 6.75137 30.3223 6.72466C30.2266 6.97693 30.1342 7.22008 30.0416 7.46356C29.9243 7.77203 29.8069 8.08104 29.6824 8.40982L42.6059 13.3411C42.5257 13.3811 42.4569 13.417 42.3951 13.4492C42.278 13.5103 42.1861 13.5582 42.0902 13.5965C41.657 13.7702 41.2237 13.9439 40.7905 14.1176C37.3529 15.4959 33.9147 16.8745 30.4699 18.2336C30.1787 18.343 29.8585 18.348 29.5641 18.2477C23.1531 15.6907 16.7445 13.1282 10.3383 10.5602C10.1747 10.4941 10.0122 10.4199 9.75979 10.3046L9.75234 10.3012C9.83586 10.2622 9.90788 10.2274 9.97283 10.1959C10.0874 10.1404 10.18 10.0956 10.275 10.0575C16.6961 7.47622 23.1227 4.90708 29.5547 2.35005C29.8475 2.24514 30.1677 2.24514 30.4605 2.35005C36.8668 4.9063 43.273 7.46763 49.6793 10.034C49.7859 10.0773 49.8902 10.1253 50.0238 10.1868C50.1001 10.2219 50.1861 10.2615 50.2875 10.3071L49.8031 10.5031C49.0145 10.8221 48.2911 11.1148 47.5652 11.4075C47.3314 11.5005 47.0974 11.613 46.8633 11.7256C46.3043 11.9942 45.7444 12.2634 45.1828 12.27C44.6188 12.2766 44.0518 12.0149 43.486 11.7538C43.2525 11.646 43.0192 11.5383 42.7863 11.4497C38.802 9.93169 34.8176 8.41333 30.8332 6.89458C30.7434 6.86063 30.6512 6.83105 30.5366 6.79427ZM42.5745 15.3899C42.6345 15.3702 42.698 15.3494 42.7664 15.3262V19.0036C42.7664 19.5209 42.7669 20.0382 42.7675 20.5556C42.7693 22.3374 42.7712 24.1191 42.7512 25.9C42.7377 26.1891 42.6169 26.4628 42.4125 26.6676C40.7016 28.2016 38.6473 29.0805 36.4453 29.5973C31.5387 30.7493 26.6566 30.6825 21.8449 29.0817C20.2688 28.5567 18.8051 27.7915 17.5664 26.6583C17.3898 26.5019 17.2765 26.2865 17.2477 26.0524C17.2336 22.5004 17.2336 18.9485 17.2336 15.304C17.3018 15.3301 17.3651 15.3542 17.425 15.3769C17.5504 15.4246 17.6609 15.4666 17.7703 15.5102C18.5396 15.8176 19.309 16.1248 20.0784 16.4319C23.1833 17.6716 26.2878 18.9111 29.3871 20.1649C29.5828 20.2513 29.7946 20.2953 30.0085 20.2939C30.2224 20.2925 30.4336 20.2457 30.6281 20.1567C34.4984 18.6012 38.3715 17.05 42.2473 15.5032C42.3501 15.4635 42.4555 15.4289 42.5745 15.3899ZM55.9359 55.8965H33.0844C25.525 55.9059 17.966 55.9055 10.4074 55.8954C8.65413 55.904 6.95024 55.3149 5.57664 54.2253C4.20304 53.1356 3.24172 51.6105 2.85117 49.9012C1.72148 45.0661 5.36016 40.4184 10.3383 40.402C15.8343 40.3846 21.331 40.3883 26.8277 40.3919C29.118 40.3934 31.4082 40.395 33.6984 40.395H55.977C56.1668 40.3834 56.3573 40.3877 56.5465 40.4079C57.0387 40.4922 57.3375 40.7934 57.3434 41.2973C57.3492 41.8012 57.0551 42.1094 56.5652 42.202C56.358 42.2263 56.1489 42.2318 55.9406 42.2184H10.4719C7.40625 42.2184 5.03906 44.0958 4.42969 46.9786C3.69375 50.4954 6.35742 53.9184 9.9457 54.0637C10.2305 54.0731 10.5152 54.0731 10.8 54.0731H55.9301C56.1383 54.0601 56.3473 54.0648 56.5547 54.0872C57.0469 54.1727 57.3434 54.4774 57.3457 54.9813C57.348 55.4852 57.0504 55.7911 56.5605 55.8801C56.3533 55.9044 56.1442 55.9099 55.9359 55.8965ZM44.9613 31.2731H45.6234H45.6258C45.6131 31.3584 45.6006 31.4427 45.5882 31.5263C45.5099 32.0541 45.4355 32.5553 45.3516 33.1036H48.2086V34.92H11.9895C10.5246 34.92 9.59883 33.7598 10.0441 32.4965C10.2937 31.7899 10.9184 31.2813 11.6754 31.2813C12.3179 31.2788 12.9604 31.2756 13.6029 31.2724C16.5893 31.2574 19.5749 31.2424 22.5598 31.3012C23.1954 31.314 23.8268 31.4651 24.4598 31.6166C24.8678 31.7142 25.2765 31.812 25.6875 31.8731C29.3214 32.4186 33.0255 32.2767 36.607 31.4547C37.0858 31.3451 37.5749 31.2866 38.066 31.2801C39.7372 31.2673 41.4085 31.2694 43.0801 31.2715C43.7071 31.2723 44.3342 31.2731 44.9613 31.2731ZM17.5646 29.0002C17.7415 29.1462 17.9224 29.2955 18.109 29.4485L14.0859 29.4473C13.8377 29.4473 13.5898 29.4467 13.3421 29.446C12.8475 29.4447 12.3537 29.4434 11.8594 29.4473C9.74414 29.4649 8.12461 31.0375 8.11758 33.0801C8.10937 35.1473 9.73359 36.7364 11.884 36.7411C12.9605 36.745 14.0365 36.7437 15.1127 36.7424C15.6508 36.7417 16.189 36.7411 16.7273 36.7411H48.8051C49.6277 36.7434 50.0555 37.0528 50.0566 37.6504C50.0578 38.2481 49.6289 38.5645 48.8086 38.5645C36.5195 38.5692 24.2316 38.5692 11.9449 38.5645C8.68359 38.5633 6.22031 36.0895 6.29648 32.9254C6.36328 30.0954 8.70352 27.7153 11.5406 27.6344C12.6897 27.6065 13.8379 27.6176 14.9859 27.6288C15.1855 27.6307 15.3852 27.6327 15.5848 27.6344C15.7677 27.6388 15.9448 27.6994 16.0922 27.8079C16.5791 28.187 17.0557 28.5803 17.5646 29.0002ZM44.6297 25.7676V14.4368C44.7403 14.4445 44.8527 14.4458 44.9651 14.447C45.2099 14.4497 45.4544 14.4524 45.6785 14.5223C46.0575 14.6413 46.4269 14.7866 46.7957 14.9317C47.1316 15.0638 47.4671 15.1958 47.809 15.3075C48.1617 15.4247 48.2895 15.6075 48.2473 15.9661C48.2197 16.2118 48.2197 16.4598 48.2473 16.7055C48.3457 17.5868 48.2051 18.2055 47.2816 18.7399C45.7887 19.6036 45.5309 21.6907 46.5855 23.0875C46.7139 23.2459 46.8022 23.4328 46.843 23.6325C46.8837 23.8322 46.8759 24.0388 46.8199 24.2348C46.7462 24.5802 46.6892 24.9283 46.6308 25.2851C46.6048 25.4441 46.5786 25.6047 46.5504 25.7676H44.6297ZM49.6699 24.4458C50.0438 26.6958 50.4188 28.9504 50.8008 31.2426H47.4996C47.7857 29.5142 48.0692 27.804 48.3535 26.0885C48.4441 25.5417 48.5349 24.9944 48.6258 24.4458H49.6699ZM50.2744 20.4775C50.425 20.7006 50.5062 20.9633 50.5078 21.2325C50.5057 21.5954 50.3607 21.9428 50.1043 22.1996C49.848 22.4564 49.5008 22.602 49.1379 22.6047C48.8687 22.6036 48.6059 22.5228 48.3825 22.3726C48.1592 22.2223 47.9852 22.0094 47.8826 21.7605C47.7801 21.5116 47.7534 21.238 47.806 20.974C47.8587 20.71 47.9882 20.4675 48.1784 20.277C48.3686 20.0865 48.6109 19.9565 48.8748 19.9034C49.1387 19.8503 49.4124 19.8765 49.6614 19.9787C49.9105 20.0808 50.1237 20.2544 50.2744 20.4775ZM45.948 29.418H41.9367C42.164 29.2303 42.3883 29.0439 42.6108 28.859C43.0732 28.4747 43.5283 28.0965 43.9887 27.7247C44.1159 27.6505 44.2624 27.6158 44.4094 27.625C44.7928 27.6204 45.1768 27.6219 45.5806 27.6234C45.7902 27.6242 46.0051 27.625 46.2281 27.625C46.183 27.9134 46.1396 28.1917 46.0967 28.4669C46.0471 28.7844 45.9983 29.0979 45.948 29.418ZM9.96094 48.6284V50.3862H35.4258V48.6284H9.96094Z" fill="#04122D"/>
</svg>