<svg xmlns="http://www.w3.org/2000/svg" width="56" height="57" viewBox="0 0 56 57" fill="none">
<path fill-rule="evenodd" clip-rule="evenodd" d="M52.4038 56.4449H3.59522C3.06553 56.2035 2.89209 55.7805 2.89209 55.2133C2.90461 53.9726 2.90227 52.7324 2.89989 51.4671V51.467V51.4668V51.4666V51.4665V51.4663V51.4661V51.466V51.4658V51.4657V51.4655V51.4653V51.4652V51.465V51.4648V51.4647V51.4645V51.4644V51.4642V51.464V51.4639V51.4637V51.4635V51.4634V51.4632V51.463V51.4628V51.4627C2.89892 50.9523 2.89795 50.4378 2.89795 49.9176H1.45537C0.37959 49.9176 0.108887 49.6434 0.108887 48.5605V15.9262C0.108887 14.7859 0.371387 14.5281 1.53154 14.5281H14.9917V13.8437C14.9917 9.85937 14.9897 5.875 14.9858 1.89062C14.9858 1.30469 15.0878 0.803125 15.689 0.554688H40.3101C40.9124 0.804297 41.019 1.29883 41.0132 1.88828C41.003 5.87266 41.003 9.85703 41.0132 13.8414V14.5293H41.6659C42.6577 14.5293 43.6496 14.5297 44.6414 14.53H44.6415H44.6416H44.6417H44.6418H44.642H44.6421H44.6422H44.6423H44.6424H44.6425H44.6426H44.6427H44.6428H44.6429H44.643H44.6431H44.6432H44.6433H44.6434H44.6435H44.6436H44.6437H44.6438H44.6439H44.644H44.6441H44.6442H44.6448C47.9542 14.5313 51.2639 14.5325 54.573 14.5199C55.153 14.5199 55.5983 14.6687 55.8913 15.1844V49.2426C55.6335 49.7547 55.2222 49.9586 54.6515 49.9246C54.2937 49.9036 53.9348 49.9088 53.5706 49.914C53.4063 49.9164 53.241 49.9187 53.0741 49.9187C53.0712 49.9806 53.068 50.0338 53.0651 50.0814L53.0651 50.082V50.082V50.0821C53.0599 50.1686 53.0558 50.2368 53.0565 50.3055C53.0592 50.677 53.0615 51.048 53.0638 51.4188L53.0638 51.424L53.0638 51.4295L53.0639 51.4349C53.0717 52.6962 53.0794 53.9543 53.1011 55.2145C53.1093 55.7781 52.9394 56.2059 52.4038 56.4449ZM39.1007 36.9801V2.44492H16.8948V36.9871C18.5284 36.6941 19.8948 37.1043 20.8171 38.4602C21.9151 40.0715 21.6866 41.6758 20.5417 43.116L22.3522 44.7426C22.47 44.6017 22.5844 44.4572 22.6988 44.3126C22.9557 43.988 23.213 43.6631 23.5089 43.3785C23.8065 43.0923 24.149 42.839 24.4913 42.5858L24.4914 42.5857C24.641 42.4751 24.7905 42.3645 24.9362 42.2512C22.9815 39.9391 22.8562 37.3832 24.5952 35.5715C26.3343 33.7598 28.937 33.5512 30.8542 35.0629C31.7796 35.7613 32.3952 36.7937 32.5698 37.9398C32.8335 39.6449 32.2792 41.0828 31.1343 42.1586L33.7194 44.6723L35.4644 43.1078C34.3534 41.691 34.1296 40.1418 35.128 38.582C36.0315 37.1723 37.4108 36.7035 39.1007 36.9801ZM53.9929 48.052V16.4184H41.0495C41.0449 16.4682 41.0396 16.515 41.0345 16.5597C41.0239 16.6519 41.0144 16.7355 41.0144 16.8191C41.0144 23.8199 41.0171 30.8207 41.0226 37.8215C41.0337 38.0512 41.1097 38.273 41.2417 38.4613C41.9729 39.5289 42.1476 40.6727 41.7011 41.8809C41.5842 42.1947 41.4064 42.4863 41.2387 42.7612C41.1659 42.8805 41.0951 42.9967 41.0319 43.1102C41.1973 43.2695 41.3701 43.4238 41.5431 43.5784L41.5431 43.5784L41.5432 43.5785L41.5432 43.5785L41.5432 43.5785L41.5433 43.5786L41.5433 43.5786L41.5433 43.5786L41.5434 43.5787L41.5434 43.5787C41.9354 43.929 42.3288 44.2804 42.6409 44.6934C42.9544 45.1081 43.1939 45.5944 43.4348 46.0835C43.5397 46.2965 43.6449 46.51 43.7565 46.7184L44.7714 45.9684C43.4343 43.6363 43.5632 41.8832 45.1558 40.5355C46.5233 39.3789 48.4862 39.3812 49.9054 40.5484C50.564 41.0777 51.01 41.8266 51.1616 42.6578C51.389 43.8848 51.062 44.9863 50.3355 45.8219C50.4975 45.9985 50.6566 46.1725 50.8136 46.3442L50.8253 46.357L50.8273 46.3592L50.8279 46.3598L50.828 46.3599C51.3106 46.8878 51.7739 47.3946 52.2444 47.8914C52.3302 47.9768 52.4437 48.0288 52.5644 48.0379C52.931 48.0554 53.299 48.0541 53.6793 48.0527L53.8265 48.0522L53.9929 48.052ZM2.00029 16.4031V48.0437H3.49678C3.54951 48.0437 3.62686 48.0438 3.65264 48.0121C3.73158 47.9139 3.80534 47.8106 3.87903 47.7074C4.00663 47.5287 4.13403 47.3504 4.28779 47.1988C4.61379 46.8787 4.95807 46.5762 5.30223 46.2738C5.44304 46.1501 5.58383 46.0264 5.72334 45.9016C4.23506 44.1145 4.63818 41.9617 5.85459 40.7605C6.48599 40.1214 7.32959 39.7356 8.22606 39.676C9.12252 39.6164 10.0098 39.8871 10.7202 40.4371C11.4262 40.9642 11.9155 41.731 12.096 42.5934C12.3749 43.8508 12.0046 44.9523 11.1937 45.9473L12.3421 46.7781C12.5308 46.0262 12.8678 45.3195 13.3332 44.6995C13.7987 44.0795 14.3832 43.5587 15.0526 43.1676C15.0305 43.1331 15.0119 43.103 14.9952 43.0759C14.9659 43.0283 14.9424 42.9901 14.9155 42.9543C13.8105 41.4895 13.7776 39.9555 14.7983 38.4109C14.9244 38.1962 14.9888 37.9509 14.9847 37.702C14.994 30.791 14.996 23.8809 14.9905 16.9715C14.9905 16.8405 14.9798 16.7089 14.9689 16.5756C14.9641 16.5169 14.9593 16.4579 14.9554 16.3984L2.00029 16.4031ZM23.3437 54.5512H32.6179C32.6345 54.4719 32.6459 54.3917 32.6519 54.3109C32.6519 53.6262 32.6538 52.9414 32.6558 52.2566C32.6597 50.8871 32.6636 49.5176 32.6519 48.148C32.6577 46.9737 32.2305 45.8385 31.4519 44.9594C30.2636 43.6 28.3382 43.0844 26.4843 43.6785C24.8437 44.2 23.5253 45.8066 23.4269 47.5457C23.3642 48.6338 23.36 49.7251 23.3558 50.8163C23.3543 51.2152 23.3527 51.6141 23.3483 52.0129C23.3391 52.6111 23.3407 53.2081 23.3424 53.8181V53.8183V53.8184V53.8186V53.8188V53.8189V53.8191V53.8192V53.8194V53.8196V53.8197V53.8199V53.82V53.8202V53.8204V53.8205V53.8207V53.8208V53.821V53.8212V53.8213V53.8215V53.8216V53.8218V53.822V53.8221V53.8223V53.8224V53.8227V53.823V53.8233V53.8237V53.824V53.8243V53.8246V53.8248V53.8252V53.8255V53.8258C23.343 54.0653 23.3437 54.3068 23.3437 54.5512ZM41.9464 52.8197V52.8169V52.8159V52.815V52.814V52.8131V52.8122V52.8113V52.8104V52.8095V52.8086V52.8077V52.8069V52.806V52.8051V52.8043V52.8034V52.8026V52.8018V52.8009V52.8001V52.7993V52.7985V52.7977V52.7969V52.7961V52.7953V52.7945V52.7938C41.948 51.6621 41.9495 50.5481 41.9448 49.4336C41.9448 49.329 41.9454 49.2242 41.946 49.1193V49.1189V49.1186C41.9491 48.5501 41.9522 47.9783 41.8651 47.4215C41.7101 46.4699 41.1858 45.618 40.4061 45.0508C39.6265 44.4836 38.6546 44.2469 37.7015 44.3922C35.8206 44.6746 34.5491 46.15 34.5257 48.1516C34.5053 49.7491 34.5128 51.3466 34.5203 52.9442V52.9442C34.5222 53.3646 34.5242 53.7851 34.5257 54.2055C34.5348 54.3331 34.5528 54.46 34.5796 54.5852H41.6284C41.6799 54.5852 41.7328 54.5805 41.802 54.5745L41.8024 54.5744L41.8025 54.5744C41.8433 54.5709 41.8897 54.5668 41.9448 54.5629C41.9448 53.9875 41.9456 53.4189 41.9464 52.8547V52.8518V52.8488V52.8459V52.843V52.84V52.8371V52.8342V52.8313V52.8284V52.8255V52.8226V52.8197ZM21.4839 54.5629V53.7426C21.4815 53.1512 21.483 52.5597 21.4845 51.968C21.4882 50.542 21.4919 49.1156 21.4405 47.691C21.396 46.4711 20.7374 45.5195 19.6944 44.8961C17.1702 43.3937 14.1187 45.1246 14.0624 48.1012C14.0332 49.6542 14.0435 51.2086 14.0538 52.7628V52.7629V52.7631V52.7632V52.7634V52.7635V52.7637V52.7638V52.764V52.7641V52.7643V52.7644V52.7646V52.7647V52.7649V52.765V52.7652V52.7653V52.7655V52.7656V52.7658V52.7659V52.7661V52.7662V52.7664V52.7665V52.7667V52.7668C14.0571 53.2659 14.0604 53.765 14.0624 54.2641C14.0705 54.3652 14.087 54.4656 14.1116 54.5641L21.4839 54.5629ZM51.2097 54.5629C51.2097 54.1443 51.2141 53.7281 51.2185 53.3137C51.2282 52.3951 51.2379 51.4854 51.1991 50.5785C51.1206 48.7715 49.6241 47.2902 47.8476 47.1707C45.9222 47.0406 44.1515 48.2559 43.93 50.1004C43.8093 51.1099 43.8387 52.1373 43.8683 53.1734V53.1734V53.1735V53.1735V53.1735V53.1736V53.1736V53.1736V53.1737V53.1737V53.1737V53.1738V53.1738V53.1738V53.1739V53.1739V53.1739V53.174V53.174V53.174V53.1741V53.1741V53.1741V53.1742V53.1742V53.1742V53.1743V53.1743C43.8815 53.6365 43.8948 54.1004 43.8948 54.5652L51.2097 54.5629ZM12.1581 54.591C12.1581 54.1467 12.1671 53.7082 12.176 53.2743C12.1957 52.3164 12.2149 51.3806 12.1358 50.4531C12.0645 49.5847 11.6793 48.772 11.0524 48.1668C10.4254 47.5617 9.59961 47.2055 8.7292 47.1648C6.87529 47.0582 5.19834 48.1645 4.91709 50.0125C4.76155 51.0356 4.79921 52.0879 4.83729 53.1518L4.83729 53.1519C4.8543 53.627 4.87139 54.1045 4.87139 54.5828C4.90638 54.5828 4.94756 54.5855 4.99208 54.5885L4.99222 54.5885C5.04457 54.5919 5.10153 54.5957 5.1585 54.5957L12.1581 54.591ZM28.0183 41.5258C28.7536 41.5214 29.4572 41.2261 29.9753 40.7043C30.4933 40.1825 30.7837 39.4767 30.7827 38.7414C30.7876 38.3714 30.7186 38.0041 30.5799 37.661C30.4411 37.3179 30.2353 37.006 29.9745 36.7434C29.7138 36.4808 29.4033 36.2729 29.0611 36.1318C28.719 35.9907 28.3522 35.9192 27.9822 35.9215C27.6121 35.9238 27.2462 36 26.9059 36.1454C26.5657 36.2908 26.2578 36.5027 26.0003 36.7685C25.7429 37.0344 25.5411 37.3489 25.4067 37.6937C25.2722 38.0385 25.2079 38.4066 25.2175 38.7766C25.2252 39.5123 25.5244 40.2148 26.0495 40.7302C26.5745 41.2456 27.2826 41.5317 28.0183 41.5258ZM36.3808 40.634C36.3854 41.1205 36.5812 41.5857 36.9258 41.929C37.2705 42.2724 37.7364 42.4664 38.2229 42.4691C38.4705 42.4758 38.717 42.4329 38.9477 42.3428C39.1784 42.2528 39.3888 42.1175 39.5665 41.9449C39.7441 41.7723 39.8854 41.5659 39.9821 41.3379C40.0787 41.1098 40.1287 40.8648 40.1292 40.6171C40.1297 40.3694 40.0806 40.1241 39.9848 39.8957C39.889 39.6673 39.7485 39.4604 39.5715 39.2871C39.3945 39.1139 39.1846 38.9778 38.9543 38.8869C38.7239 38.796 38.4776 38.7521 38.23 38.7578C37.9844 38.7564 37.7411 38.8041 37.5143 38.8982C37.2875 38.9923 37.0819 39.1309 36.9095 39.3058C36.7372 39.4806 36.6016 39.6883 36.5108 39.9164C36.42 40.1445 36.3758 40.3885 36.3808 40.634ZM17.8042 38.7578C17.4377 38.7505 17.0773 38.8519 16.7684 39.0492C16.4595 39.2465 16.2159 39.5308 16.0683 39.8663C15.9207 40.2018 15.8757 40.5735 15.9391 40.9345C16.0024 41.2955 16.1712 41.6297 16.4242 41.8949C16.6772 42.1602 17.0031 42.3445 17.3607 42.4249C17.7183 42.5052 18.0918 42.4778 18.4339 42.3462C18.7759 42.2146 19.0714 41.9846 19.283 41.6854C19.4947 41.3861 19.6129 41.0309 19.623 40.6645C19.632 40.419 19.5919 40.1742 19.5048 39.9446C19.4177 39.7149 19.2855 39.505 19.116 39.3273C18.9464 39.1496 18.743 39.0076 18.5177 38.9098C18.2924 38.812 18.0498 38.7603 17.8042 38.7578ZM6.63623 43.4008C6.63512 43.6466 6.68298 43.8902 6.777 44.1173C6.87103 44.3445 7.00934 44.5506 7.18387 44.7237C7.35841 44.8968 7.56567 45.0335 7.79356 45.1256C8.02146 45.2178 8.26542 45.2637 8.51123 45.2605C8.75469 45.2574 8.99514 45.2063 9.21886 45.1102C9.44258 45.0142 9.64518 44.8749 9.8151 44.7006C9.98502 44.5262 10.1189 44.32 10.2092 44.0939C10.2994 43.8678 10.3443 43.6261 10.3411 43.3826C10.338 43.1392 10.2869 42.8987 10.1908 42.675C10.0947 42.4513 9.95551 42.2487 9.78113 42.0787C9.60675 41.9088 9.40061 41.7749 9.17447 41.6847C8.94834 41.5944 8.70664 41.5496 8.46318 41.5527C8.22139 41.5533 7.98208 41.6017 7.759 41.695C7.53592 41.7882 7.33344 41.9246 7.16317 42.0963C6.9929 42.268 6.85819 42.4716 6.76676 42.6954C6.67533 42.9193 6.62898 43.159 6.63037 43.4008H6.63623ZM49.3745 43.3879C49.3739 42.9012 49.1802 42.4346 48.8359 42.0905C48.4916 41.7465 48.0249 41.553 47.5382 41.5527C47.1696 41.5481 46.8079 41.6535 46.4995 41.8554C46.1911 42.0573 45.9498 42.3466 45.8066 42.6863C45.6634 43.026 45.6247 43.4007 45.6955 43.7625C45.7663 44.1243 45.9433 44.4567 46.204 44.7174C46.4647 44.9781 46.7971 45.1551 47.1589 45.2259C47.5207 45.2967 47.8954 45.258 48.2351 45.1148C48.5748 44.9716 48.8641 44.7303 49.066 44.4219C49.2679 44.1135 49.3733 43.7518 49.3687 43.3832L49.3745 43.3879ZM27.9864 13.5942H22.761C21.8013 13.5942 21.486 13.2767 21.4849 12.3216V5.55986C21.4849 4.6083 21.8153 4.27783 22.761 4.27783H33.2657C34.1774 4.27783 34.5114 4.61299 34.5138 5.53174C34.5185 7.80439 34.5185 10.0767 34.5138 12.3485C34.5138 13.2696 34.1903 13.5907 33.2657 13.5942C32.0935 13.5966 30.9218 13.5958 29.75 13.595H29.7498H29.7497H29.7496H29.7494H29.7493H29.7492H29.749H29.7489H29.7488H29.7486H29.7485H29.7484H29.7482H29.7481H29.748H29.7479H29.7477H29.7476H29.7475H29.7473H29.7472H29.7471H29.7469H29.7468H29.7467H29.7465H29.7464L29.7423 13.595C29.1571 13.5946 28.5718 13.5942 27.9864 13.5942ZM23.3798 6.16572V11.6935H32.6189V6.16572H23.3798ZM28.9066 28.4628V26.6675H27.0996V28.4628H28.9066ZM28.8995 30.3955V32.1955H27.1089V30.3955H28.8995ZM27.0981 15.4927V17.2938L28.8864 17.2903V15.4927H27.0981ZM28.889 24.7657H27.1089V22.9517H28.889V24.7657ZM28.9009 19.2241H27.1196V21.0147H28.9009V19.2241ZM21.4478 21.0274H19.6606V19.2427H21.4478V21.0274ZM34.5537 24.7585H36.3467V22.9526H34.5537V24.7585ZM21.4485 28.4711H19.6685V26.6816H21.4485V28.4711ZM25.1708 26.6665H23.3872V28.4724H25.1708V26.6665ZM32.6227 26.6772V28.4749H30.8379V26.6772H32.6227ZM36.3526 28.4665V26.6841H34.5444V28.4665H36.3526ZM21.4453 32.1895H19.6523V30.4023H21.4453V32.1895ZM25.1705 30.3862H23.3857V32.1921H25.1705V30.3862ZM32.6294 30.4038V32.1851H30.8247V30.4038H32.6294ZM34.562 32.1884H36.3397L36.3409 30.3989H34.562V32.1884ZM25.1611 24.7644H23.3857V22.9526H25.1611V24.7644ZM21.4571 24.7397V22.9526H19.6606V24.7397H21.4571ZM30.8237 22.9517H32.6261V24.7423H30.8237V22.9517ZM36.3468 21.0181V19.231H34.562V21.0181H36.3468ZM23.346 17.2893C23.346 17.1453 23.3445 17.0035 23.3431 16.8636V16.8635V16.8635V16.8635V16.8634V16.8634V16.8633V16.8633C23.3392 16.4829 23.3355 16.1155 23.3612 15.7506C23.3694 15.6475 23.578 15.4858 23.7022 15.4764C24.04 15.4528 24.3778 15.4565 24.7331 15.4604H24.7332H24.7333H24.7334H24.7335H24.7336H24.7337H24.7338H24.734C24.8714 15.462 25.0116 15.4635 25.1553 15.4635V17.2893H23.346ZM32.6189 15.4927H30.8306V17.2833H32.6189V15.4927ZM32.6145 21.0241H30.8379V19.2241H32.6145V21.0241ZM23.3823 21.0263H25.1659V19.2427H23.3823V21.0263ZM51.2119 22.0034V36.8546H49.4072V22.0034H51.2119ZM43.8433 36.8771H45.6233V22.0142H43.8433V36.8771ZM6.5917 36.8606H4.80811V22.0142H6.5917V36.8606ZM10.3853 36.8761H12.1665V22.0132H10.3853V36.8761Z" fill="#04122D"/>
</svg>