<svg xmlns="http://www.w3.org/2000/svg" width="60" height="60" viewBox="0 0 60 60" fill="none">
  <path fill-rule="evenodd" clip-rule="evenodd" d="M18.215 59.0162H43.7103C44.7416 58.7525 45.7107 58.3729 46.4619 57.5736C47.4052 56.5729 47.7837 55.367 47.7837 54.0123V42.8654V42.1822H49.4712C49.511 41.9831 49.551 41.7886 49.5903 41.5973L49.5907 41.5952L49.5915 41.5913L49.5919 41.5898L49.592 41.589L49.592 41.5889L49.592 41.5888L49.5923 41.5878L49.5923 41.5876C49.6855 41.1341 49.7751 40.6984 49.8498 40.2604C49.906 39.9287 50.1017 39.7975 50.3806 39.6264C51.2677 39.085 52.013 39.2396 52.7419 39.9053C52.9765 40.092 53.2253 40.2601 53.4861 40.408L57.2361 36.6393C57.1633 36.5289 57.0886 36.414 57.012 36.296L57.0113 36.2949L57.01 36.2929L57.0094 36.292L57.0071 36.2885L57.0057 36.2862L57.0054 36.2858L57.0053 36.2856L57.0052 36.2854C56.7632 35.9127 56.5016 35.5098 56.2154 35.1229C56.0231 34.8632 56.0704 34.6543 56.1317 34.3832L56.1318 34.3827L56.1321 34.3816C56.1379 34.3558 56.1439 34.3295 56.1498 34.3025C56.3818 33.2385 57.0873 32.8846 58.0705 32.8225C58.29 32.8087 58.5045 32.7478 58.7183 32.687C58.8149 32.6596 58.9113 32.6322 59.008 32.6092V27.3967C58.8236 27.3559 58.6387 27.3168 58.4539 27.2777L58.4538 27.2777C57.975 27.1765 57.4964 27.0754 57.0263 26.9443C56.8179 26.8625 56.6412 26.7158 56.5224 26.526C55.8943 25.6248 56.0642 24.8033 56.7919 24.0311C56.9331 23.8809 57.0402 23.6989 57.1436 23.5231C57.1888 23.4465 57.2332 23.371 57.2794 23.2998L53.5236 19.5732C53.3832 19.6667 53.2407 19.7635 53.0963 19.8616L53.0957 19.862C52.7025 20.1289 52.2941 20.4062 51.8701 20.6572C51.6799 20.7439 51.4659 20.7637 51.263 20.7135C50.2517 20.5025 49.6716 19.9248 49.6775 18.8303C49.6783 18.6203 49.6191 18.4098 49.5549 18.1817C49.5242 18.0724 49.4923 17.9592 49.4654 17.84H47.7837V17.1123V5.9502C47.7826 4.32949 47.2259 2.96543 45.9099 1.95996C45.0795 1.32102 44.0571 0.982291 43.0095 0.999023C34.9689 0.979492 26.9251 0.979492 18.8783 0.999023C16.0751 1.00605 14.1333 3.01465 14.1017 5.87285C14.0908 7.13149 14.0944 8.39065 14.0981 9.64963C14.0999 10.2791 14.1017 10.9084 14.1017 11.5377V12.2174H13.4431H4.20874C2.11577 12.2186 0.991943 13.3412 0.991943 15.433V31.524C0.991943 33.5537 2.10874 34.6682 4.14546 34.6717H13.3787H14.1017V35.4111C14.1017 37.0944 14.1025 38.7778 14.1033 40.4612V40.4614V40.4616V40.4618V40.462V40.4622V40.4624V40.4626V40.4628V40.463V40.4632V40.4639C14.1054 44.9547 14.1075 49.446 14.0947 53.9373C14.09 55.6318 14.5986 57.0885 16.013 58.0635C16.4573 58.3685 16.9812 58.5575 17.5053 58.7465C17.7443 58.8327 17.9834 58.919 18.215 59.0162ZM20.3677 12.215H19.7267L19.7208 10.3951H42.1037V20.8506L40.1712 19.585L36.4505 23.3689C36.5345 23.4959 36.6234 23.6275 36.7151 23.7632C36.9653 24.1332 37.2356 24.533 37.4783 24.9498C37.5736 25.1518 37.5996 25.3796 37.5521 25.5979C37.3423 26.6936 36.6275 27.1178 35.5482 27.2045C34.6669 27.2755 34.6669 27.3546 34.6669 28.2174V28.2346C34.6669 28.5904 34.6675 28.9463 34.6681 29.3023V29.3024C34.6697 30.2687 34.6714 31.2354 34.6611 32.2014C34.6587 32.5178 34.729 32.7053 35.0806 32.7264C35.1591 32.7313 35.2369 32.7527 35.3144 32.7741C35.4024 32.7983 35.4902 32.8225 35.5787 32.8225C36.6544 32.8213 37.3365 33.3146 37.5427 34.3869C37.5837 34.5955 37.5896 34.865 37.4912 35.0361C37.2483 35.4532 36.9766 35.8526 36.7206 36.2289C36.6269 36.3665 36.5354 36.5011 36.4482 36.6322C36.8577 37.0425 37.2635 37.4493 37.6693 37.8562L37.6701 37.8569L37.6708 37.8577L37.6716 37.8584L37.6723 37.8592L37.6908 37.8777L37.6937 37.8806C38.5204 38.7093 39.3475 39.5386 40.2064 40.3975L42.1072 39.1412V49.6107H19.7244V34.6107C19.8742 34.6429 20.0256 34.6653 20.1749 34.6874C20.4881 34.7337 20.7922 34.7786 21.0533 34.9096C22.5706 35.6748 24.072 36.4665 25.6056 37.2751L25.606 37.2753L25.6076 37.2761L25.6139 37.2795C26.1209 37.5467 26.6313 37.8159 27.147 38.0865V34.7104H32.772V32.8494H27.2255V30.9381H32.7849V29.0971H27.2314V27.208H32.7802V25.3471H27.2173V23.4721H32.7755V21.61H27.2232V19.7092H37.4478V17.8658H27.2302V15.9721H40.2638V14.0971H39.5982C35.5943 14.0908 31.5904 14.0932 27.5865 14.1041C27.2115 14.1041 26.9923 14.0221 26.7955 13.6541C26.281 12.6932 25.4173 12.2291 24.3345 12.215C23.4532 12.2072 22.5714 12.2098 21.6898 12.2124H21.6896H21.6895H21.6894H21.6892H21.6891H21.689H21.6889H21.6887H21.6886H21.6885C21.2481 12.2137 20.8079 12.215 20.3677 12.215ZM25.3318 15.5537V35.0068C24.988 34.8261 24.6511 34.6553 24.3209 34.4879C23.6403 34.1428 22.988 33.8121 22.3623 33.4389C21.5501 32.9584 20.7216 32.799 19.7841 32.8049C15.9457 32.8285 12.1034 32.8254 8.2601 32.8222C6.94762 32.8212 5.63501 32.8201 4.32241 32.8201C3.12358 32.8201 2.86812 32.5635 2.86812 31.3529V15.5479C2.86929 14.3174 3.08608 14.1029 4.32593 14.1029H23.8658C25.0787 14.1029 25.3318 14.3525 25.3318 15.5537ZM46.3107 40.3021L46.3099 40.3022C46.1284 40.3041 45.9433 40.3061 45.7529 40.3061C45.7171 40.137 45.6799 39.9734 45.6436 39.8133C45.561 39.4496 45.4826 39.104 45.433 38.7533C45.3873 38.4275 45.2501 38.2928 44.9396 38.1756C44.4491 37.996 43.9667 37.7938 43.4841 37.5916L43.484 37.5916L43.484 37.5915L43.484 37.5915L43.4839 37.5915L43.4839 37.5915L43.4839 37.5915L43.4838 37.5915L43.4838 37.5915L43.4838 37.5915L43.4837 37.5915L43.4836 37.5914C43.1004 37.4308 42.7172 37.2702 42.3298 37.1209C42.1386 37.0531 41.9285 37.0624 41.7439 37.1467C41.4028 37.3392 41.0782 37.5609 40.755 37.7815C40.6296 37.8671 40.5045 37.9526 40.3787 38.0361L38.8189 36.4646C38.882 36.3677 38.9454 36.269 39.0095 36.1693C39.2207 35.8408 39.4391 35.501 39.6755 35.1756C39.8525 34.9354 39.8595 34.7514 39.7259 34.4666C39.3322 33.635 38.9809 32.7839 38.6736 31.9166C38.5599 31.5955 38.4216 31.4631 38.1099 31.4115C37.7632 31.3536 37.4182 31.2798 37.0653 31.2043L37.0652 31.2043C36.9113 31.1713 36.7559 31.1381 36.5982 31.1057V28.9014C36.7483 28.8693 36.8991 28.8388 37.0501 28.8083L37.0501 28.8083C37.4461 28.7282 37.8432 28.6478 38.2318 28.5393C38.4062 28.4714 38.5468 28.3375 38.6232 28.1666C39.0087 27.29 39.3814 26.4064 39.7212 25.5123C39.7931 25.3019 39.7809 25.0718 39.6873 24.8701C39.5093 24.5417 39.2961 24.2317 39.0915 23.9343C39.0093 23.8147 38.9284 23.697 38.8517 23.5811L40.4513 22.0107C40.5663 22.0849 40.6889 22.1684 40.8177 22.2561L40.8178 22.2561C41.0958 22.4453 41.4025 22.6541 41.7228 22.8311C41.9218 22.925 42.1495 22.938 42.358 22.8674C42.7968 22.701 43.2301 22.5205 43.6634 22.34L43.6636 22.34C44.0968 22.1595 44.5301 21.9791 44.9689 21.8127C45.2466 21.7072 45.3943 21.5936 45.4376 21.2795C45.4898 20.9072 45.5726 20.5384 45.6585 20.1561C45.6924 20.0053 45.7268 19.8524 45.7599 19.6963C45.9319 19.6963 46.102 19.6951 46.2707 19.6938H46.2707C46.7375 19.6904 47.193 19.6871 47.6466 19.7104C47.7265 19.7285 47.8008 19.7655 47.8634 19.8183C47.926 19.8711 47.9751 19.9382 48.0064 20.0139C48.0596 20.2034 48.0874 20.4117 48.1149 20.6183C48.1662 21.0033 48.2167 21.3822 48.4294 21.6217C48.6398 21.8584 49.0078 21.9453 49.3822 22.0336C49.5896 22.0826 49.799 22.132 49.9845 22.2076C50.2214 22.3041 50.449 22.424 50.6767 22.544L50.6768 22.544C50.8997 22.6614 51.1226 22.7788 51.3544 22.8744C51.5441 22.9469 51.7547 22.9414 51.9404 22.8592C52.2692 22.6744 52.5806 22.4625 52.8972 22.247C53.0363 22.1522 53.1765 22.0568 53.3197 21.9627L54.8291 23.5893C54.7634 23.69 54.6952 23.7964 54.6247 23.9065C54.4358 24.2015 54.2297 24.5232 54.0087 24.8338C53.8388 25.0682 53.8189 25.2475 53.956 25.5369C54.1734 26.0011 54.3672 26.4769 54.5612 26.9529L54.5612 26.953C54.7217 27.347 54.8823 27.7412 55.0564 28.1291C55.1543 28.3279 55.3252 28.4811 55.5334 28.5568C55.8735 28.6588 56.2233 28.7272 56.5822 28.7973L56.5822 28.7973C56.7513 28.8304 56.9224 28.8638 57.0955 28.9014V31.1033C56.9411 31.1358 56.7877 31.1696 56.6346 31.2034L56.6344 31.2034L56.6337 31.2036L56.633 31.2037L56.6318 31.204L56.6314 31.2041L56.631 31.2041L56.6306 31.2042L56.6302 31.2043C56.271 31.2835 55.9138 31.3623 55.5533 31.4221C55.2603 31.4713 55.1314 31.6049 55.0259 31.8967C54.7107 32.7604 54.3568 33.6135 53.9712 34.4479C53.8447 34.7197 53.799 34.8955 53.99 35.151C54.2104 35.4443 54.4096 35.7542 54.6004 36.0511L54.6005 36.0513L54.6007 36.0516C54.6827 36.1792 54.7632 36.3044 54.8431 36.4248L53.2658 37.9975C53.1572 37.9263 53.0433 37.8486 52.9248 37.7678L52.9246 37.7677L52.9227 37.7664L52.9222 37.7661L52.922 37.7659L52.922 37.7659L52.9218 37.7658L52.9216 37.7656L52.9215 37.7656C52.629 37.5661 52.3094 37.348 51.9767 37.1643C51.775 37.073 51.5458 37.0629 51.3369 37.1361C50.9384 37.2888 50.5448 37.4535 50.1515 37.6182L50.1514 37.6182C49.6782 37.8163 49.2053 38.0142 48.7248 38.1908C48.4271 38.2986 48.3017 38.4475 48.256 38.7334C48.2312 38.8878 48.1974 39.0409 48.1636 39.1937C48.1159 39.4097 48.0682 39.6254 48.0462 39.8443C48.0099 40.1959 47.8751 40.3318 47.5107 40.3131C47.1162 40.2936 46.7229 40.2978 46.3107 40.3021ZM45.8753 7.54784C45.8727 7.84346 45.8701 8.14221 45.8701 8.44512L15.9966 8.45098C15.9966 8.11774 15.9887 7.7864 15.9808 7.45694C15.9631 6.72048 15.9457 5.99336 16.0177 5.2752C16.1548 3.92754 17.2142 3.01699 18.5666 2.8998C18.7728 2.88223 18.9802 2.87402 19.1876 2.87402C27.0197 2.88105 34.8509 2.87871 42.6814 2.86699C43.8791 2.85879 44.888 3.18457 45.5021 4.27324C45.7016 4.61397 45.8218 4.9953 45.8537 5.38887C45.8879 6.09964 45.8817 6.81399 45.8753 7.54761V7.54784ZM15.9653 52.2884L15.9653 52.2883C15.9611 52.0513 15.9568 51.8101 15.9568 51.5631H45.8455C45.8455 51.9127 45.8542 52.2605 45.863 52.6064V52.6065C45.8826 53.3842 45.902 54.1524 45.8209 54.91C45.6955 56.0877 44.6009 56.9865 43.4115 57.1037C43.1302 57.1307 42.8466 57.14 42.5642 57.14C40.3588 57.1404 38.1535 57.138 35.9483 57.1355H35.9481H35.9479H35.9478H35.9476H35.9474H35.9472H35.9471H35.9469H35.9467H35.9465C30.3963 57.1295 24.8465 57.1234 19.2966 57.1611C16.9669 57.1775 15.815 55.6682 15.9486 53.7697C15.9829 53.2841 15.9743 52.7958 15.9653 52.2884ZM15.9896 49.6049V34.7057L17.799 34.7033V49.6049H15.9896ZM44.0748 18.1236V10.3893H45.863V17.7416C45.6217 17.8895 45.3444 17.8633 45.0682 17.8372C44.7076 17.8031 44.3489 17.7692 44.0748 18.1236ZM44.0748 41.8883V49.5967H45.8572V42.235C45.6097 42.123 45.3429 42.1442 45.0806 42.1652C44.7148 42.1943 44.3579 42.2228 44.0748 41.8883ZM17.8119 10.3951V12.1881H16.0037V10.3951H17.8119ZM27.2136 45.9284V47.7577H38.371V40.355H34.716V42.1784H36.5136V45.9284H27.2136ZM32.7885 40.3413V42.1507H23.4792V45.8843H25.2897V47.7593H21.6311V40.3413H32.7885ZM15.0274 15.9814H13.1372L13.1418 17.8143C13.0357 17.8216 12.9384 17.8288 12.8463 17.8356L12.8457 17.8356L12.8444 17.8357C12.7175 17.8451 12.6004 17.8537 12.4833 17.8611C11.6561 17.915 10.88 18.2799 10.3109 18.8825C9.7418 19.4851 9.42182 20.2807 9.41528 21.1096C9.41646 22.7936 10.7407 24.2408 12.4305 24.3393C12.9758 24.3713 13.5229 24.3713 14.0699 24.3714C14.5421 24.3714 15.0144 24.3714 15.4856 24.392C16.3469 24.4295 16.9141 25.0576 16.8836 25.8557C16.8543 26.6139 16.2473 27.1658 15.4083 27.1787C15.1476 27.1832 14.8862 27.1791 14.6249 27.1749H14.6248H14.6246H14.6245H14.6244H14.6243H14.6242H14.6241H14.624C14.2054 27.1682 13.7869 27.1616 13.3715 27.1904C12.2911 27.2654 11.4672 26.9936 11.2493 25.8287H9.44106C9.43551 26.5812 9.70042 27.3106 10.1875 27.8842C10.9422 28.8018 11.9758 29.0701 13.1559 29.0912V30.8842H15.0485V29.1006C15.1164 29.0959 15.1793 29.0918 15.2388 29.088C15.3713 29.0795 15.4868 29.0721 15.6016 29.0607C17.5129 28.865 18.8618 27.426 18.7657 25.6682C18.6649 23.8225 17.2493 22.5322 15.2993 22.517H12.9215C11.9395 22.5111 11.2868 21.9357 11.2961 21.0979C11.3055 20.26 11.9536 19.6998 12.9461 19.6998H15.0415C16.2098 19.701 16.6 19.9764 16.9516 21.0814H18.7493C18.7529 20.3481 18.5005 19.6365 18.0356 19.0693C17.2809 18.1201 16.2508 17.8049 15.0274 17.8342V15.9814ZM6.57954 16V17.8129H4.77954V16H6.57954ZM21.6296 17.82H23.4015V15.9907H21.6296V17.82ZM4.77808 29.1089H6.58159V30.8948H4.77808V29.1089ZM21.6204 30.8982H23.4004V29.1123H21.6204V30.8982ZM41.534 26.2295L43.0152 27.2842C41.5879 29.5564 42.1539 31.8697 43.505 33.2607C44.664 34.4561 46.9609 35.417 49.566 33.8408C49.7753 34.1347 49.986 34.4295 50.1968 34.7247L50.5984 35.2869C48.53 36.9463 44.9078 37.1127 42.4187 34.8182C40.0093 32.6057 39.6086 28.9822 41.534 26.2295ZM51.4553 25.3588C49.1913 23.11 45.4225 22.7994 43.0881 24.7166L44.11 26.1522C46.6178 24.985 48.3651 25.0553 49.9577 26.5635C51.8631 28.3693 51.9557 30.4904 50.6913 32.7369L52.1338 33.7623C54.0334 31.4022 53.7194 27.6076 51.4553 25.3588ZM49.6316 30.0122C49.6254 30.563 49.4564 31.0997 49.1458 31.5547C48.8353 32.0097 48.3972 32.3627 47.8865 32.5693C47.3758 32.7759 46.8155 32.8269 46.276 32.7157C45.7364 32.6046 45.2418 32.3364 44.8543 31.9449C44.4668 31.5533 44.2038 31.0559 44.0983 30.5153C43.9928 29.9746 44.0496 29.4148 44.2615 28.9063C44.4734 28.3979 44.831 27.9634 45.2892 27.6576C45.7474 27.3519 46.2858 27.1885 46.8367 27.188C47.5816 27.1926 48.2942 27.4926 48.8182 28.0221C49.3422 28.5516 49.6347 29.2673 49.6316 30.0122ZM46.8636 29.0888C46.7414 29.0826 46.6192 29.1011 46.5042 29.143C46.3893 29.1849 46.2839 29.2495 46.1943 29.3328C46.1047 29.4162 46.0327 29.5167 45.9826 29.6283C45.9326 29.74 45.9054 29.8606 45.9027 29.9829C45.9001 30.1053 45.922 30.2269 45.9671 30.3407C46.0123 30.4544 46.0798 30.5579 46.1657 30.6451C46.2516 30.7323 46.354 30.8014 46.4671 30.8482C46.5801 30.8951 46.7014 30.9189 46.8238 30.9181C46.946 30.9242 47.0682 30.9058 47.1832 30.8638C47.2982 30.8219 47.4036 30.7574 47.4932 30.674C47.5828 30.5906 47.6547 30.4902 47.7048 30.3785C47.7549 30.2668 47.7821 30.1463 47.7847 30.0239C47.7874 29.9016 47.7655 29.7799 47.7203 29.6662C47.6752 29.5525 47.6076 29.4489 47.5218 29.3617C47.4359 29.2746 47.3334 29.2055 47.2204 29.1586C47.1073 29.1117 46.986 29.088 46.8636 29.0888ZM24.4211 55.2532H37.4536V53.438H24.4211V55.2532Z" fill="#04122D"/>
</svg>