<svg xmlns="http://www.w3.org/2000/svg" width="58" height="57" viewBox="0 0 58 57" fill="none">
<path fill-rule="evenodd" clip-rule="evenodd" d="M0.0529785 55.4974V52.897C0.562744 51.6911 1.62095 51.6689 2.74829 51.7591V51.015V29.0365C2.73987 28.8294 2.74378 28.622 2.76001 28.4154C2.80923 27.99 3.05532 27.7275 3.48423 27.6783C3.93892 27.6255 4.25884 27.8341 4.38657 28.2642C4.43564 28.484 4.45417 28.7096 4.44165 28.9345V47.8017V48.4626H7.8729V25.3954H4.0479C2.9686 25.3954 2.75884 25.1822 2.75298 24.1134V21.2634C1.40131 21.1045 0.898333 21.0453 0.57686 20.7724C0.386339 20.6107 0.259568 20.3738 0.057666 19.9966V16.8325C0.562744 15.6197 1.62329 15.5997 2.75298 15.6865V13.6427C2.76704 11.8521 3.67173 10.5091 5.3311 9.82356C12.6803 6.77669 20.0288 3.72786 27.3764 0.677077C28.4686 0.222389 29.5057 0.208327 30.5991 0.664186C37.9084 3.71106 45.2221 6.74505 52.5401 9.76614C54.3987 10.5372 55.2354 11.8193 55.2424 13.8419V15.6747C55.3762 15.6747 55.4998 15.674 55.6168 15.6733C55.833 15.6721 56.0266 15.6709 56.2198 15.6747C57.3096 15.697 57.9284 16.3157 57.9413 17.4032C57.9495 18.0818 57.9483 18.7603 57.9413 19.4388C57.9307 20.5486 57.3096 21.1743 56.1834 21.2107C55.9881 21.2169 55.7948 21.2149 55.5954 21.2128H55.5952C55.4932 21.2117 55.3897 21.2107 55.2834 21.2107V51.7474C55.4076 51.7474 55.5266 51.7466 55.6421 51.7458H55.6425C55.8637 51.7442 56.0722 51.7428 56.2807 51.7474C57.2944 51.7732 57.9155 52.4025 57.9377 53.4255C57.9432 53.6767 57.9414 53.9273 57.9396 54.1781V54.1782V54.1783V54.1784V54.1786V54.1787V54.1788V54.179V54.1791V54.1792C57.9387 54.3049 57.9377 54.4306 57.9377 54.5564C57.9377 56.1325 57.4163 56.6552 55.8436 56.6552C37.9436 56.6552 20.0436 56.6603 2.1436 56.6704C1.17212 56.6728 0.47251 56.3904 0.0529785 55.4974ZM11.2795 15.6408V14.6118C11.2795 12.854 12.1596 11.9786 13.9256 11.9786H33.8229C33.9925 11.9726 34.1622 11.9753 34.3315 11.9868C34.8237 12.0407 35.1377 12.3829 35.1319 12.8435C35.126 13.304 34.8073 13.6333 34.3116 13.6638C34.1866 13.6724 34.0611 13.6695 33.9355 13.6667C33.8726 13.6652 33.8097 13.6638 33.7467 13.6638H13.9034C13.1252 13.6638 12.9776 13.8079 12.9764 14.5825V26.1138C12.9764 26.8661 13.1206 27.0079 13.8624 27.0091H44.0967C44.8749 27.0091 45.0084 26.8732 45.0096 26.0822V14.6083C45.0096 13.8033 44.8655 13.6638 44.051 13.6626H38.3991C37.8131 13.6626 37.4874 13.399 37.4311 12.9267C37.3643 12.3665 37.7522 11.9751 38.4155 11.9728C40.3561 11.965 42.2967 11.965 44.2374 11.9728C45.7667 11.9728 46.6854 12.9009 46.7053 14.4443V15.6302H53.5362V13.9134C53.5362 12.4626 53.1272 11.845 51.7784 11.2837C44.501 8.26965 37.2225 5.25325 29.9428 2.2345C29.6439 2.09894 29.3195 2.02881 28.9913 2.02881C28.663 2.02881 28.3386 2.09894 28.0397 2.2345C25.9718 3.10672 23.8972 3.96404 21.8225 4.82139L21.8225 4.82141C21.1683 5.09176 20.514 5.36211 19.86 5.63294C15.2733 7.53606 10.6854 9.43567 6.09634 11.3318C5.27603 11.6704 4.62329 12.1919 4.51196 13.0896C4.43979 13.6629 4.45684 14.2474 4.47419 14.8423V14.8423V14.8424V14.8424V14.8424V14.8424V14.8424V14.8425V14.8425V14.8425V14.8425C4.48191 15.1073 4.4897 15.3742 4.4897 15.6431L11.2795 15.6408ZM4.47212 51.7462H41.7096C41.7596 51.7462 41.8097 51.7457 41.8597 51.7453H41.8598H41.8599H41.8599C42.0176 51.7438 42.1754 51.7423 42.3319 51.7556C42.8006 51.7978 43.0549 52.0896 43.0913 52.5267C43.1178 52.7173 43.0708 52.9108 42.9598 53.068C42.8488 53.2251 42.6821 53.3341 42.4936 53.3728C42.2369 53.428 41.9743 53.4505 41.712 53.4396H2.48696H1.78384V54.9161H56.2116V53.4396H55.5694H47.5444C47.4294 53.4396 47.3143 53.4407 47.1993 53.4419C46.8617 53.4452 46.5241 53.4485 46.1885 53.4232C45.7749 53.3915 45.4139 53.1513 45.4256 52.7341C45.435 52.4306 45.6483 52.0919 45.8627 51.8517C45.9645 51.7418 46.2077 51.745 46.415 51.7477C46.4464 51.7482 46.477 51.7486 46.5061 51.7486C47.9243 51.7439 49.342 51.7454 50.7599 51.747H50.76H50.7601H50.7603H50.7604H50.7606H50.7607H50.7608H50.761H50.7637C51.4733 51.7478 52.183 51.7486 52.8928 51.7486H53.5034V50.2298H4.47212V51.7462ZM46.7112 25.4247V26.3154C46.6807 27.7943 45.7737 28.7048 44.2971 28.7154C43.6577 28.72 43.0177 28.7185 42.3776 28.7169H42.3775H42.3774H42.3773H42.3771H42.377H42.3769H42.3768H42.3766H42.3765C42.0562 28.7161 41.7358 28.7154 41.4155 28.7154H40.0772V48.4603H48.3342V25.4247H46.7112ZM17.9147 48.4708V28.7423C17.8452 28.7393 17.779 28.7358 17.7148 28.7323L17.7144 28.7323L17.7141 28.7323L17.7137 28.7323C17.5801 28.7251 17.4552 28.7185 17.3288 28.7177C16.9206 28.7177 16.5124 28.7185 16.1042 28.7193C15.2877 28.7208 14.4713 28.7224 13.6549 28.7177C12.2487 28.7072 11.3252 27.806 11.2795 26.3974C11.2725 26.1891 11.2748 25.9808 11.2772 25.7681C11.2783 25.6601 11.2795 25.5509 11.2795 25.44H9.65181V48.4708H17.9147ZM33.1667 48.4708C33.1667 47.7171 33.1678 46.9671 33.169 46.22C33.1727 43.7832 33.1765 41.3768 33.1397 38.9704C33.1397 38.5802 32.8456 38.1044 32.5444 37.8243C31.8713 37.1973 31.1521 36.6185 30.4336 36.0402L30.433 36.0397C30.2561 35.8973 30.0792 35.7549 29.903 35.6118C29.2514 35.0833 28.7311 35.0892 28.0772 35.6224C27.7418 35.8957 27.41 36.173 27.0783 36.4502L27.0781 36.4504C26.572 36.8734 26.066 37.2964 25.5471 37.7048C25.0268 38.1138 24.8077 38.6072 24.8124 39.2634C24.823 41.2812 24.8216 43.299 24.8202 45.3164V45.3172V45.3173V45.3175V45.3176V45.3177V45.3179V45.318V45.3182V45.3183V45.3184C24.8196 46.1826 24.819 47.0467 24.8194 47.9107C24.8194 48.0346 24.8269 48.1579 24.8347 48.2851V48.2851V48.2852V48.2852V48.2852V48.2853V48.2853V48.2853V48.2854L24.8347 48.2855L24.8347 48.2855C24.8384 48.3459 24.8421 48.4071 24.8452 48.4697H28.1475V47.7771V39.7509C28.1475 39.6998 28.1449 39.6452 28.1422 39.5896C28.1332 39.4019 28.1236 39.2033 28.2131 39.0911C28.4147 38.8404 28.7288 38.5216 28.9959 38.5216C29.2631 38.5216 29.5749 38.8427 29.7764 39.0947C29.8654 39.2059 29.8557 39.3997 29.8464 39.5851V39.5851C29.8435 39.6438 29.8406 39.7015 29.8409 39.7556V47.7806V48.4708H33.1667ZM53.5081 48.479V25.4388H50.1096V48.4755L53.5081 48.479ZM19.6842 28.7482V48.4591H23.0745V28.7482H19.6842ZM34.9057 28.7482V48.4579H38.2948V28.7482H34.9057ZM24.8639 28.7482V36.0724C25.0853 35.8899 25.3001 35.7136 25.51 35.5414L25.5103 35.5411L25.5105 35.541C25.9406 35.1881 26.3503 34.8519 26.7542 34.5126C28.3655 33.1708 29.6299 33.1697 31.2389 34.5126C31.6678 34.87 32.0989 35.2245 32.5502 35.5955L32.5504 35.5957L32.5505 35.5958L32.5506 35.5959C32.7429 35.754 32.9388 35.915 33.1397 36.0806V28.7447L24.8639 28.7482ZM1.76509 19.4763H11.2292V17.415H1.76509V19.4763ZM56.2268 17.4009H46.7428V19.4763H56.2268V17.4009ZM11.2397 23.6716V21.247H4.4979V23.6716H11.2397ZM46.7475 23.6575H53.5104V21.2447H46.7452L46.7475 23.6575ZM25.4827 20.3762C25.477 19.133 25.9653 17.9385 26.8403 17.0553C27.7153 16.1722 28.9053 15.6728 30.1485 15.667C31.3917 15.6613 32.5863 16.1496 33.4694 17.0246C34.3526 17.8997 34.852 19.0897 34.8577 20.3329C34.8606 20.9484 34.7421 21.5585 34.5092 22.1283C34.2763 22.6981 33.9334 23.2165 33.5001 23.6538C33.0668 24.0911 32.5517 24.4387 31.9841 24.6769C31.4164 24.9151 30.8075 25.0392 30.1919 25.042C29.5763 25.0449 28.9662 24.9265 28.3964 24.6935C27.8266 24.4606 27.3083 24.1177 26.871 23.6844C26.4337 23.2512 26.086 22.736 25.8478 22.1684C25.6096 21.6008 25.4856 20.9918 25.4827 20.3762ZM30.1702 17.3668C29.7787 17.3638 29.3904 17.4383 29.0278 17.5861C28.6652 17.734 28.3355 17.9522 28.0578 18.2282C27.78 18.5042 27.5597 18.8325 27.4096 19.1942C27.2594 19.5558 27.1825 19.9436 27.1831 20.3352C27.1784 21.1262 27.4865 21.887 28.0404 22.4518C28.5942 23.0166 29.3488 23.3396 30.1397 23.3504C30.9405 23.3505 31.7087 23.0334 32.2764 22.4686C32.8441 21.9038 33.165 21.1372 33.169 20.3364C33.1632 19.5455 32.8444 18.7892 32.2824 18.2328C31.7205 17.6763 30.9611 17.365 30.1702 17.3668ZM22.0233 21.2142C22.1656 21.2129 22.3126 21.2115 22.4664 21.2115C22.218 22.2228 21.7703 22.9658 20.7941 23.2611C19.7078 23.5799 18.4375 23.1264 17.7215 22.1959C17.3036 21.6545 17.0833 20.9865 17.0972 20.3028C17.111 19.619 17.3582 18.9605 17.7976 18.4365C18.741 17.3103 20.2457 17.0631 21.6344 17.8049C22.2238 18.1201 22.7066 18.0428 22.9656 17.5892C23.2246 17.1357 23.0476 16.6705 22.4816 16.3306C21.5769 15.7857 20.5949 15.6135 19.5519 15.7049C17.0359 15.924 15.175 18.2795 15.4316 20.9303C15.666 23.3502 18.0531 25.299 20.4613 25.0318C22.7078 24.7834 24.2172 23.0068 24.2465 20.5787C24.2547 19.8416 23.9699 19.5334 23.2469 19.524C22.5883 19.5158 21.918 19.517 21.2687 19.524C20.6195 19.531 20.282 19.8181 20.275 20.3443C20.268 20.8705 20.6125 21.1892 21.2406 21.2115C21.4959 21.2192 21.7513 21.2168 22.0231 21.2142H22.0233ZM39.1219 21.7296C39.6977 20.0109 40.2734 18.2882 40.8492 16.5617C40.893 16.3991 40.9547 16.2419 41.0332 16.0929C41.2582 15.7226 41.6449 15.5538 41.9965 15.7495C42.2266 15.8775 42.3758 16.1735 42.5114 16.4424L42.5119 16.4433C42.5301 16.4795 42.5481 16.5152 42.566 16.5499C42.6104 16.6348 42.5588 16.7767 42.513 16.9026C42.5031 16.9298 42.4935 16.9562 42.4852 16.9812C42.3576 17.3673 42.2302 17.7535 42.1028 18.1397L42.1004 18.1469L42.0999 18.1486C41.4337 20.168 40.7675 22.1873 40.0758 24.1976C39.9615 24.5085 39.7445 24.7711 39.4606 24.9417C38.8875 25.2558 38.3039 24.9124 38.0461 24.1742C37.2484 21.8859 36.4543 19.5964 35.6637 17.3058C35.5845 17.1153 35.5187 16.9195 35.4668 16.7199C35.3719 16.2511 35.5512 15.8843 36 15.7285C36.4488 15.5726 36.8414 15.712 37.0348 16.1597C37.1947 16.5301 37.3244 16.9133 37.4539 17.2961L37.4541 17.2969C37.4991 17.4298 37.5441 17.5626 37.5902 17.6949C38.059 19.0394 38.5277 20.3843 38.9965 21.7296H39.1219ZM27.3299 9.62785C27.4059 9.67659 27.4812 9.7249 27.5461 9.77632C27.6365 9.73643 27.7203 9.70687 27.7965 9.68001L27.7965 9.68C27.9397 9.62953 28.0557 9.58863 28.1367 9.50679C29.1047 8.56226 30.0692 7.61656 31.0067 6.63804C31.3313 6.29703 31.2867 5.85875 30.9481 5.52125C30.6282 5.20249 30.1957 5.14625 29.8758 5.44859C28.8797 6.3896 27.9059 7.35757 26.9754 8.36421C26.8137 8.53765 26.8137 8.98765 26.9133 9.24078C26.9762 9.40096 27.1549 9.51554 27.3299 9.62785ZM45.0765 32.4462C45.0765 32.5629 45.0779 32.6806 45.0794 32.7989C45.0822 33.0368 45.0851 33.2766 45.0765 33.5138C45.0554 34.0024 44.7601 34.2649 44.3007 34.3259C44.1924 34.3365 44.083 34.3249 43.9792 34.2919C43.8755 34.2589 43.7795 34.2052 43.6972 34.1339C43.6149 34.0627 43.5479 33.9754 43.5004 33.8775C43.4528 33.7795 43.4257 33.6729 43.4207 33.5642C43.3796 32.8167 43.3796 32.0675 43.4207 31.32C43.4252 31.211 43.4522 31.1042 43.5001 31.0062C43.5479 30.9081 43.6155 30.8211 43.6986 30.7504C43.7817 30.6798 43.8785 30.6271 43.9829 30.5956C44.0873 30.5642 44.1971 30.5546 44.3054 30.5677C44.7742 30.6227 45.0566 30.8934 45.0777 31.3798C45.0854 31.6129 45.0825 31.8464 45.0796 32.0799V32.08V32.0801V32.0803V32.0804V32.0805C45.078 32.2025 45.0765 32.3244 45.0765 32.4462ZM45.0797 38.6447V38.6446V38.6444V38.6443C45.0776 38.525 45.0755 38.4058 45.0755 38.2868L45.079 38.2915C45.079 38.1721 45.0809 38.0521 45.0829 37.9322L45.0829 37.9317C45.0868 37.6919 45.0907 37.4524 45.079 37.2181C45.0556 36.7271 44.7708 36.4505 44.302 36.3978C44.1932 36.3852 44.0829 36.3954 43.9782 36.4278C43.8735 36.4601 43.7766 36.5138 43.6938 36.5855C43.6109 36.6573 43.5438 36.7454 43.4969 36.8444C43.4499 36.9434 43.424 37.0511 43.4208 37.1607C43.378 37.9125 43.3804 38.6662 43.4278 39.4177C43.4583 39.8888 43.7923 40.1595 44.2786 40.1407C44.7649 40.122 45.0427 39.8431 45.0755 39.3603C45.088 39.1228 45.0838 38.8837 45.0797 38.6448V38.6448V38.6448V38.6447V38.6447ZM45.0742 44.136C45.0742 44.2556 45.0767 44.3752 45.0792 44.4947C45.0841 44.7335 45.0891 44.972 45.0742 45.2094C45.0379 45.6945 44.7379 45.9699 44.2645 45.984C43.8133 45.9992 43.4676 45.7426 43.4383 45.2961C43.3861 44.5079 43.3861 43.7171 43.4383 42.9289C43.4699 42.4531 43.8309 42.2094 44.316 42.2445C44.7742 42.2774 45.0426 42.5492 45.073 43.0063C45.0861 43.2522 45.0821 43.4986 45.0781 43.7449V43.745V43.745V43.7451V43.7452C45.0759 43.8755 45.0738 44.0058 45.0742 44.136ZM13.0486 32.0818C13.0506 32.2002 13.0525 32.318 13.0525 32.4347C13.0525 32.5459 13.0508 32.6572 13.0491 32.7686C13.0453 33.0143 13.0415 33.2606 13.056 33.5081C13.0794 33.9851 13.4345 34.3448 13.8763 34.3284C14.3486 34.3109 14.6861 34.0472 14.7154 33.5784C14.7587 32.8299 14.7611 32.0796 14.7224 31.3308C14.7175 31.2218 14.6905 31.115 14.6429 31.0168C14.5954 30.9186 14.5283 30.8312 14.4459 30.7598C14.3634 30.6884 14.2673 30.6346 14.1633 30.6016C14.0593 30.5686 13.9497 30.5571 13.8412 30.5679C13.3712 30.6159 13.0841 30.8843 13.0525 31.3659C13.0407 31.6032 13.0447 31.8436 13.0486 32.0818ZM14.7411 44.1416C14.7411 44.2542 14.7432 44.3668 14.7453 44.4795C14.7495 44.7046 14.7536 44.9296 14.7411 45.153C14.7048 45.6662 14.3298 46.0108 13.8657 45.9932C13.6476 45.9853 13.4413 45.8923 13.2908 45.7342C13.1404 45.576 13.0577 45.3653 13.0606 45.1471C13.0419 44.4545 13.0407 43.7596 13.0606 43.067C13.0759 42.5678 13.4122 42.2467 13.8716 42.2385C13.9795 42.2327 14.0876 42.2482 14.1895 42.2843C14.2914 42.3203 14.3852 42.3762 14.4654 42.4486C14.5457 42.521 14.6109 42.6086 14.6572 42.7063C14.7035 42.8039 14.73 42.9098 14.7353 43.0178C14.7573 43.2762 14.7521 43.5375 14.7468 43.7988L14.7468 43.7989C14.7446 43.9132 14.7423 44.0275 14.7423 44.1416H14.7411ZM13.0479 37.9307C13.0497 38.0491 13.0515 38.1669 13.0515 38.2836C13.0515 38.4073 13.0497 38.5311 13.048 38.6548C13.045 38.8686 13.042 39.0823 13.048 39.2961C13.0714 39.8035 13.3796 40.1234 13.839 40.1457C13.9519 40.1565 14.0658 40.1435 14.1734 40.1076C14.281 40.0716 14.3798 40.0135 14.4635 39.937C14.5472 39.8604 14.614 39.7672 14.6594 39.6633C14.7048 39.5593 14.7279 39.447 14.7273 39.3336C14.7566 38.6234 14.7577 37.9086 14.7273 37.1984C14.7252 37.0897 14.7014 36.9825 14.6575 36.883C14.6136 36.7835 14.5503 36.6937 14.4713 36.6189C14.3924 36.5441 14.2993 36.4857 14.1976 36.4472C14.0959 36.4087 13.9875 36.3908 13.8788 36.3945C13.6611 36.396 13.4526 36.4827 13.2979 36.636C13.1433 36.7894 13.0548 36.9971 13.0515 37.2148C13.0405 37.4521 13.0442 37.6925 13.0479 37.9307Z" fill="#04122D"/>
</svg>