<svg xmlns="http://www.w3.org/2000/svg" width="60" height="60" viewBox="0 0 60 60" fill="none">
  <path fill-rule="evenodd" clip-rule="evenodd" d="M30.0051 3.47851C31.5062 2.01127 33.425 1.0451 35.4977 0.712888C40.8777 -0.208206 46.2977 4.00351 46.7301 9.43633C46.9844 12.6379 45.9719 15.3449 43.7031 17.6066C39.4703 21.8254 35.2418 26.0523 31.0176 30.2875C30.1867 31.1172 29.8094 31.116 28.975 30.2816C27.672 28.9786 26.3657 27.6786 25.0595 26.3787L25.0594 26.3786L25.0591 26.3782C22.0259 23.3596 18.9926 20.3409 15.9988 17.2832C11.3488 12.5395 12.686 4.68789 18.5969 1.67265C20.3432 0.791034 22.3126 0.449713 24.2537 0.692249C26.1948 0.934786 28.0196 1.75018 29.4953 3.03437L30.0051 3.47851ZM29.9008 28.5355C29.9951 28.4751 30.0863 28.4098 30.1738 28.3398C31.4334 27.0802 32.6966 25.8236 33.9596 24.5671L33.9597 24.567C36.8787 21.6631 39.7973 18.7596 42.6707 15.8207C45.6309 12.7937 45.5113 7.89179 42.5242 4.89648C41.0828 3.45312 39.1373 2.62587 37.0978 2.58914C35.0583 2.55241 33.0842 3.30908 31.5918 4.69961C31.4554 4.8264 31.3241 4.959 31.193 5.09146C31.0356 5.2504 30.8784 5.40914 30.7129 5.55742C30.2547 5.97226 29.7414 5.97343 29.2856 5.55742C29.1206 5.40839 28.9636 5.25001 28.8067 5.0917L28.8067 5.09167L28.8066 5.0916C28.6748 4.95865 28.543 4.82573 28.4067 4.69843C27.1562 3.52809 25.5571 2.79913 23.8535 2.62287C22.1499 2.44661 20.4355 2.83272 18.9719 3.72226C14.5305 6.43633 13.8731 12.3754 17.6067 16.1266C21.4926 20.0328 25.3867 23.9293 29.2891 27.816C29.4362 27.9639 29.568 28.1271 29.7047 28.2962L29.7047 28.2963C29.7683 28.375 29.833 28.4551 29.9008 28.5355ZM29.0124 50.9362C29.0124 50.0409 28.8953 49.8698 28.0292 49.5065C28.0261 46.5674 28.0265 43.6237 28.0304 40.6752C28.0374 37.0666 26.4863 34.3487 23.3769 32.5213C22.53 32.0236 21.6826 31.5267 20.8352 31.0299L20.8302 31.027L20.8253 31.0241L20.8245 31.0237C18.9221 29.9083 17.0197 28.7929 15.1234 27.6674C14.9043 27.5339 14.7351 27.3322 14.6417 27.0932C13.2214 23.0448 11.8152 18.9893 10.423 14.9268C9.75502 12.9838 7.88588 11.7944 5.93237 12.1143C4.06206 12.4202 2.73667 14.0643 2.69213 16.0987C2.69062 16.3089 2.60643 16.5101 2.45776 16.6588C0.890963 17.86 0.437447 19.394 0.949557 21.2819C2.31479 26.3092 3.67417 31.3483 4.99252 36.3873C5.30847 37.6639 6.01817 38.8086 7.02104 39.6592C8.28038 40.7495 9.52324 41.8598 10.7661 42.9701L10.7661 42.9702L10.7664 42.9704L10.7666 42.9706C11.5394 43.661 12.3122 44.3514 13.089 45.037C13.7464 45.617 14.2011 46.3061 14.2492 47.1909C14.2784 47.7271 14.2711 48.265 14.2638 48.7999V48.8V48.8001C14.2606 49.0379 14.2574 49.275 14.2574 49.5112C13.4007 49.8592 13.2835 50.0338 13.2835 50.9373V58.1245C13.2835 59.0889 13.6058 59.4135 14.5726 59.4135H27.7234C28.6843 59.4135 29.0124 59.0854 29.0124 58.1245V50.9362ZM26.0605 49.2909C26.0539 49.3847 26.0425 49.4782 26.0265 49.5709L16.2296 49.5627C16.2296 49.3646 16.2277 49.1673 16.2257 48.9704L16.2257 48.9703C16.2218 48.5781 16.2179 48.188 16.2296 47.7979C16.2882 46.0424 15.6203 44.6303 14.296 43.4772C13.0785 42.4202 11.8739 41.3459 10.6703 40.2724C9.82817 39.5213 8.98655 38.7707 8.14135 38.0268C7.56562 37.5288 7.15658 36.8662 6.96948 36.1284C6.32053 33.692 5.66574 31.2578 5.01105 28.8239L5.01103 28.8238L5.01101 28.8237C4.28959 26.1418 3.56828 23.4603 2.85503 20.7768C2.73431 20.3465 2.70792 19.8952 2.77768 19.4537C2.85833 19.0497 3.07321 18.6847 3.38742 18.4182C3.70163 18.1516 4.09672 17.9991 4.50854 17.9854C5.46127 17.9631 6.26049 18.5409 6.57573 19.5088C7.41323 22.0971 8.24956 24.685 9.08471 27.2725C9.09655 27.3114 9.10815 27.3508 9.11981 27.3903L9.11982 27.3903C9.16009 27.5269 9.20102 27.6657 9.25464 27.7975C9.39528 28.1076 9.4695 28.4436 9.47253 28.7841C9.47555 29.1246 9.40732 29.4619 9.27221 29.7744C8.62651 31.4139 9.28745 33.3077 10.7957 34.2393C12.3432 35.1951 13.9257 36.0956 15.5072 36.9954L15.5073 36.9955L15.5082 36.996L15.509 36.9965C15.8658 37.1995 16.2226 37.4025 16.5789 37.6061C17.1238 37.9178 17.6828 37.7573 17.9581 37.2616C18.2335 36.7659 18.0917 36.2315 17.5304 35.9022C16.1618 35.1027 14.7859 34.3073 13.4117 33.5128L13.4098 33.5117C12.9596 33.2514 12.5096 32.9913 12.0601 32.7311C11.2867 32.2846 10.9351 31.6155 11.0523 30.726C11.1589 29.9174 11.6101 29.3104 12.3976 29.1569C12.9003 29.0596 13.5472 29.0901 13.9761 29.3338C16.9749 31.0295 19.9527 32.744 22.8824 34.5452C24.9015 35.7885 25.9773 37.7092 26.0382 40.0729C26.0936 42.239 26.0819 44.4068 26.0703 46.5751C26.0654 47.4803 26.0605 48.3856 26.0605 49.2909ZM27.005 57.3991H15.2582V51.5936H27.005V57.3991ZM10.546 21.3287L12.5312 27.058L11.2269 27.4354C10.5175 25.2526 9.81128 23.0752 9.10815 20.9034C9.0616 20.7612 9.01205 20.6183 8.96233 20.475C8.85061 20.1529 8.73808 19.8285 8.65698 19.5041C8.13198 17.4405 6.8769 16.1995 4.71948 15.9827C4.70542 15.0346 5.34643 14.2284 6.21713 14.069C7.19565 13.8897 8.20229 14.5143 8.55385 15.5385C9.2187 17.4682 9.88276 19.3983 10.546 21.3287ZM46.7159 50.9361C46.7147 50.0408 46.5987 49.8697 45.7327 49.5065C45.7327 49.3263 45.7351 49.1448 45.7376 48.9627V48.9625C45.7427 48.5787 45.7479 48.1926 45.7304 47.8119C45.6718 46.6389 46.1171 45.7236 47.0019 44.9596C48.2264 43.9024 49.4326 42.8249 50.6386 41.7476L50.639 41.7474L50.6399 41.7465C51.0216 41.4056 51.4033 41.0647 51.7854 40.7244C51.9561 40.5727 52.1157 40.4313 52.2653 40.2989L52.2665 40.2978C53.356 39.3332 53.9122 38.8408 54.2896 38.2367C54.6833 37.6067 54.8825 36.8553 55.2896 35.3203L55.2896 35.3202L55.3983 34.9108C56.6202 30.3287 57.844 25.7467 59.0698 21.1647C59.5562 19.3483 59.0687 17.867 57.5815 16.701C57.4143 16.5443 57.3147 16.3287 57.3038 16.0998C57.2546 14.0619 55.928 12.4201 54.053 12.1154C52.1065 11.7979 50.2702 12.9475 49.5999 14.8834C48.2015 18.9397 46.7913 22.9908 45.3694 27.0369C45.2623 27.3123 45.0697 27.546 44.8198 27.7037C44.4923 27.8986 44.1649 28.0937 43.8375 28.2887C41.5462 29.6536 39.2545 31.0189 36.9331 32.3303C33.5464 34.2416 31.8964 37.094 31.9597 40.9846C31.9912 42.9459 31.9831 44.9084 31.9751 46.8662V46.8665V46.8666V46.8666C31.9715 47.7477 31.9679 48.6278 31.9679 49.5065C31.103 49.8604 30.9858 50.0338 30.9858 50.9361V58.1244C30.9858 59.0877 31.3093 59.4135 32.2749 59.4135H45.4269C46.3878 59.4135 46.7159 59.0854 46.7159 58.1244V50.9361ZM43.7678 48.9127V48.9131C43.7665 49.1218 43.7651 49.3345 43.7651 49.5533H33.9343V48.9932C33.9343 48.051 33.9328 47.1089 33.9314 46.1667C33.9285 44.2822 33.9257 42.3975 33.9343 40.5123C33.9472 37.7654 35.1401 35.6772 37.5108 34.2815C40.3132 32.6315 43.1206 30.9861 45.9331 29.3455C46.6714 28.9143 47.4167 28.9026 48.1304 29.3912C48.8077 29.8553 49.0386 30.5315 48.9343 31.3236C48.8382 32.0361 48.3788 32.4791 47.7835 32.8213C47.4093 33.0366 47.0351 33.2514 46.6612 33.4661C45.3113 34.2409 43.9643 35.0141 42.6272 35.8061C42.3612 35.9631 42.0202 36.2244 41.9815 36.4776C41.9426 36.8471 42.0461 37.2176 42.271 37.5135C42.5733 37.8803 43.0339 37.8252 43.4511 37.5826C44.011 37.2576 44.5738 36.9372 45.1366 36.6168L45.1367 36.6168L45.1368 36.6167C46.4774 35.8535 47.8179 35.0904 49.1194 34.2651C49.7077 33.8924 50.2011 33.2561 50.5433 32.6338C51.1151 31.592 51.0272 30.474 50.5972 29.3654C50.4777 29.0553 50.4592 28.7153 50.5444 28.394C51.3301 25.8979 52.1385 23.4086 52.9468 20.9196L53.3827 19.5768C53.7624 18.4037 54.8464 17.7393 55.88 18.0381C56.971 18.351 57.5007 19.3986 57.169 20.6408C56.8985 21.6531 56.6286 22.6655 56.3587 23.6779L56.3586 23.6784L56.3585 23.6789C55.243 27.8632 54.1274 32.0475 52.9679 36.2197C52.7558 36.8975 52.3695 37.5077 51.8476 37.9893C49.8237 39.8725 47.7425 41.6959 45.6589 43.5147C44.371 44.6373 43.7276 46.0201 43.7651 47.7264C43.7729 48.1162 43.7704 48.5066 43.7678 48.9123V48.9125V48.9127ZM32.9839 57.4072V51.5772H44.7026V57.4072H32.9839ZM53.7542 14.0654C54.6214 14.2131 55.2554 14.983 55.294 15.9768C53.2315 16.1959 52.0093 17.3092 51.4093 19.2404C50.8264 21.1373 50.2096 23.0233 49.5887 24.9219L49.5883 24.9229L49.588 24.9238L49.5874 24.9256C49.315 25.7588 49.0417 26.5943 48.7702 27.4342L47.4753 27.065C47.4821 27.0406 47.4887 27.0162 47.4951 26.9921C47.5008 26.9709 47.5064 26.9498 47.5119 26.9288C47.5401 26.8218 47.5675 26.7182 47.603 26.6174C48.8905 22.9127 50.1796 19.2096 51.4702 15.508C51.8253 14.4885 52.771 13.899 53.7542 14.0654ZM24.3235 17.1309H27.0458C27.0458 17.543 27.0447 17.9419 27.0437 18.3335C27.0423 18.8649 27.0409 19.3828 27.0423 19.9023C27.0563 20.7039 27.4114 21.0602 28.2142 21.066C28.979 21.0707 29.7432 21.0691 30.5077 21.0676C30.89 21.0668 31.2723 21.066 31.6548 21.066C32.6146 21.066 32.9439 20.7379 32.9439 19.777V17.1332H35.604C36.5321 17.1297 36.8767 16.798 36.8767 15.8863V12.632C36.8755 11.5176 36.5872 11.234 35.4481 11.234H32.9439C32.9439 10.8991 32.9447 10.5763 32.9455 10.2612C32.947 9.65352 32.9485 9.07492 32.9439 8.49531C32.9368 7.65391 32.5888 7.30234 31.7438 7.30234C30.597 7.29766 29.4505 7.29766 28.3044 7.30234C27.3798 7.30469 27.0458 7.63633 27.0458 8.55977V11.234C26.7205 11.234 26.4028 11.233 26.0899 11.2321C25.4786 11.2303 24.8861 11.2286 24.2931 11.234C23.481 11.241 23.1212 11.5891 23.1142 12.3848C23.1071 13.5715 23.1071 14.759 23.1142 15.9473C23.1188 16.7793 23.4739 17.1309 24.3235 17.1309ZM29.0134 9.29688H30.9798C30.9798 9.58876 30.9797 9.8768 30.9795 10.1624C30.9793 10.7265 30.979 11.2812 30.9798 11.8375C30.9821 12.8887 31.2856 13.2004 32.3181 13.2004L34.711 13.2074C34.7651 13.2145 34.8184 13.2263 34.8704 13.2426V15.1539H32.4364C31.2552 15.1539 30.9798 15.4234 30.9798 16.5813V19.0539H29.0134V16.641C29.0122 15.4188 28.7532 15.1527 27.5532 15.1527H25.2833C25.2289 15.1455 25.1752 15.1338 25.1228 15.1176V13.1969H27.5556C28.7345 13.1969 29.0134 12.9238 29.0134 11.7672V9.29688Z" fill="#04122D"/>
</svg>