<svg xmlns="http://www.w3.org/2000/svg" width="60" height="60" viewBox="0 0 60 60" fill="none">
<path fill-rule="evenodd" clip-rule="evenodd" d="M30.3536 0.819336C30.97 1.1498 31.1997 1.6584 31.1739 2.36035C31.1475 3.05637 31.1527 3.75336 31.1578 4.45038V4.4504V4.45042V4.45043V4.45045V4.45059C31.1607 4.8367 31.1635 5.22282 31.161 5.60879C31.1552 6.4502 30.7192 6.96816 30.0349 6.96816C29.3505 6.96816 28.8993 6.44199 28.8899 5.61113C28.884 5.10143 28.8858 4.59147 28.8876 4.08162V4.08155V4.08148V4.08141V4.08134V4.08128C28.8897 3.48935 28.8918 2.89756 28.8817 2.30645C28.87 1.60332 29.1161 1.09238 29.7841 0.819336H30.3536ZM59.137 41.1715C58.8405 41.8617 58.2838 42.0527 57.5784 42.0504C55.1385 42.0426 52.6987 42.0452 50.2588 42.0478C49.0389 42.0491 47.819 42.0504 46.5991 42.0504H46.3143C45.5291 42 45.0252 41.5359 45.037 40.8785C45.0487 40.2211 45.5444 39.7758 46.36 39.7734C48.5327 39.7672 50.7054 39.7693 52.8784 39.7713H52.8787H52.879H52.8792H52.8795H52.8827C53.9701 39.7724 55.0576 39.7734 56.1452 39.7734H56.8014C57.2092 36.8789 55.7315 34.5094 53.076 33.7441C52.6952 33.6319 52.3011 33.5712 51.9041 33.5637C50.5817 33.5499 49.2587 33.5519 47.928 33.554H47.928H47.9279H47.9278H47.9278H47.9277C47.4473 33.5547 46.9658 33.5555 46.4831 33.5555C44.6502 40.0582 40.6284 44.5113 34.0166 46.1402C27.4237 47.7633 21.8116 45.7019 17.185 40.7801C17.1516 40.8097 17.1182 40.8383 17.0852 40.8666C17.0162 40.9257 16.9488 40.9835 16.8862 41.0461L4.61664 53.3391C4.04125 53.9144 3.73422 54.5637 3.93813 55.3922C4.01478 55.7113 4.17023 56.0061 4.39027 56.2497C4.6103 56.4932 4.88789 56.6777 5.19764 56.7862C5.50739 56.8947 5.83941 56.9239 6.16333 56.8709C6.48725 56.818 6.79272 56.6847 7.0518 56.4832C7.24349 56.3277 7.42474 56.1598 7.59438 55.9805L14.0748 49.4953C14.2437 49.3163 14.4306 49.1552 14.6327 49.0148C14.8447 48.8782 15.097 48.8181 15.3478 48.8445C15.5986 48.8709 15.8329 48.9823 16.0118 49.1601C16.1907 49.3378 16.3034 49.5714 16.3314 49.8221C16.3593 50.0728 16.3008 50.3254 16.1655 50.5383C16.027 50.7419 15.8671 50.9301 15.6885 51.0996C15.019 51.7723 14.3473 52.4429 13.6757 53.1135C12.3325 54.4546 10.9893 55.7957 9.66274 57.1535C8.74633 58.091 7.77719 58.9031 6.45649 59.1808H5.20492C4.15961 58.8656 3.20102 58.4285 2.50024 57.5262C1.32836 56.0109 1.30844 53.8008 2.50844 52.3008C2.72257 52.0346 2.95144 51.7807 3.19399 51.5402C7.23774 47.484 11.2862 43.4285 15.3393 39.3738C15.4609 39.2592 15.5892 39.152 15.7237 39.0527L13.4608 33.6504C12.8521 33.6504 12.2324 33.6364 11.6059 33.6223H11.6059H11.6059H11.6058H11.6058H11.6057C10.1612 33.5898 8.68055 33.5565 7.21586 33.6914C4.96938 33.8976 3.29125 36.0668 3.16586 38.5101C3.15205 38.768 3.15633 39.0268 3.16092 39.3051C3.16335 39.4518 3.16586 39.6039 3.16586 39.764H5.74399C5.96551 39.764 6.18691 39.763 6.40827 39.762H6.409H6.40913H6.40926H6.40939H6.40952C6.85168 39.7599 7.29367 39.7578 7.73617 39.764C8.55649 39.7793 9.04399 40.1988 9.06156 40.8668C9.07914 41.5348 8.56 42.0258 7.73031 42.0387C6.16832 42.0555 4.60633 42.0476 3.04434 42.0397L2.84008 42.0387C2.5184 42.042 2.1968 42.0271 1.8768 41.9941C1.30961 41.9308 0.939299 41.5711 0.91469 41.0332C0.910262 40.9124 0.905541 40.7916 0.900818 40.6707L0.900815 40.6706C0.833047 38.9362 0.765049 37.1958 1.56039 35.5558C2.5225 33.5719 4.02133 32.2277 6.13891 31.5879C6.22269 31.5625 6.30597 31.5366 6.38874 31.5109L6.5186 31.4707C6.5674 31.4459 6.61371 31.4165 6.65688 31.3828C5.96664 30.3281 5.82836 29.1387 5.87524 27.9035C5.95375 25.8586 6.8561 24.3164 8.72524 23.4785C10.5006 22.684 12.201 22.9547 13.7303 24.1816C13.7919 24.2316 13.8576 24.2774 13.9174 24.319L13.9174 24.319L13.9174 24.319L13.9175 24.319C13.9418 24.336 13.9652 24.3523 13.987 24.368C16.9916 17.1609 22.2487 13.091 30.1354 12.9562C36.5256 12.8473 43.3659 16.9137 45.9241 24.2156C46.1968 24.1026 46.467 23.9729 46.7375 23.8432C47.3305 23.5587 47.9249 23.2736 48.5502 23.1609C51.4389 22.6289 53.9538 24.7113 54.1225 27.6539C54.1963 28.9594 54.1225 30.232 53.4018 31.2961C53.6745 31.4354 53.9485 31.5668 54.2203 31.6972L54.2205 31.6973L54.2206 31.6973L54.2207 31.6974C54.8635 32.0057 55.4943 32.3083 56.0666 32.6953C57.7166 33.8098 58.6448 35.4328 59.0256 37.3769C59.0424 37.464 59.0695 37.5495 59.0966 37.6347C59.1092 37.6746 59.1219 37.7144 59.1334 37.7543L59.137 41.1715ZM30.0264 15.2051C22.0577 15.1652 15.4834 21.7359 15.4471 29.7703C15.4108 37.7777 21.917 44.3262 29.9631 44.3812C37.9483 44.4363 44.5073 37.9172 44.5717 29.8629C44.635 21.8566 38.0737 15.2449 30.0264 15.2051ZM13.1666 28.3019C13.1666 28.2387 13.1676 28.1754 13.1685 28.1121V28.112C13.1703 27.9855 13.1721 27.859 13.1666 27.7324C13.141 27.1201 12.8926 26.5383 12.4681 26.0964C12.0436 25.6544 11.4723 25.3827 10.8616 25.3324C9.59125 25.2433 8.42758 26.0871 8.22133 27.3445C8.12109 27.9655 8.12109 28.5985 8.22133 29.2195C8.46508 30.7148 10.019 31.6043 11.4557 31.1355C12.5913 30.757 13.1725 29.8043 13.1666 28.3019ZM51.8573 28.2984C51.8573 28.2426 51.8579 28.1867 51.8586 28.1308L51.8573 28.2984ZM21.471 5.0315C21.3504 4.97043 21.2183 4.90349 21.0748 4.82031C20.9772 4.90205 20.8734 4.97856 20.7701 5.0547L20.7701 5.05471L20.7701 5.05473C20.5314 5.23074 20.2953 5.40481 20.1432 5.63711C19.8444 6.07656 20.026 6.55703 20.3776 6.92617C20.9908 7.56992 21.6186 8.2 22.2608 8.81641C22.8244 9.35547 23.4385 9.39297 23.9307 8.92422C24.4229 8.45547 24.4112 7.7875 23.8627 7.21211C23.2615 6.58164 22.6498 5.95469 22.0123 5.36875C21.871 5.23418 21.6901 5.14254 21.471 5.03151L21.471 5.0315ZM38.9901 4.88916C39.0667 4.94786 39.1567 5.00414 39.2493 5.06202C39.4727 5.20173 39.711 5.35072 39.8105 5.56533C39.9511 5.86885 39.978 6.43135 39.7882 6.654C39.0613 7.4976 38.2782 8.2912 37.4444 9.02939C37.0401 9.3915 36.4214 9.26377 36.0569 8.87588C35.7148 8.51729 35.5952 7.89385 35.9304 7.52354C36.6769 6.70322 37.4831 5.9251 38.287 5.154C38.3777 5.07015 38.5122 5.03256 38.6811 4.98535C38.7742 4.95933 38.8777 4.93038 38.9901 4.88916ZM29.5802 10.6287C29.7163 10.6881 29.8628 10.7201 30.0113 10.7229C30.3113 10.7284 30.6011 10.6147 30.8171 10.4065C31.0332 10.1984 31.1577 9.91301 31.1633 9.61309C31.1689 9.31316 31.0551 9.0233 30.847 8.80727C30.6389 8.59124 30.3534 8.46673 30.0535 8.46113C29.905 8.45836 29.7574 8.48487 29.6192 8.53914C29.4809 8.59342 29.3547 8.67439 29.2477 8.77744C29.1407 8.88049 29.0551 9.0036 28.9957 9.13974C28.9363 9.27589 28.9043 9.42239 28.9016 9.5709C28.8988 9.71941 28.9253 9.867 28.9796 10.0053C29.0338 10.1435 29.1148 10.2697 29.2179 10.3767C29.3209 10.4837 29.444 10.5693 29.5802 10.6287ZM18.2481 45.7759C18.5447 45.7808 18.8285 45.8981 19.0421 46.1041C19.2557 46.31 19.3832 46.5893 19.3988 46.8856C19.3969 47.1822 19.28 47.4664 19.0728 47.6786C18.8657 47.8908 18.5843 48.0144 18.2879 48.0235C18.1409 48.0268 17.9946 48.001 17.8576 47.9476C17.7205 47.8941 17.5954 47.8142 17.4893 47.7123C17.3832 47.6103 17.2984 47.4885 17.2395 47.3537C17.1807 47.2188 17.1491 47.0737 17.1465 46.9267C17.1448 46.6294 17.2587 46.343 17.4643 46.1283C17.6699 45.9135 17.951 45.7871 18.2481 45.7759ZM42.2963 29.8304C42.3232 23.0698 36.765 17.4858 30.0092 17.4858C23.2721 17.487 17.7502 22.9995 17.7232 29.7753C17.6963 36.5511 23.2299 42.1022 30.0104 42.1022C36.7674 42.1011 42.2693 36.5909 42.2963 29.8304ZM26.4479 32.3733C24.6631 33.1327 23.2475 34.3515 22.1506 35.9581C18.9596 32.2093 19.3955 26.0511 23.0576 22.6022C27.0795 18.8089 33.0572 18.8054 37.0029 22.6479C40.8525 26.3979 40.8736 32.2491 37.9229 35.8901C37.7281 35.6837 37.5385 35.4714 37.3489 35.2589C36.912 34.7695 36.4746 34.2797 35.9729 33.8605C35.4752 33.4447 34.9182 33.1006 34.3486 32.7489C34.0946 32.592 33.8382 32.4337 33.5834 32.2667C34.7037 30.9472 34.8338 29.3276 34.5994 27.646C34.283 25.3854 32.3037 23.7085 30.0092 23.7085C28.8992 23.708 27.8256 24.1047 26.9826 24.8269C26.1397 25.5491 25.5829 26.5491 25.4131 27.646C25.1506 29.3944 25.3299 30.2241 26.4479 32.3733ZM36.1451 37.6233C33.2447 40.3128 27.5459 40.7675 23.8311 37.6374C25.1881 35.3241 27.1709 34.0573 29.8709 33.9601C31.1547 33.9228 32.4231 34.2463 33.5322 34.8938C34.6413 35.5414 35.5466 36.487 36.1451 37.6233ZM32.3894 28.6008C32.3876 28.6767 32.3857 28.7526 32.3857 28.8284L32.3904 28.8272C32.4021 30.5042 31.5842 31.5425 30.158 31.628C29.8403 31.6442 29.5223 31.6009 29.2205 31.5003C27.9162 31.0644 27.3221 29.6979 27.649 27.9495C27.7537 27.3824 28.0595 26.8721 28.5103 26.5124C28.9611 26.1528 29.5266 25.9679 30.1028 25.9919C30.679 26.0158 31.2272 26.247 31.6467 26.6428C32.0661 27.0386 32.3285 27.5725 32.3857 28.1464C32.3967 28.2972 32.393 28.449 32.3894 28.6008Z" fill="#04122D"/>
<rect x="47.0322" y="25.3398" width="5" height="6" rx="2.5" fill="white"/>
</svg>