<svg width="36" height="36" viewBox="0 0 36 36" fill="none" xmlns="http://www.w3.org/2000/svg">
<rect x="0.379883" y="0.393555" width="35.19" height="35.19" rx="17.595" fill="#29334C"/>
<g clip-path="url(#clip0_103_332)">
<path d="M10.1575 15.4521H13.4075V25.1709H10.1575V15.4521ZM11.7825 10.7959C10.6887 10.7959 9.96997 11.5146 9.96997 12.4521C9.96997 13.3896 10.6575 14.1396 11.7512 14.1396H11.7825C12.9075 14.1396 13.595 13.3896 13.595 12.4521C13.595 11.5146 12.9075 10.7959 11.7825 10.7959ZM21.3137 15.2334C19.595 15.2334 18.8137 16.1709 18.4075 16.8584V15.4521H15.1887C15.1887 15.4521 15.22 16.3896 15.1887 25.1709H18.4075V19.7646C18.4075 19.4521 18.4387 19.1709 18.5012 18.9521C18.7512 18.3896 19.2825 17.7959 20.1575 17.7959C21.345 17.7959 21.8137 18.6709 21.8137 19.9834V25.1709H25.0325V19.6084C25.0325 16.6396 23.4387 15.2334 21.3137 15.2334Z" fill="#1AC2FA"/>
</g>
<defs>
<clipPath id="clip0_103_332">
<rect width="16" height="16" fill="white" transform="matrix(1 0 0 -1 9.96997 25.9834)"/>
</clipPath>
</defs>
</svg>
