<svg width="36" height="36" viewBox="0 0 36 36" fill="none" xmlns="http://www.w3.org/2000/svg">
<rect x="0.569824" y="0.393555" width="35.19" height="35.19" rx="17.595" fill="#29334C"/>
<path d="M18.1699 14.3896C20.1387 14.3896 21.7637 16.0146 21.7637 17.9834C21.7637 19.9834 20.1387 21.5771 18.1699 21.5771C16.1699 21.5771 14.5762 19.9834 14.5762 17.9834C14.5762 16.0146 16.1699 14.3896 18.1699 14.3896ZM18.1699 20.3271C19.4512 20.3271 20.4824 19.2959 20.4824 17.9834C20.4824 16.7021 19.4512 15.6709 18.1699 15.6709C16.8574 15.6709 15.8262 16.7021 15.8262 17.9834C15.8262 19.2959 16.8887 20.3271 18.1699 20.3271ZM22.7324 14.2646C22.7324 14.7334 22.3574 15.1084 21.8887 15.1084C21.4199 15.1084 21.0449 14.7334 21.0449 14.2646C21.0449 13.7959 21.4199 13.4209 21.8887 13.4209C22.3574 13.4209 22.7324 13.7959 22.7324 14.2646ZM25.1074 15.1084C25.1699 16.2646 25.1699 19.7334 25.1074 20.8896C25.0449 22.0146 24.7949 22.9834 23.9824 23.8271C23.1699 24.6396 22.1699 24.8896 21.0449 24.9521C19.8887 25.0146 16.4199 25.0146 15.2637 24.9521C14.1387 24.8896 13.1699 24.6396 12.3262 23.8271C11.5137 22.9834 11.2637 22.0146 11.2012 20.8896C11.1387 19.7334 11.1387 16.2646 11.2012 15.1084C11.2637 13.9834 11.5137 12.9834 12.3262 12.1709C13.1699 11.3584 14.1387 11.1084 15.2637 11.0459C16.4199 10.9834 19.8887 10.9834 21.0449 11.0459C22.1699 11.1084 23.1699 11.3584 23.9824 12.1709C24.7949 12.9834 25.0449 13.9834 25.1074 15.1084ZM23.6074 22.1084C23.9824 21.2021 23.8887 19.0146 23.8887 17.9834C23.8887 16.9834 23.9824 14.7959 23.6074 13.8584C23.3574 13.2646 22.8887 12.7646 22.2949 12.5459C21.3574 12.1709 19.1699 12.2646 18.1699 12.2646C17.1387 12.2646 14.9512 12.1709 14.0449 12.5459C13.4199 12.7959 12.9512 13.2646 12.7012 13.8584C12.3262 14.7959 12.4199 16.9834 12.4199 17.9834C12.4199 19.0146 12.3262 21.2021 12.7012 22.1084C12.9512 22.7334 13.4199 23.2021 14.0449 23.4521C14.9512 23.8271 17.1387 23.7334 18.1699 23.7334C19.1699 23.7334 21.3574 23.8271 22.2949 23.4521C22.8887 23.2021 23.3887 22.7334 23.6074 22.1084Z" fill="#1AC2FA"/>
</svg>
