<svg xmlns="http://www.w3.org/2000/svg" width="60" height="60" viewBox="0 0 60 60" fill="none">
  <path fill-rule="evenodd" clip-rule="evenodd" d="M0.9375 5.63125C1.24336 4.36211 1.75781 3.21719 2.7832 2.35C3.76758 1.50742 4.90313 1.01289 6.19219 1.00937C12.85 0.989063 19.507 0.989063 26.1633 1.00937C27.3973 1.00937 28.4039 1.5707 29.2723 2.43555C32.434 5.57305 35.6039 8.7043 38.782 11.8293C39.0177 12.0634 39.2526 12.2975 39.4874 12.5314L39.4877 12.5317C40.3105 13.3515 41.1308 14.1687 41.9695 14.9746C42.4404 15.4128 42.8119 15.9469 43.0589 16.5408C43.306 17.1347 43.4228 17.7747 43.4016 18.4176C43.3859 19.9151 43.3894 21.4126 43.3928 22.9101C43.3942 23.5454 43.3957 24.1807 43.3957 24.816V25.4688L43.8727 25.3328C44.9168 25.0434 45.832 25.1969 46.6289 26.0031C47.297 26.679 47.9618 27.3583 48.6267 28.0377L48.6269 28.0379L48.6271 28.0381L48.6273 28.0383L48.6275 28.0385L48.6277 28.0387C50.6589 30.1143 52.6905 32.1901 54.8145 34.1676C56.6191 35.8492 55.7098 38.6359 53.4785 39.3379C52.9992 39.4879 52.4344 39.4551 51.9246 39.3812C51.6082 39.3379 51.4137 39.3484 51.191 39.5816C50.8868 39.9 50.5655 40.2013 50.231 40.5151L50.2309 40.5151L50.2309 40.5152C50.0926 40.6449 49.952 40.7768 49.8094 40.9129L53.9496 44.1871C54.212 44.3945 54.4725 44.6038 54.733 44.8132L54.7333 44.8134L54.7336 44.8137L54.734 44.814L54.7343 44.8142L54.7346 44.8145C55.3567 45.3144 55.9786 45.8141 56.625 46.2871C57.723 47.0957 58.6594 48.0145 59.0625 49.3633V50.6184C58.9326 50.8559 58.8147 51.1044 58.6967 51.353L58.6966 51.3531C58.4334 51.9076 58.1699 52.4627 57.7734 52.8988C56.7316 54.0508 55.4367 54.8582 53.7574 54.4527C52.6148 54.1762 51.8367 53.3617 51.1359 52.477C49.8352 50.8363 48.5379 49.1895 47.2441 47.5363C46.8096 46.9839 46.373 46.4328 45.9112 45.8497L45.91 45.8482L45.9098 45.848L45.9075 45.845L45.9064 45.8437L45.9038 45.8404L45.4418 45.257C45.3095 45.3961 45.1795 45.5313 45.0518 45.664L45.0516 45.6642L45.0512 45.6646C44.6981 46.0316 44.3623 46.3806 44.0449 46.7453C43.9995 46.8168 43.9695 46.897 43.9568 46.9807C43.944 47.0644 43.9489 47.1499 43.9711 47.2316C44.1551 47.8984 44.1867 48.5945 43.8199 49.1559C43.3904 49.8123 43.3914 50.4972 43.3924 51.1987C43.3925 51.2761 43.3927 51.3538 43.3922 51.4316C43.3734 54.6238 41.0215 56.9594 37.8211 56.9652H36.4676C36.641 57.9508 36.2977 58.6176 35.4492 59.002H24.2098C24.1463 58.9217 24.0718 58.8441 23.9973 58.7665C23.8367 58.599 23.6759 58.4313 23.6238 58.2367C23.4844 57.6719 23.9309 57.2992 24.6551 57.2992H34.1215H34.7203C34.9418 56.0184 34.4238 55.2531 33.3141 55.2508C28.325 55.2375 23.3367 55.2375 18.3492 55.2508C17.2301 55.2508 16.6137 56.1742 16.9523 57.2992C17.3081 57.2992 17.6646 57.3001 18.0216 57.301H18.0223H18.023H18.0237H18.0243H18.025C18.7395 57.3029 19.4561 57.3047 20.1727 57.2992C20.6625 57.2934 21.0938 57.3754 21.252 57.9098C21.4102 58.4441 21.1148 58.7664 20.6812 59.0055H16.2633C15.2508 58.641 15.0844 57.8008 15.143 56.8387H14.4539C13.5672 56.8387 12.6805 56.8401 11.7937 56.8415C10.0203 56.8444 8.24688 56.8473 6.47344 56.8387C4.02539 56.8234 1.98984 55.3855 1.2293 53.1695C1.16069 52.963 1.10062 52.7559 1.04094 52.5502C1.00684 52.4326 0.972866 52.3155 0.9375 52.1992V13.2227C1.19766 12.8055 1.5375 12.5113 2.05781 12.6883C2.57812 12.8652 2.64375 13.3047 2.64375 13.7934C2.6375 26.1988 2.6375 38.6051 2.64375 51.0121C2.64375 53.6148 4.15664 55.1301 6.76055 55.1312C9.50391 55.1312 12.2473 55.1312 14.9906 55.1371C15.3539 55.1371 15.5953 55.0586 15.8461 54.7527C16.1484 54.3676 16.537 54.0589 16.9805 53.8516C17.4316 53.6629 17.4914 53.4156 17.4937 53.002C17.5055 51.4117 18.4477 50.2152 19.9336 49.8848C20.2305 49.8285 20.5327 49.8049 20.8348 49.8145C24.1277 49.8098 27.4199 49.8098 30.7113 49.8145C32.9508 49.8145 34.1754 51.0262 34.2035 53.2668V53.6184C35.0133 53.8996 35.6613 54.359 36.0996 55.0867C36.129 55.1308 36.1678 55.1678 36.2132 55.1952C36.2585 55.2225 36.3094 55.2395 36.3621 55.2449C36.6074 55.237 36.8546 55.2371 37.102 55.2372C37.7289 55.2375 38.3566 55.2377 38.9566 55.1066C40.7215 54.7223 41.9437 52.8473 41.6191 51.1387C40.2328 51.523 39.3211 50.7766 38.4164 49.8496C36.6122 48.0085 34.7834 46.1908 32.9549 44.3733L32.9546 44.373L32.9544 44.3727L32.9541 44.3725L32.9538 44.3722L32.9536 44.3719L32.9534 44.3718L32.9532 44.3716L32.953 44.3714L32.9528 44.3712L32.9527 44.371C32.2214 43.6442 31.4902 42.9173 30.7605 42.1891C29.6531 41.084 29.4715 39.9437 30.2063 38.6629C30.941 37.382 32.393 36.7059 33.7102 37.0609C34.0371 37.1488 34.2246 37.0949 34.4508 36.8688C36.7867 34.525 39.1305 32.1898 41.482 29.8633C41.7164 29.6289 41.7809 29.4426 41.6707 29.1273C41.592 28.8562 41.5595 28.5737 41.5746 28.2918C41.5949 25.3316 41.6207 22.3715 41.652 19.4113V17.5996H40.8984H30.9656C28.2117 17.5996 26.6016 15.9836 26.6004 13.2285V2.79883C26.5254 2.79442 26.4528 2.78891 26.3819 2.78352C26.2457 2.77317 26.1154 2.76327 25.9852 2.7625C19.5563 2.73672 13.1254 2.71211 6.69258 2.68867C4.16484 2.68164 2.64141 4.21211 2.64023 6.75039C2.64023 7.02114 2.63932 7.29188 2.63841 7.56259C2.63659 8.10386 2.63477 8.64497 2.64023 9.18555C2.64609 9.66367 2.60039 10.1008 2.07539 10.3035C1.55039 10.5063 1.23398 10.1887 0.9375 9.82422V5.63125ZM43.0078 30.9063L35.5711 38.3312L42.6961 45.448L50.1562 38.0043C49.9378 37.7926 49.7143 37.5769 49.4875 37.3581L49.4867 37.3573L49.4858 37.3564L49.4853 37.3559C48.9256 36.8158 48.3458 36.2564 47.7727 35.6898C47.2898 35.2117 47.2395 34.7348 47.6027 34.3539C47.9871 33.9496 48.4746 33.9953 48.982 34.5004C49.407 34.9234 49.8301 35.3481 50.2532 35.773L50.2547 35.7745L50.2561 35.7759L50.2576 35.7774L50.2582 35.778C50.8076 36.3296 51.3572 36.8815 51.9117 37.4301C52.4531 37.9668 53.0273 37.9199 53.6355 37.3129C54.1102 36.8441 54.293 36.0801 53.7715 35.5645C51.8739 33.69 49.9926 31.7993 48.1114 29.9085C47.2334 29.0261 46.3554 28.1437 45.4758 27.2629C44.9484 26.7355 44.3332 26.7801 43.7449 27.366C43.1566 27.952 43.1086 28.5965 43.6078 29.1027C43.9971 29.4982 44.39 29.8905 44.783 30.2829L44.7831 30.2829L44.7831 30.2829L44.7832 30.283L44.7832 30.283L44.7833 30.2831C45.139 30.6383 45.4949 30.9936 45.8484 31.3516C46.3172 31.8273 46.3629 32.3125 45.9879 32.6898C45.6129 33.0672 45.1172 33.0227 44.6484 32.5551C44.2918 32.2036 43.9407 31.8483 43.5989 31.5026L43.5975 31.5011L43.5974 31.501L43.5961 31.4997L43.5952 31.4988L43.595 31.4986C43.3958 31.297 43.1998 31.0987 43.0078 30.9063ZM28.4648 3.94844L28.3078 4.05156V13.2789C28.3078 15.0285 29.1715 15.9027 30.9094 15.9039H39.8156H40.1231L28.4648 3.94844ZM46.7309 44.1297C47.3092 44.8626 47.888 45.5967 48.4672 46.3314L48.4677 46.332L48.4681 46.3325C49.94 48.1996 51.4151 50.0706 52.8949 51.9355C53.3203 52.4711 53.8758 52.8191 54.5965 52.8109C55.5914 52.7992 56.8617 51.775 57.2355 50.6887C57.5508 49.7699 57.2461 48.9648 56.2699 48.1926C54.1254 46.4934 51.977 44.7973 49.8246 43.1043C49.6812 42.9915 49.5379 42.8784 49.3952 42.7658C49.145 42.5683 48.8968 42.3723 48.6527 42.182L46.7309 44.1297ZM42.3832 47.916C42.3668 47.8879 42.3486 47.8493 42.3274 47.8045C42.2683 47.6793 42.1863 47.5058 42.0586 47.3781C39.2609 44.5656 36.4535 41.7656 33.6363 38.9781C33.4494 38.7992 33.2024 38.6964 32.9437 38.6898C32.2512 38.7262 31.8246 39.168 31.5562 39.7797C31.3219 40.3187 31.6266 40.6621 31.9781 41.0113C34.6688 43.6879 37.3539 46.3695 40.0336 49.0563C40.418 49.4441 40.7941 49.6574 41.3332 49.4383C41.6319 49.3065 41.8882 49.0944 42.0735 48.8257C42.2589 48.5569 42.3661 48.242 42.3832 47.916ZM32.4609 53.5059C32.5852 52.0926 32.0672 51.5137 30.723 51.5137H20.8652C19.5867 51.5137 19.0195 52.2062 19.2527 53.5059H32.4609ZM19.2446 31.2751H9.77348C9.56567 31.2832 9.35755 31.2742 9.15122 31.2482C8.71762 31.1767 8.42934 30.8638 8.48676 30.4712C8.53012 30.1747 8.79848 29.863 9.04926 29.6626C9.17676 29.5614 9.40023 29.5689 9.61052 29.5759L9.61061 29.5759C9.66317 29.5777 9.7149 29.5794 9.76411 29.5794H28.8176H29.045C29.7622 29.5958 30.1348 29.9005 30.1207 30.4583C30.1079 30.9951 29.7563 31.2787 29.0543 31.2787C25.7848 31.281 22.5149 31.2798 19.2446 31.2751ZM9.78877 44.8758H17.556L25.438 44.8723C25.6269 44.8794 25.8161 44.8723 26.004 44.8512C26.4282 44.7856 26.6767 44.5231 26.7071 44.0942C26.7388 43.6395 26.5161 43.3313 26.0696 43.2235C25.866 43.1833 25.6583 43.1672 25.4509 43.1754H9.74776C9.52191 43.1669 9.29591 43.187 9.0751 43.2352C8.88467 43.277 8.71536 43.3852 8.59751 43.5405C8.47965 43.6959 8.42097 43.8881 8.43197 44.0827C8.44297 44.2774 8.52294 44.4617 8.65755 44.6028C8.79215 44.7438 8.97258 44.8323 9.1665 44.8524C9.37311 44.8749 9.58105 44.8827 9.78877 44.8758ZM16.6288 38.0793H9.99014C9.80127 38.0854 9.61219 38.0791 9.42413 38.0605C8.95538 37.9996 8.7128 37.6961 8.69757 37.2566C8.68133 37.0652 8.73761 36.8746 8.85524 36.7227C8.97288 36.5707 9.14329 36.4685 9.33272 36.4363C9.53633 36.3956 9.74393 36.3783 9.95147 36.3848H23.3413C23.5487 36.3777 23.7561 36.3962 23.9589 36.4398C24.3796 36.5488 24.587 36.8453 24.5694 37.2766C24.5755 37.4685 24.5086 37.6555 24.3823 37.8001C24.256 37.9447 24.0796 38.0361 23.8886 38.0559C23.7002 38.0803 23.51 38.0881 23.3202 38.0793H16.6288ZM9.98425 17.679H16.0546C17.9796 17.6806 19.9089 17.6825 21.8425 17.6849C22.1446 17.6968 22.4473 17.6882 22.7483 17.6591C23.1772 17.6005 23.4175 17.3216 23.4397 16.8915C23.462 16.4614 23.2604 16.1638 22.8409 16.0466C22.6384 16.001 22.4308 15.9817 22.2233 15.9892C18.1194 15.9845 14.0155 15.9845 9.9116 15.9892C9.87275 15.9892 9.83164 15.9881 9.78952 15.9871C9.58901 15.9821 9.36575 15.9765 9.25535 16.0782C9.01628 16.2927 8.7198 16.629 8.73972 16.8985C8.75964 17.1681 9.11003 17.4435 9.37371 17.6368C9.47758 17.7115 9.64561 17.6994 9.8096 17.6876H9.80962C9.86947 17.6833 9.92879 17.679 9.98425 17.679ZM15.5249 24.4771H9.74174C9.55278 24.4821 9.36371 24.4746 9.17572 24.4549C8.98944 24.4271 8.81821 24.3366 8.69043 24.1982C8.56265 24.0599 8.48597 23.882 8.47312 23.6941C8.46026 23.5062 8.512 23.3195 8.61975 23.1651C8.7275 23.0106 8.88479 22.8976 9.06557 22.8447C9.26691 22.7964 9.47386 22.7755 9.6808 22.7826H21.3609C21.5682 22.7756 21.7754 22.7985 21.9761 22.8506C22.391 22.9795 22.5773 23.2935 22.5398 23.7189C22.5361 23.9011 22.4665 24.0757 22.3439 24.2104C22.2213 24.3451 22.054 24.4307 21.873 24.4514C21.6855 24.4768 21.4961 24.4858 21.307 24.4783C19.3804 24.483 17.4531 24.4826 15.5249 24.4771ZM25.9162 24.477H30.3377C30.9849 24.477 31.6324 24.4763 32.28 24.4757C33.1437 24.4748 34.0077 24.4739 34.8717 24.4746C35.2806 24.4758 35.617 24.3668 35.7963 23.9637C36.0717 23.3438 35.6287 22.7789 34.826 22.7789C31.8619 22.7742 28.8955 22.7742 25.9267 22.7789C25.2189 22.7801 24.8369 23.1059 24.851 23.6566C24.8615 24.1898 25.2224 24.477 25.9162 24.477Z" fill="#04122D"/>
</svg>