<svg xmlns="http://www.w3.org/2000/svg" width="60" height="60" viewBox="0 0 60 60" fill="none">
<path fill-rule="evenodd" clip-rule="evenodd" d="M59.0603 36.7094V38.302C59.0422 38.3736 59.0233 38.4452 59.0044 38.5169L59.0044 38.5169L59.0044 38.5169L59.0044 38.517L59.0044 38.517L59.0044 38.517L59.0044 38.5171C58.9658 38.6634 58.9273 38.81 58.895 38.957C58.6525 40.0527 58.111 40.9938 57.4419 41.8785C56.2816 43.4134 55.1284 44.9541 53.9602 46.5148L53.9575 46.5185L53.9479 46.5313C53.4683 47.172 52.9862 47.8161 52.5001 48.4645L48.9915 43.7863L48.9264 43.863L48.8914 43.9045C48.8197 43.9894 48.7617 44.058 48.7009 44.1238C48.4371 44.4125 48.1744 44.7023 47.9117 44.9921C47.1591 45.8225 46.4063 46.6531 45.6271 47.4566C45.3446 47.7473 45.2591 47.9781 45.3927 48.3426C45.9728 50.0008 45.9927 51.7199 45.9329 53.4473C45.8931 54.598 45.1384 55.3375 43.9759 55.3574C43.7222 55.3614 43.4683 55.3592 43.2145 55.3571H43.2142H43.2138H43.2135H43.2132H43.2129H43.2125H43.2122C42.7858 55.3536 42.3598 55.3501 41.9357 55.375C41.7411 55.3867 41.5196 55.5496 41.3767 55.7043C41.1365 55.9653 40.9075 56.2385 40.6785 56.5116L40.6785 56.5117L40.6784 56.5117C40.2907 56.9742 39.9031 57.4365 39.4618 57.8395C38.6871 58.5483 37.6742 58.8067 36.6766 59.0613L36.4782 59.1121H34.7708C34.7276 59.0771 34.6789 59.0494 34.6267 59.0301C32.4997 58.6586 30.9224 57.5184 29.8454 55.6469C29.7552 55.491 29.461 55.3727 29.2595 55.3715C27.5664 55.3623 25.873 55.3611 24.1797 55.3599C22.6217 55.3588 21.0637 55.3577 19.506 55.3504C19.1544 55.3504 18.9857 55.4781 18.8157 55.777C17.9982 57.2489 16.6371 58.3425 15.0235 58.8238C14.7925 58.8968 14.5576 58.9588 14.3231 59.0208L14.323 59.0208L14.323 59.0208L14.3229 59.0208L14.3229 59.0208L14.3228 59.0208L14.3228 59.0208L14.3228 59.0209C14.2147 59.0494 14.1068 59.0779 13.9993 59.1074H12.3024C12.2581 59.0736 12.2087 59.0471 12.156 59.0289C10.0267 58.6633 8.44581 57.5266 7.363 55.6586C7.27042 55.4992 6.98331 55.3715 6.78409 55.368C6.08486 55.3541 5.38496 55.3551 4.68493 55.3562C4.08034 55.357 3.47564 55.3579 2.8712 55.3492C1.80245 55.3352 1.0044 54.5922 0.961044 53.5668C0.931747 52.8637 0.934091 52.1605 0.961044 51.4656C0.992685 50.7109 1.51769 49.9727 2.23839 49.8344C2.8044 49.7242 2.83604 49.443 2.83487 48.9813C2.82315 43.0531 2.8212 37.1242 2.82901 31.1945C2.82901 29.7742 3.54386 29.0723 4.96065 29.0652H6.60128C6.79933 24.8758 7.97237 21.066 10.1368 17.5633C10.0735 17.4734 10.0108 17.3856 9.94892 17.2988L9.94839 17.298L9.94795 17.2974L9.94761 17.297C9.81856 17.1161 9.69287 16.9399 9.57198 16.7605C8.87296 15.7382 8.48395 14.5357 8.45167 13.2977C8.41261 11.9841 8.76735 10.6889 9.47027 9.5785C10.1732 8.46814 11.1922 7.59342 12.3962 7.0668C13.5912 6.54352 14.9161 6.39233 16.1983 6.63292C17.4805 6.87351 18.6605 7.49473 19.5845 8.41562C19.8681 8.69453 20.0696 8.76016 20.4517 8.58789C23.4735 7.21726 26.7583 6.52372 30.0763 6.55586C30.4454 6.55586 30.6423 6.43867 30.8415 6.13164C32.1728 4.03984 33.9821 2.50586 36.3153 1.65273C36.954 1.41837 37.6214 1.26316 38.2887 1.10798C38.5924 1.03736 38.8961 0.966739 39.197 0.888672H41.4681C41.55 0.929731 41.636 0.961944 41.7247 0.984766C49.6056 2.11914 53.9122 10.4184 50.2794 17.5188C50.1341 17.8023 50.1235 18.0063 50.2864 18.2887C51.9423 21.1609 52.9747 24.243 53.2864 27.5465C53.3585 28.3097 53.3865 29.0771 53.4147 29.847V29.8471L53.4148 29.8477C53.4288 30.2301 53.4428 30.6131 53.4622 30.9965L53.8923 31.1043C56.3532 31.7043 57.9704 33.2207 58.7708 35.6184C58.854 35.863 58.9142 36.1131 58.9742 36.3623C59.0022 36.4784 59.0301 36.5943 59.0603 36.7094ZM37.5535 27.0758L37.5532 27.0755C35.3849 24.3212 33.2369 21.5927 31.1462 18.8207C29.3333 16.4172 28.7907 13.6129 29.1915 10.6375C29.2592 10.1366 29.3718 9.64217 29.487 9.13622C29.5414 8.89765 29.5963 8.65652 29.6474 8.41094C26.611 8.48008 23.7482 9.10586 21.0306 10.3785C21.0374 10.452 21.0495 10.5248 21.0669 10.5965C22.0044 13.0363 21.606 15.2652 20.0439 17.3289C19.0227 18.6779 18.0181 20.0244 17.0137 21.3706C16.4816 22.0839 15.9494 22.7971 15.4149 23.5105C15.3351 23.6208 15.2464 23.7278 15.1458 23.8493C15.0988 23.9061 15.0492 23.966 14.9966 24.0309L11.3509 19.1746C9.59308 22.2918 8.63331 25.5297 8.49386 29.0699H24.4958C24.9213 29.0699 25.3468 29.0691 25.7723 29.0683C26.8597 29.0661 27.9471 29.064 29.0345 29.0758C30.1642 29.0875 30.9095 29.8422 30.9271 30.9742C30.9372 31.6684 30.9338 32.3631 30.9304 33.0577V33.0578V33.058V33.0582V33.0583V33.0585V33.0587V33.0588C30.9288 33.4062 30.9271 33.7536 30.9271 34.1008V34.6867H31.6302H39.5157C41.1657 34.6867 42.1782 35.4871 42.5767 37.0832C42.7881 37.931 42.9972 38.7791 43.2063 39.6272L43.2064 39.6272L43.2064 39.6273L43.2064 39.6274L43.2064 39.6274L43.2065 39.6275L43.2065 39.6276L43.2065 39.6277C43.3867 40.3585 43.5669 41.0893 43.7485 41.8199C43.9546 42.6464 44.1641 43.4729 44.3862 44.3492L44.387 44.3523L44.3882 44.3569L44.3883 44.3575L44.3898 44.3632C44.5101 44.838 44.6342 45.3275 44.7634 45.8395C45.0407 45.5146 45.3101 45.2031 45.5727 44.8997L45.573 44.8993C46.1446 44.2386 46.6834 43.6158 47.1997 42.9742C47.7956 42.2319 47.7755 42.2036 47.2375 41.4452L47.2232 41.425C44.7774 37.9773 45.9493 33.3391 49.731 31.5813C50.1064 31.4057 50.5062 31.2794 50.9189 31.1489C51.1206 31.0851 51.3255 31.0204 51.5321 30.9484C51.7048 27.0058 50.7946 23.0912 48.9001 19.6293L40.3103 30.5863C39.3896 29.4081 38.4697 28.2396 37.5535 27.0758ZM4.72628 30.9613V49.7113C4.92692 49.7113 5.12472 49.7097 5.32051 49.708H5.32065C5.77892 49.7041 6.22613 49.7003 6.67276 49.7184C7.05362 49.7336 7.26573 49.6164 7.46964 49.2648C8.03826 48.2659 8.86104 47.4351 9.85449 46.8568C10.8479 46.2786 11.9767 45.9734 13.1261 45.9724C14.2756 45.9713 15.4049 46.2743 16.3994 46.8507C17.394 47.4271 18.2183 48.2564 18.7888 49.2543C18.9845 49.5906 19.186 49.723 19.5798 49.723C21.6485 49.7108 23.7172 49.7116 25.7863 49.7125H25.7863H25.7864H25.7865H25.7866H25.7866H25.7867H25.7868C26.6865 49.7128 27.5862 49.7132 28.486 49.7125C28.6072 49.7125 28.729 49.7019 28.8498 49.6914C28.9089 49.6863 28.9678 49.6812 29.0263 49.6773V30.9695H21.5603V38.0863C21.1564 37.8842 20.7588 37.6864 20.3661 37.4909L20.3653 37.4906L20.3652 37.4905L20.3648 37.4903L20.3632 37.4895L20.3626 37.4893L20.3607 37.4883C19.3252 36.973 18.3235 36.4745 17.3298 35.9594C17.1954 35.8771 17.0409 35.8336 16.8833 35.8336C16.7257 35.8336 16.5712 35.8771 16.4368 35.9594C15.7885 36.3032 15.1307 36.63 14.4737 36.9563L14.4726 36.9569L14.4714 36.9575L14.4707 36.9578L14.4705 36.9579L14.4702 36.958C14.2662 37.0594 14.0623 37.1607 13.8587 37.2625C13.4864 37.4483 13.1123 37.6312 12.709 37.8284C12.5348 37.9136 12.3551 38.0014 12.1677 38.0934V30.9613H4.72628ZM40.3267 27.5781C40.3592 27.5256 40.3838 27.4832 40.4044 27.4476C40.4393 27.3871 40.463 27.3462 40.4954 27.3086C41.2459 26.3505 41.999 25.3944 42.7522 24.4383L42.7524 24.438C44.4349 22.3022 46.1175 20.1663 47.7704 18.0074C49.5423 15.6941 50.0521 13.0387 49.4743 10.2121C48.7126 6.48672 45.7009 3.57461 42.0681 2.93008C38.2079 2.24922 34.4896 3.85703 32.4095 7.10547C30.3857 10.2695 30.3774 14.6125 32.5888 17.6055C34.3143 19.9399 36.1104 22.2181 37.9329 24.5299L37.9333 24.5304L37.9339 24.5311L37.934 24.5312L37.934 24.5313L37.9346 24.532L37.9349 24.5324L37.9352 24.5327L37.9358 24.5335C38.7289 25.5395 39.5271 26.5519 40.3267 27.5781ZM30.9821 36.5816V47.8316C31.0352 47.8139 31.0859 47.7899 31.1333 47.7602C31.8647 47.0684 32.7458 46.5547 33.7081 46.2591C34.6704 45.9634 35.688 45.8938 36.6816 46.0556C37.6752 46.2174 38.6181 46.6063 39.4369 47.192C40.2557 47.7777 40.9283 48.5444 41.4025 49.4324C41.4646 49.5496 41.6087 49.6914 41.72 49.6949C42.2232 49.7134 42.727 49.7114 43.2589 49.7092C43.4344 49.7085 43.6129 49.7078 43.7954 49.7078L42.3892 44.0934H36.7864C35.44 44.0934 34.6888 43.3316 34.6771 41.9734C34.6724 41.5 34.6724 41.0262 34.6771 40.552C34.6888 39.2055 35.4458 38.4543 36.8028 38.4426C37.5963 38.4387 38.3902 38.44 39.1843 38.4413H39.1844H39.1845H39.1847H39.1848H39.1849H39.1851H39.1852C39.5824 38.4419 39.9798 38.4426 40.3771 38.4426H40.963C40.926 38.2845 40.8946 38.1527 40.8661 38.0332L40.8658 38.0318L40.8655 38.0309C40.8418 37.9316 40.8201 37.8407 40.7989 37.75C40.5388 36.6953 40.39 36.5781 39.3376 36.5781H30.9821V36.5816ZM14.9427 20.8598C14.974 20.8457 14.9999 20.8361 15.0212 20.8282C15.0566 20.8151 15.0791 20.8067 15.0915 20.7906C15.4866 20.26 15.8888 19.7339 16.291 19.2078L16.291 19.2077L16.2911 19.2076C17.2213 17.9907 18.1516 16.7737 18.995 15.5008C20.2782 13.5695 19.7884 11.0148 18.013 9.50547C17.1675 8.79265 16.0962 8.40345 14.9904 8.40731C13.8845 8.41117 12.816 8.80785 11.9755 9.52656C10.2353 11.016 9.74308 13.5824 11.0017 15.4809C11.8491 16.7592 12.7768 17.9846 13.7029 19.2078C14.119 19.7574 14.5347 20.3065 14.9427 20.8598ZM52.5048 45.3426C52.9 44.8114 53.2921 44.2895 53.6803 43.7728L53.6805 43.7725C54.6205 42.5212 55.5373 41.3008 56.4189 40.0551C57.1782 38.9852 57.3669 37.7406 57.0517 36.4703C56.556 34.4781 55.254 33.2676 53.2431 32.8832C51.4525 32.5398 49.5482 33.4223 48.5497 34.9926C48.046 35.7797 47.7898 36.6997 47.8143 37.6339C47.8387 38.5681 48.1426 39.4735 48.6868 40.2332C49.1036 40.821 49.5383 41.3954 49.9731 41.9699L49.9731 41.97L49.9734 41.9703L49.9738 41.9708C50.1672 42.2263 50.3606 42.4819 50.5524 42.7387C50.9334 43.2485 51.3214 43.7654 51.7222 44.2994L51.723 44.3004L51.7287 44.308C51.9817 44.6451 52.2399 44.9892 52.5048 45.3426ZM35.5642 57.223C36.8092 57.2374 38.0091 56.7572 38.9004 55.8879C39.7918 55.0185 40.3018 53.831 40.3185 52.5859C40.3489 50.0547 38.2817 47.8984 35.7763 47.8527C35.1551 47.8343 34.5364 47.9393 33.956 48.1614C33.3756 48.3836 32.845 48.7186 32.3948 49.147C31.9446 49.5755 31.5839 50.089 31.3334 50.6577C31.0828 51.2264 30.9475 51.8392 30.9353 52.4605C30.8778 55.0246 32.9696 57.1773 35.5642 57.223ZM13.0548 57.223C15.6329 57.2758 17.7587 55.2145 17.8208 52.6C17.8794 50.091 15.797 47.9055 13.295 47.8527C10.6548 47.7965 8.49034 49.8449 8.44581 52.4465C8.43401 53.063 8.54395 53.6757 8.76933 54.2496C8.99471 54.8235 9.33111 55.3474 9.75924 55.7911C10.1874 56.2348 10.6989 56.5896 11.2644 56.8354C11.8299 57.0811 12.4383 57.2128 13.0548 57.223ZM19.656 35.0301V30.9766H14.1165V35.0242C14.3516 34.9077 14.5812 34.7915 14.8074 34.677L14.8076 34.6769C15.3819 34.3863 15.9347 34.1065 16.5013 33.8594C16.7447 33.762 17.0158 33.7599 17.2607 33.8535C17.8244 34.1019 18.3743 34.3814 18.9493 34.6735C19.18 34.7907 19.4147 34.91 19.656 35.0301ZM29.0732 53.4473V51.6438H19.6853V53.4473H29.0732ZM36.5942 42.1691H41.911C41.7528 41.5375 41.604 40.9445 41.4622 40.382H36.5942V42.1691ZM6.59425 51.6344H2.87472V53.4379H6.59659L6.59425 51.6344ZM42.17 53.4379H44.0263V51.632H42.17V53.4379ZM25.2856 27.1494H23.4751V25.3623H25.2856V27.1494ZM27.2168 27.1456H29.0414V25.355H27.2168V27.1456ZM32.7938 25.3506V27.14H30.9634V25.3506H32.7938ZM33.3943 9.27803C33.0177 10.1897 32.8248 11.1667 32.8267 12.153C32.8946 14.0924 33.7115 15.9299 35.1059 17.2796C36.5002 18.6292 38.3634 19.3859 40.3039 19.3906C42.2444 19.3953 44.1113 18.6476 45.5121 17.3048C46.913 15.9619 47.7388 14.1284 47.8161 12.1894C47.8337 8.04445 44.4622 4.64601 40.3337 4.64601C39.3473 4.64416 38.3703 4.83707 37.4587 5.21367C36.5471 5.59028 35.7188 6.14317 35.0213 6.84064C34.3238 7.5381 33.7709 8.3664 33.3943 9.27803ZM45.5719 9.93932C45.8386 10.6513 45.9582 11.4099 45.9235 12.1694C45.9153 15.2843 43.3677 17.8261 40.2857 17.7944C38.8014 17.7773 37.3832 17.1784 36.3359 16.1265C35.2886 15.0746 34.6959 13.6538 34.6853 12.1694C34.6506 11.4099 34.7702 10.6513 35.037 9.93932C35.3037 9.22735 35.712 8.57684 36.2372 8.0271C36.7624 7.47736 37.3936 7.0398 38.0926 6.74085C38.7917 6.4419 39.5441 6.28777 40.3044 6.28777C41.0647 6.28777 41.8171 6.4419 42.5162 6.74085C43.2152 7.0398 43.8464 7.47736 44.3716 8.0271C44.8968 8.57684 45.3051 9.22735 45.5719 9.93932ZM14.9908 15.9052C14.4345 15.9012 13.8919 15.7324 13.4316 15.4201C12.9713 15.1078 12.614 14.666 12.4048 14.1506C12.1955 13.6352 12.1439 13.0693 12.2562 12.5245C12.3686 11.9798 12.64 11.4805 13.0361 11.09C13.4322 10.6995 13.9353 10.4352 14.4816 10.3305C15.0279 10.2258 15.593 10.2855 16.1054 10.502C16.6178 10.7185 17.0545 11.0821 17.3602 11.5468C17.666 12.0115 17.8271 12.5564 17.8232 13.1126C17.8206 13.482 17.7452 13.8472 17.6015 14.1874C17.4577 14.5276 17.2484 14.8362 16.9853 15.0955C16.7223 15.3549 16.4108 15.5598 16.0686 15.6988C15.7263 15.8377 15.3601 15.9078 14.9908 15.9052ZM15.0048 12.1552C14.7562 12.1521 14.5165 12.2479 14.3385 12.4215C14.1605 12.5951 14.0587 12.8323 14.0556 13.081C14.0525 13.3296 14.1483 13.5693 14.3219 13.7473C14.4955 13.9253 14.7327 14.0271 14.9814 14.0302C15.1045 14.0317 15.2267 14.009 15.341 13.9633C15.4554 13.9176 15.5596 13.8499 15.6477 13.7639C15.7359 13.6779 15.8062 13.5754 15.8547 13.4623C15.9033 13.3491 15.9291 13.2275 15.9306 13.1044C15.9321 12.9813 15.9094 12.8591 15.8637 12.7448C15.818 12.6304 15.7503 12.5262 15.6643 12.4381C15.5783 12.3499 15.4758 12.2796 15.3627 12.2311C15.2495 12.1825 15.1279 12.1567 15.0048 12.1552ZM54.8439 39.0512C55.1504 38.5875 55.3126 38.0434 55.31 37.4876C55.2999 36.742 54.9967 36.0303 54.466 35.5064C53.9353 34.9825 53.2198 34.6885 52.4741 34.688C51.9183 34.6926 51.3764 34.8618 50.9167 35.1743C50.457 35.4867 50.1002 35.9283 49.8913 36.4433C49.6824 36.9584 49.6308 37.5238 49.743 38.0682C49.8552 38.6125 50.1261 39.1114 50.5217 39.5019C50.9172 39.8924 51.4196 40.1569 51.9654 40.2621C52.5111 40.3673 53.0758 40.3084 53.5881 40.0928C54.1004 39.8773 54.5374 39.5148 54.8439 39.0512ZM53.1502 38.1501C52.9854 38.3241 52.7593 38.4274 52.5198 38.438C52.3958 38.4435 52.2721 38.424 52.1558 38.3806C52.0395 38.3373 51.9332 38.2709 51.8431 38.1856C51.753 38.1003 51.681 37.9977 51.6314 37.884C51.5818 37.7703 51.5556 37.6477 51.5543 37.5237C51.5531 37.3996 51.5768 37.2765 51.6241 37.1618C51.6714 37.0471 51.7413 36.9431 51.8296 36.856C51.918 36.7689 52.0229 36.7004 52.1383 36.6547C52.2536 36.609 52.377 36.587 52.5011 36.5899C52.7407 36.5957 52.9688 36.6943 53.1372 36.865C53.3055 37.0357 53.401 37.2652 53.4034 37.5049C53.4059 37.7447 53.3151 37.976 53.1502 38.1501ZM38.4258 52.5451C38.4207 53.0981 38.2519 53.6371 37.9409 54.0943C37.6298 54.5514 37.1903 54.9062 36.6779 55.1139C36.1654 55.3216 35.6029 55.3729 35.0613 55.2614C34.5197 55.1498 34.0233 54.8803 33.6347 54.4869C33.2461 54.0936 32.9826 53.594 32.8776 53.0511C32.7726 52.5082 32.8307 51.9463 33.0446 51.4364C33.2585 50.9265 33.6186 50.4914 34.0795 50.1858C34.5404 49.8803 35.0814 49.7181 35.6344 49.7197C36.3789 49.7253 37.0908 50.0259 37.614 50.5555C38.1373 51.0851 38.4292 51.8006 38.4258 52.5451ZM35.6133 53.4627C35.8601 53.4655 36.0981 53.3709 36.2756 53.1993C36.4531 53.0278 36.5558 52.7931 36.5613 52.5463C36.5636 52.2977 36.4671 52.0583 36.2929 51.8808C36.1188 51.7034 35.8812 51.6023 35.6326 51.6C35.384 51.5977 35.1446 51.6942 34.9671 51.8684C34.7896 52.0426 34.6886 52.2801 34.6863 52.5287C34.6872 52.7766 34.7863 53.0139 34.9617 53.1889C35.1372 53.364 35.3748 53.4624 35.6226 53.4627H35.6133ZM15.4581 54.0804C15.7668 53.6216 15.9327 53.0817 15.935 52.5288C15.935 51.7829 15.6387 51.0675 15.1113 50.5401C14.5838 50.0126 13.8685 49.7163 13.1225 49.7163C12.5696 49.7186 12.0297 49.8846 11.5709 50.1932C11.1121 50.5018 10.755 50.9394 10.5445 51.4507C10.3339 51.962 10.2794 52.5241 10.3879 53.0664C10.4963 53.6086 10.7628 54.1065 11.1538 54.4975C11.5448 54.8885 12.0428 55.155 12.585 55.2635C13.1272 55.3719 13.6894 55.3174 14.2007 55.1069C14.712 54.8964 15.1495 54.5392 15.4581 54.0804ZM12.4816 51.8744C12.66 51.7009 12.8995 51.6046 13.1483 51.6065C13.398 51.6124 13.6352 51.7169 13.8081 51.8972C13.9809 52.0775 14.0753 52.3189 14.0706 52.5687C14.0659 52.8173 13.9627 53.0539 13.7836 53.2264C13.6045 53.3989 13.3641 53.4932 13.1155 53.4886C12.8669 53.4839 12.6303 53.3807 12.4577 53.2016C12.2852 53.0224 12.1909 52.7821 12.1956 52.5335C12.2005 52.2847 12.3033 52.0479 12.4816 51.8744Z" fill="#04122D"/>
</svg>