<svg xmlns="http://www.w3.org/2000/svg" width="27" height="30" viewBox="0 0 27 30" fill="none">
  <path fill-rule="evenodd" clip-rule="evenodd" d="M14.7794 1.59766C14.3634 1.1875 13.9532 0.789062 13.3732 0.625H12.6876C12.1193 0.789062 11.7091 1.17578 11.3048 1.58008C10.7588 2.12612 10.2075 2.66695 9.65575 3.20824C9.19508 3.66018 8.73408 4.11245 8.27551 4.56836C8.11144 4.73242 7.95324 4.79102 7.72473 4.79102C6.85919 4.78223 5.99694 4.78332 5.13305 4.78442C4.84484 4.78479 4.55645 4.78516 4.26769 4.78516C3.04894 4.78516 2.28723 5.54688 2.28137 6.75977C2.28137 7.04541 2.28173 7.33105 2.2821 7.6167C2.2832 8.47363 2.2843 9.33057 2.27551 10.1875C2.27551 10.3281 2.20519 10.5039 2.10558 10.6035C1.65441 11.0723 1.19738 11.5293 0.722772 11.9688C0.248162 12.4082 0.0313656 12.9414 0.0372249 13.5918C0.0497808 14.659 0.0473892 15.7263 0.0449977 16.7935C0.0440411 17.2204 0.0430844 17.6473 0.0430844 18.0742C0.0430844 18.5312 0.166131 18.7246 0.453241 18.7305C0.757928 18.7422 0.898553 18.5312 0.898553 18.0742V13.5918C0.898553 13.4988 0.909478 13.4036 0.920654 13.3062C0.927779 13.2441 0.935006 13.1811 0.939569 13.1172C2.49931 14.6859 4.04992 16.247 5.59604 17.8036C7.0818 19.2994 8.56342 20.791 10.045 22.2812C9.09009 22.8062 8.1316 23.3335 7.1688 23.8632C5.10103 25.0007 3.01343 26.1492 0.898553 27.3086V26.9219V20.4121C0.898553 20.2891 0.898553 20.1602 0.863397 20.043C0.804803 19.832 0.6466 19.7383 0.429803 19.7559C0.224725 19.7734 0.101678 19.8906 0.0606625 20.0898C0.0489438 20.1777 0.0489437 20.2598 0.0489437 20.3477V27.8828C0.0489437 29.1191 0.804803 29.8633 2.05285 29.875H17.4689C17.9142 29.875 18.1134 29.7461 18.1193 29.4531C18.1251 29.1484 17.9142 29.0137 17.4571 29.0137H2.15246C2.12481 29.0137 2.0968 29.014 2.0686 29.0144C1.98328 29.0155 1.89629 29.0166 1.81262 29.0078C1.37316 28.9727 1.03918 28.6738 0.968866 28.2578C1.02465 28.2281 1.08043 28.196 1.13771 28.163C1.17068 28.144 1.20415 28.1247 1.2384 28.1055C2.25264 27.5477 3.26732 26.9904 4.28208 26.4331C6.96648 24.9587 9.65142 23.484 12.3302 22C12.8224 21.7246 13.2501 21.7246 13.7423 22C17.381 24.0156 21.0314 26.0195 24.6818 28.0234C24.8282 28.1055 24.9747 28.1875 25.1153 28.2695C24.9454 28.7734 24.6232 29.0137 24.1017 29.0137H19.7599C19.7348 29.0137 19.7097 29.0129 19.6848 29.0122C19.6108 29.01 19.5385 29.0079 19.4728 29.0254C19.2677 29.0723 19.1388 29.2012 19.1329 29.4238C19.1212 29.6582 19.2501 29.7988 19.4669 29.8574C19.5325 29.8715 19.6018 29.8705 19.6719 29.8696C19.6895 29.8694 19.7071 29.8691 19.7247 29.8691H24.0665C25.2267 29.8691 26.006 29.1074 26.006 27.9414C26.0089 25.5391 26.0089 23.1353 26.0089 20.7314C26.0089 18.3276 26.0089 15.9238 26.0118 13.5215C26.0118 12.9238 25.8068 12.4258 25.379 12.0156C24.8927 11.5469 24.4064 11.0781 23.9376 10.5918C23.8439 10.498 23.7911 10.334 23.7736 10.1992C23.7602 10.0586 23.7621 9.91599 23.764 9.77369C23.7654 9.66702 23.7669 9.56051 23.7618 9.45508C23.7501 9.21484 23.6036 9.06836 23.3634 9.05664C23.1232 9.03906 22.9708 9.17969 22.9239 9.41406C22.9099 9.4892 22.9108 9.5681 22.9118 9.64474C22.912 9.66372 22.9122 9.68256 22.9122 9.70117V9.70249C22.9122 11.0556 22.9122 12.4028 22.9181 13.7559C22.9181 13.9551 22.8654 14.0898 22.7247 14.2305C22.0362 14.916 21.3492 15.6016 20.6622 16.2871C19.9752 16.9727 19.2882 17.6582 18.5997 18.3438C18.2364 18.7071 17.8725 19.0697 17.5085 19.4324C16.7807 20.1576 16.0528 20.8828 15.3302 21.6133C15.1837 21.7598 15.0782 21.7832 14.8966 21.6719C14.5568 21.4668 14.2052 21.2734 13.8478 21.0977C13.2911 20.8164 12.7286 20.8281 12.1779 21.1152C11.8321 21.291 11.4864 21.4785 11.1525 21.6777C10.9884 21.7773 10.8829 21.7598 10.7423 21.6191C8.27551 19.1465 5.80285 16.6797 3.32433 14.2129C3.18957 14.0781 3.13683 13.9492 3.13683 13.7617C3.14269 11.4473 3.14269 9.13867 3.14269 6.82422C3.14269 5.98633 3.50012 5.63477 4.34387 5.63477H14.9083C15.68 5.63477 16.4511 5.63411 17.2219 5.63346C18.7629 5.63216 20.3031 5.63086 21.8458 5.63477C22.5138 5.63477 22.9064 6.0332 22.9122 6.70117C22.9147 6.83175 22.914 6.96234 22.9133 7.09292C22.9123 7.26702 22.9114 7.44113 22.9181 7.61523C22.9298 7.89648 23.1114 8.07812 23.3634 8.06641C23.6036 8.05469 23.7618 7.89062 23.7677 7.60938C23.7716 7.41819 23.7703 7.2296 23.769 7.04014C23.7683 6.94509 23.7677 6.84983 23.7677 6.75391C23.7677 5.54102 23.006 4.78516 21.7872 4.7793C21.496 4.7793 21.2044 4.77966 20.9125 4.78003C20.0358 4.78113 19.1566 4.78223 18.2775 4.77344C18.131 4.76758 17.9435 4.69727 17.838 4.5918C16.8126 3.60156 15.7872 2.60547 14.7794 1.59766ZM20.4852 17.7889C22.0255 16.2381 23.5696 14.6836 25.1212 13.123V27.2793C22.3055 25.7312 19.4948 24.1881 16.7348 22.6728L16.0216 22.2812C17.5083 20.7859 18.995 19.2892 20.4852 17.7889ZM16.7423 4.76172H9.31262C9.34987 4.72198 9.38186 4.68645 9.41127 4.6538C9.45123 4.60941 9.48642 4.57034 9.52355 4.5332C9.97766 4.08789 10.4318 3.64111 10.8859 3.19434C11.34 2.74756 11.7941 2.30078 12.2482 1.85547C12.7579 1.35156 13.2853 1.3457 13.795 1.84375C14.2638 2.30367 14.731 2.7636 15.1982 3.22352C15.6656 3.68352 16.1329 4.14352 16.6017 4.60352C16.6239 4.62571 16.6444 4.64962 16.6687 4.67803C16.6893 4.70213 16.7127 4.72945 16.7423 4.76172ZM2.26379 11.6816V13.1289C2.2221 13.0853 2.18105 13.0423 2.14056 12.9999C1.93637 12.786 1.74647 12.5872 1.56066 12.3965C1.77746 12.1738 2.00598 11.9395 2.26379 11.6816ZM23.8394 13.0234L23.7853 13.0762V11.7637C23.8798 11.8636 23.978 11.9685 24.0777 12.0749C24.1943 12.1994 24.3129 12.326 24.4298 12.4492C24.273 12.6007 24.0562 12.812 23.8394 13.0234ZM12.6174 14.7583C13.1858 14.8403 13.6604 14.6235 14.0881 14.2485C14.3987 14.7583 14.8206 15.0278 15.4182 14.9634C16.0569 14.8872 16.5374 14.5649 16.8245 14.0083C17.3401 13.0239 17.4924 11.9868 17.1057 10.9204C16.4436 9.09226 14.7034 7.97898 12.7053 8.10202C10.8831 8.21335 9.2776 9.60788 8.85572 11.436C8.42799 13.311 9.26588 15.2153 10.9358 16.1587C11.5335 16.4926 12.178 16.6743 12.8635 16.7153C13.1506 16.7329 13.3499 16.5747 13.3733 16.3286C13.3967 16.0825 13.2327 15.9009 12.9456 15.8657C12.8928 15.8598 12.8416 15.854 12.7903 15.8481C12.739 15.8423 12.6878 15.8364 12.635 15.8305C10.6604 15.5844 9.32447 13.7563 9.67018 11.7583C9.99244 9.87155 11.926 8.60593 13.8128 9.02194C15.4768 9.39109 17.1174 11.2075 16.1858 13.3696C16.0803 13.6098 15.8928 13.8501 15.676 13.9907C15.1956 14.3012 14.803 14.061 14.803 13.4926C14.803 13.1499 14.8045 12.8071 14.8059 12.4643C14.8074 12.1216 14.8088 11.7788 14.8088 11.436C14.8147 11.0259 14.8147 10.6157 14.8147 10.2055C14.8088 9.95359 14.6917 9.78366 14.4338 9.75437C14.1819 9.72507 14.012 9.87741 13.9592 10.1469C13.953 10.1782 13.9484 10.211 13.9437 10.2447C13.9396 10.2742 13.9354 10.3043 13.9299 10.3344C12.6819 9.73679 11.5217 10.1294 11.0296 11.3188C10.6897 12.1333 10.7483 12.9419 11.1702 13.7094C11.4866 14.2778 11.9553 14.6645 12.6174 14.7583ZM13.9343 12.1178C13.9478 12.1921 13.9613 12.266 13.9768 12.3384C13.9417 12.7778 13.8421 13.1762 13.5667 13.5219C13.1741 14.02 12.5881 14.0551 12.137 13.604C11.5803 13.0473 11.51 11.9575 11.9963 11.3423C12.2542 11.0141 12.5881 10.8384 13.0159 10.8969C13.4319 10.9555 13.6721 11.2309 13.8069 11.5942C13.8689 11.7596 13.9018 11.9397 13.9343 12.1178Z" fill="white"/>
</svg>