<svg xmlns="http://www.w3.org/2000/svg" width="21" height="30" viewBox="0 0 21 30" fill="none">
  <path fill-rule="evenodd" clip-rule="evenodd" d="M11.7593 0.731876C11.5696 0.701422 11.3802 0.671017 11.1925 0.636719C10.7237 0.636719 10.2608 0.636719 9.79207 0.625C9.64973 0.648724 9.50738 0.670067 9.36532 0.691366L9.36531 0.691368L9.3653 0.69137C9.12144 0.727933 8.87844 0.764368 8.63778 0.8125C3.55184 1.83789 0.211995 6.80078 1.14364 11.8984C1.44832 13.5801 2.15145 15.0977 3.13582 16.4688C3.957 17.612 4.81412 18.7303 5.67109 19.8484C6.06155 20.3578 6.45197 20.8672 6.83895 21.3789C6.90926 21.4727 6.97957 21.5664 7.07332 21.6895C6.97957 21.7129 6.92684 21.7246 6.8741 21.7305C5.7491 21.918 4.64754 22.1816 3.59285 22.627C2.79012 22.9727 2.03426 23.3887 1.47762 24.0918C0.838948 24.9062 0.827229 25.8613 1.4952 26.6523C1.78231 26.9922 2.13973 27.3027 2.52059 27.543C3.75692 28.334 5.15145 28.6973 6.58114 28.9492C8.86043 29.3594 11.1456 29.3887 13.4366 29.1074C14.8956 28.9258 16.3194 28.6152 17.6671 28.0059C18.335 27.7012 18.9561 27.332 19.4483 26.7754C20.2218 25.8965 20.2452 24.8418 19.4483 23.9805C19.1261 23.6289 18.7335 23.3301 18.3233 23.0781C17.3975 22.5098 16.3604 22.1992 15.2999 21.959C15.0292 21.8996 14.7561 21.8474 14.4732 21.7932C14.3092 21.7618 14.1419 21.7297 13.9698 21.6953C14.1983 21.4023 14.4034 21.1387 14.6085 20.875C14.8789 20.5237 15.1523 20.1744 15.4258 19.8248L15.4259 19.8247L15.426 19.8245L15.4261 19.8245C16.4208 18.5534 17.4171 17.2803 18.2764 15.9063C19.5479 13.8848 20.2042 11.7109 19.9932 9.29688C19.6534 5.38281 16.8292 1.99023 13.0264 0.982422C12.6129 0.868904 12.1854 0.800269 11.7593 0.731876ZM10.5919 24.3013C10.5678 24.3293 10.5415 24.36 10.5128 24.3965C10.3487 24.168 10.1964 23.957 10.044 23.7578C9.49994 23.0488 8.95525 22.341 8.41074 21.6335C7.27227 20.1541 6.1346 18.6758 5.00496 17.1895C4.10262 16 3.25887 14.7695 2.71395 13.3633C0.92098 8.76953 3.27059 3.71875 7.92879 2.16602C12.7745 0.548828 18.0479 3.79492 18.8097 8.8457C19.1671 11.207 18.6046 13.3633 17.3038 15.3086C16.5154 16.4934 15.6543 17.6332 14.795 18.7705L14.7949 18.7708C14.5366 19.1126 14.2785 19.4543 14.0225 19.7969C13.2731 20.7961 12.5156 21.7873 11.7574 22.7795C11.3952 23.2535 11.0328 23.7277 10.671 24.2031C10.6482 24.2356 10.6219 24.2663 10.5919 24.3013ZM10.9876 28.1634L10.9873 28.1635C10.8068 28.172 10.6444 28.1798 10.5069 28.1875C8.09285 28.1055 6.05379 27.8945 4.12606 27.0977C3.59285 26.875 3.06551 26.5762 2.61434 26.2188C1.93465 25.6797 1.95223 25.1055 2.59676 24.5254C3.29989 23.8926 4.16121 23.5469 5.05184 23.3066C5.60445 23.158 6.16945 23.0466 6.73395 22.9352C7.03734 22.8754 7.34059 22.8155 7.64168 22.75C7.8116 22.7148 7.91707 22.7676 8.01668 22.9082C8.44227 23.4939 8.87306 24.0795 9.30385 24.6652L9.30421 24.6657L9.30444 24.666C9.51994 24.959 9.73543 25.252 9.95028 25.5449C10.3253 26.0547 10.6944 26.0547 11.0753 25.5391C11.7198 24.6602 12.3643 23.7813 13.0206 22.9082C13.085 22.8262 13.2374 22.7383 13.3311 22.75C14.7843 22.9492 16.2198 23.2363 17.5323 23.9277C17.8839 24.1152 18.2179 24.3496 18.5108 24.6191C19.0499 25.1113 19.0382 25.6211 18.5167 26.1426C18.0245 26.6348 17.4093 26.9219 16.7706 27.168C15.4874 27.666 14.1456 27.9297 12.7745 28.0527C12.1363 28.1088 11.4918 28.1395 10.9881 28.1634L10.9877 28.1634H10.9876ZM10.542 14.0723C12.6924 14.0606 14.4443 12.2969 14.4385 10.1406C14.4326 7.98439 12.6689 6.23244 10.5186 6.2383C8.3623 6.2383 6.60449 7.99611 6.60449 10.1524C6.60449 12.3203 8.37402 14.0781 10.542 14.0723ZM10.5244 7.35158C12.0596 7.35744 13.3135 8.61134 13.3193 10.1465C13.3193 11.6817 12.0654 12.9414 10.5361 12.9473C8.99512 12.9531 7.73535 11.7051 7.72363 10.1699C7.71777 8.62306 8.97754 7.35158 10.5244 7.35158ZM17.7962 9.91803C17.7962 9.95761 17.797 9.99348 17.7976 10.027C17.7989 10.0877 17.8 10.1406 17.7962 10.1934C17.7786 10.5157 17.5501 10.7501 17.2513 10.7559C16.9466 10.7618 16.6888 10.5157 16.6829 10.1876C16.6771 9.45514 16.5657 8.7403 16.3079 8.04889C15.6458 6.29108 14.4388 5.07233 12.6927 4.38678C12.3529 4.25202 12.1947 4.04694 12.2181 3.77741C12.2532 3.37897 12.6341 3.16803 13.0501 3.32623C14.6907 3.94733 15.9505 5.01373 16.8294 6.53131C17.4447 7.59186 17.7493 8.73444 17.7962 9.91803ZM10.0146 3.40245C10.0029 3.71886 10.2431 3.98253 10.5536 3.99425C10.8583 4.00597 11.1279 3.7423 11.1337 3.43761C11.1337 3.13878 10.8876 2.88683 10.5888 2.87511C10.2841 2.86925 10.0321 3.10362 10.0146 3.40245Z" fill="white"/>
</svg>