<svg xmlns="http://www.w3.org/2000/svg" width="40" height="58" viewBox="0 0 40 58" fill="none">
<path fill-rule="evenodd" clip-rule="evenodd" d="M37.3895 0.283789C38.6914 0.777148 39.1016 1.73809 39.1016 3.09395C39.075 19.6971 39.075 36.3006 39.1016 52.9045C39.1016 54.715 37.9941 55.6291 36.3863 55.6092C32.9368 55.5663 29.4873 55.5741 26.0379 55.5819L26.0328 55.5819C24.6793 55.585 23.3258 55.5881 21.9723 55.5881H21.2598C21.2598 55.694 21.2588 55.7922 21.2578 55.8852V55.8855C21.256 56.0579 21.2544 56.2129 21.2598 56.3674C21.2832 56.8959 21.1238 57.3307 20.6328 57.5838C20.1418 57.8369 19.7023 57.7115 19.2758 57.3963C18.2574 56.6428 17.1277 56.4846 15.9254 56.8396C15.7487 56.8924 15.5825 56.9787 15.416 57.0652L15.4159 57.0652L15.4158 57.0653C15.3163 57.117 15.2166 57.1688 15.1145 57.2135C14.1922 57.6189 13.2312 57.6939 12.3441 57.2205C10.877 56.4389 9.49531 56.46 8.12539 57.4057C7.44687 57.8744 6.71914 57.8111 6.36758 57.1971C6.24926 56.993 6.21834 56.7342 6.18826 56.4824C6.1805 56.4174 6.1728 56.353 6.16367 56.29C6.1491 56.0559 6.1491 55.8211 6.16367 55.5869H4.58633C4.44008 55.5869 4.29382 55.588 4.1476 55.5891C3.78884 55.5917 3.43026 55.5944 3.07227 55.5811C1.83594 55.5342 0.927734 54.6166 0.920703 53.3768C0.907813 50.7775 0.913672 48.1783 0.920703 45.5791C0.920703 44.9744 1.25703 44.5982 1.75859 44.5982C2.26016 44.5982 2.60117 44.9756 2.60234 45.5791C2.60703 47.2369 2.60547 48.8947 2.60391 50.5525C2.60313 51.3814 2.60234 52.2104 2.60234 53.0393C2.60234 53.7775 2.71953 53.8959 3.43555 53.8982H6.13086C6.13416 53.8342 6.13783 53.7725 6.1414 53.7125C6.15052 53.5594 6.15898 53.4171 6.15898 53.2748C6.15898 52.8626 6.16069 52.4504 6.1624 52.0383V52.0382V52.0382V52.0381V52.0381V52.0381C6.16635 51.0852 6.1703 50.1324 6.15312 49.1803C6.14141 48.5229 6.39336 48.0424 6.88672 47.6287C7.75949 46.8957 8.84212 46.4582 9.97911 46.3791C11.1161 46.2999 12.2489 46.5831 13.2148 47.1881C13.3207 47.2547 13.4239 47.3245 13.5375 47.4014C13.5937 47.4393 13.6524 47.479 13.7152 47.5209C14.7067 46.7513 15.9327 46.3462 17.1875 46.3736C18.4965 46.4029 19.6227 46.8693 20.6129 47.7072C20.8249 47.8765 20.9939 48.0935 21.1062 48.3406C21.2184 48.5876 21.2706 48.8577 21.2586 49.1287C21.2453 50.0985 21.2479 51.0677 21.2506 52.0371V52.0373V52.0374V52.0375V52.0376V52.0378C21.2517 52.4329 21.2527 52.828 21.2527 53.2232V53.8631H22.6953C22.72 53.5969 22.7345 53.3317 22.7489 53.069C22.7802 52.4968 22.8108 51.9363 22.9449 51.4021C23.4137 49.5436 25.0543 48.2381 27.0395 47.9955C28.8137 47.7822 30.7145 48.7654 31.6098 50.3604C31.9145 50.9029 31.8441 51.3693 31.427 51.6494C30.984 51.94 30.5094 51.7959 30.166 51.2369C29.6703 50.4283 28.9836 49.908 28.0426 49.7311C27.5396 49.6386 27.0216 49.6733 26.5354 49.8319C26.0492 49.9905 25.6104 50.268 25.2587 50.6393C24.907 51.0105 24.6536 51.4637 24.5216 51.9577C24.3895 52.4518 24.3829 52.9709 24.5023 53.4682C24.5797 53.7904 24.7273 53.9111 25.0766 53.91C27.6447 53.9006 30.2128 53.9006 32.7813 53.9006C34.0653 53.9006 35.3494 53.9006 36.6336 53.8994C37.2512 53.8994 37.3965 53.7541 37.3965 53.1412V12.5861C37.3965 12.5009 37.3891 12.4163 37.381 12.3243C37.3771 12.2796 37.373 12.2332 37.3695 12.1842H2.60352V12.8955V40.8295C2.60352 41.7201 2.32109 42.142 1.73633 42.1268C1.17383 42.1127 0.916016 41.7131 0.916016 40.8436C0.916016 28.2615 0.910156 15.6779 0.898438 3.09277C0.898438 1.73574 1.30391 0.775977 2.60586 0.280273H27.8516C28.1961 0.581445 28.5242 0.888477 28.3203 1.41582C28.1164 1.94316 27.6852 1.98887 27.2129 1.96777C27.1253 1.96386 27.0377 1.96517 26.9505 1.96648C26.907 1.96713 26.8636 1.96777 26.8203 1.96777H3.54805C2.66797 1.96777 2.60352 2.0334 2.60352 2.9334V9.82871V10.4299H37.3438C37.363 10.3831 37.3771 10.3344 37.3859 10.2846C37.3859 7.72519 37.3891 5.16504 37.3953 2.6041C37.3953 2.11191 37.127 1.96191 36.6793 1.96426C35.8854 1.96836 35.0911 1.96836 34.2967 1.96836H34.2967C33.5023 1.96836 32.7078 1.96836 31.9133 1.97246C31.4305 1.97246 30.9992 1.90684 30.8176 1.39473C30.6359 0.882617 30.9406 0.550977 31.332 0.280273L37.3895 0.283789ZM19.5664 55.5611C19.5664 55.1104 19.5667 54.6636 19.567 54.2199V54.2198V54.2197V54.2195V54.2194V54.2192C19.5682 52.534 19.5693 50.894 19.5535 49.2541C19.5535 49.0912 19.3883 48.8861 19.2441 48.7748C18.0453 47.8502 16.2547 47.8303 14.9867 48.6869C14.8428 48.7695 14.7251 48.8908 14.647 49.0371C14.5689 49.1834 14.5335 49.3488 14.5449 49.5143C14.5587 50.7823 14.5573 52.0504 14.556 53.3185C14.5554 53.882 14.5547 54.4456 14.5555 55.0092C14.5555 55.1163 14.5671 55.2229 14.5808 55.3481C14.5875 55.4092 14.5946 55.4748 14.6012 55.5471C16.2594 54.783 17.8695 54.783 19.5664 55.5611ZM12.8516 55.5529C12.8516 55.0887 12.852 54.6297 12.8524 54.1749C12.854 52.4881 12.8555 50.8575 12.8352 49.2248C12.8352 49.0537 12.6254 48.8439 12.4602 48.7232C11.2391 47.835 9.50937 47.8396 8.2543 48.6975C8.11928 48.7757 8.00887 48.8901 7.93555 49.0278C7.86223 49.1656 7.82894 49.3211 7.83945 49.4768C7.85195 50.7213 7.85091 51.9663 7.84987 53.2112C7.84935 53.8337 7.84883 54.4561 7.85 55.0783C7.85 55.1681 7.86207 55.2579 7.87599 55.3616C7.88332 55.4161 7.89117 55.4746 7.89805 55.5389C9.55039 54.7736 11.1594 54.8006 12.8516 55.5529ZM11.2239 33.8909C10.7637 33.5895 10.3192 33.2977 9.8831 33.0115C9.3342 32.6512 8.79876 32.2998 8.2626 31.9491C7.13174 31.2108 7.01572 30.6495 7.76338 29.5046C7.81297 29.4282 7.86217 29.3517 7.91138 29.2752L7.91144 29.2751L7.91146 29.2751C8.05412 29.0533 8.19686 28.8314 8.34932 28.6128C8.9001 27.7924 9.57627 27.6483 10.406 28.1862C12.52 29.5589 14.6294 30.9362 16.7341 32.3182C16.9875 32.4838 17.2402 32.6504 17.4928 32.817L17.4935 32.8174C18.0665 33.1953 18.6394 33.573 19.2208 33.9389C19.8419 34.3292 20.1442 34.8366 20.1302 35.603C20.1057 36.9769 20.11 38.3507 20.1143 39.7249V39.7251C20.1164 40.3869 20.1184 41.0488 20.1173 41.7108C20.1173 43.0514 19.3497 43.8471 18.0079 43.8553C15.0392 43.8717 12.0704 43.8717 9.10166 43.8553C7.75283 43.8483 6.99229 43.0573 6.98643 41.7167C6.98174 39.6424 6.98174 37.569 6.98643 35.4964C6.98643 34.4417 7.47275 33.9635 8.53213 33.9553C9.09249 33.9506 9.65285 33.9491 10.2132 33.9475C10.4931 33.9467 10.773 33.946 11.0528 33.9448C11.1108 33.93 11.168 33.912 11.2239 33.8909ZM8.65986 35.6698C8.65986 36.2114 8.6608 36.7485 8.66174 37.2821V37.2822C8.66426 38.7252 8.66674 40.1433 8.65049 41.5608C8.65049 42.0296 8.80518 42.176 9.26338 42.1737C12.1228 42.1596 14.9817 42.1596 17.8403 42.1737C18.3185 42.1737 18.4427 41.9932 18.4368 41.5432C18.4232 40.3059 18.4249 39.068 18.4266 37.8303V37.8302V37.8302V37.8301V37.83V37.8299C18.4274 37.2555 18.4282 36.6812 18.4274 36.1069C18.4274 36.0105 18.4155 35.9141 18.4031 35.8137C18.3973 35.7663 18.3913 35.7181 18.3864 35.6686L8.65986 35.6698ZM14.3517 33.912L14.5028 33.8382C14.483 33.7255 14.4756 33.5984 14.4682 33.4713C14.4519 33.1924 14.4357 32.913 14.2884 32.7835C13.8631 32.4145 13.3776 32.1149 12.8923 31.8154C12.7009 31.6973 12.5096 31.5792 12.322 31.4569L12.1778 31.5272C12.1973 31.6404 12.2046 31.768 12.2118 31.8956C12.2277 32.1748 12.2436 32.454 12.3876 32.5819C12.8114 32.9546 13.2938 33.2519 13.7767 33.5494C13.9695 33.6682 14.1624 33.7871 14.3517 33.9108V33.912ZM10.4552 31.3643C10.6403 30.3214 10.5618 30.1772 9.61377 29.7671L9.14502 30.5089L10.4552 31.3643ZM11.3574 19.5729L16.0157 18.5428C16.0156 18.7311 16.025 18.9192 16.0438 19.1065C16.1235 19.6057 15.9535 19.8577 15.4297 20.0042C15.0203 20.1142 14.6412 20.3159 14.3212 20.594C14.0013 20.8722 13.7488 21.2195 13.5828 21.6096C13.018 22.8577 13.6567 24.1128 14.9891 24.4151C16.3215 24.7174 17.8895 23.9628 18.4555 22.7253C18.8094 21.9506 18.8176 21.1538 18.1895 20.5385C18.0123 20.3814 17.8767 20.1829 17.7949 19.9606C17.7131 19.7383 17.6876 19.4992 17.7207 19.2647C17.7327 19.1295 17.7294 18.9927 17.7261 18.8558C17.7227 18.7115 17.7192 18.567 17.7336 18.4245C17.7419 18.2656 17.8062 18.1149 17.9153 17.9991C18.3957 17.6065 18.5434 17.0874 18.5328 16.5085C18.5276 16.2191 18.5302 15.9294 18.5328 15.6397V15.6395C18.5355 15.3498 18.5381 15.06 18.5328 14.7706C18.5153 13.7862 17.8778 13.219 16.9168 13.4217C14.5977 13.9151 12.2844 14.4331 9.97581 14.9698C9.25276 15.1385 8.88831 15.6495 8.87073 16.3995C8.86761 16.5412 8.86301 16.6833 8.8584 16.8254C8.84055 17.3769 8.82264 17.93 8.89065 18.4713C8.9293 18.7478 9.08422 19.0104 9.23835 19.2716L9.23836 19.2716C9.2992 19.3747 9.35991 19.4776 9.41331 19.5811C9.44128 19.6352 9.48427 19.6859 9.52649 19.7358C9.59042 19.8112 9.65258 19.8846 9.65823 19.9643C9.68032 20.2973 9.67654 20.6322 9.67279 20.9645C9.67137 21.0905 9.66995 21.2162 9.66995 21.3413C8.59065 21.6085 7.73518 22.1018 7.25706 23.0862C6.67464 24.2897 7.26057 25.5717 8.53557 25.9303C9.9301 26.3229 11.6598 25.4569 12.1813 24.1046C12.5199 23.2245 12.3266 22.4581 11.634 21.8182C11.511 21.7057 11.3774 21.5311 11.3703 21.3788C11.3481 20.9468 11.3515 20.5129 11.3549 20.0693C11.3562 19.9053 11.3574 19.74 11.3574 19.5729ZM10.5793 16.553L16.8254 15.162V16.628L10.5793 18.0131V16.553ZM15.6916 22.9136C15.8036 22.8403 15.9217 22.7707 16.041 22.7004L16.041 22.7004C16.3185 22.5368 16.602 22.3696 16.8289 22.1452C17.1535 21.8241 16.9907 21.5089 16.5278 21.4924C16.276 21.4811 16.0256 21.5341 15.8 21.6465C15.5745 21.7588 15.3813 21.9269 15.2387 22.1346C15.1508 22.2518 15.0723 22.4862 15.1297 22.5788C15.1793 22.6668 15.2911 22.719 15.4429 22.7899C15.5171 22.8245 15.6009 22.8636 15.6916 22.9136ZM10.4352 23.7495C10.0917 23.9948 9.73359 24.219 9.36292 24.421H9.36057C9.26737 24.3758 9.17487 24.3404 9.09245 24.3088C8.93758 24.2495 8.81832 24.2038 8.7969 24.1327C8.75471 23.9721 8.82854 23.678 8.94573 23.5995C9.31284 23.3695 9.70629 23.1846 10.1176 23.0487C10.25 23.003 10.5629 23.1225 10.5864 23.2174C10.6042 23.3118 10.5999 23.409 10.5737 23.5013C10.5474 23.5937 10.5 23.6786 10.4352 23.7495ZM30.4965 32.9266C30.5879 32.8292 30.6775 32.7324 30.7664 32.6363C30.961 32.4259 31.152 32.2194 31.3508 32.0207C31.7516 31.6199 32.2367 31.5895 32.593 31.9258C32.6832 32.0029 32.7552 32.0991 32.8036 32.2075C32.8521 32.3159 32.8758 32.4337 32.8731 32.5524C32.8704 32.6711 32.8414 32.7877 32.7881 32.8937C32.7347 32.9998 32.6585 33.0927 32.5648 33.1656C31.8324 33.8066 31.6695 34.3902 32.034 35.3922C32.7313 37.3152 31.8055 39.4844 30.0711 40.6117C29.4436 41.0199 28.7286 41.2741 27.9843 41.3537C27.24 41.4332 26.4875 41.3359 25.7879 41.0695C25.0884 40.8032 24.4616 40.3754 23.9587 39.8209C23.4558 39.2665 23.0909 38.6012 22.8938 37.879C22.6967 37.1569 22.6729 36.3984 22.8245 35.6654C22.976 34.9323 23.2985 34.2454 23.7657 33.6606C24.2329 33.0758 24.8317 32.6096 25.5132 32.3C26.1947 31.9904 26.9397 31.8461 27.6875 31.8789C28.7328 31.9234 29.648 32.2984 30.4965 32.9266ZM30.2422 35.5762C30.1489 35.7347 30.0447 35.8867 29.9305 36.0309C29.4915 36.5133 29.0476 36.9907 28.6038 37.4681C28.4373 37.6472 28.2709 37.8262 28.1047 38.0055C27.7531 38.3852 27.3348 38.4859 26.9047 38.1812C26.4947 37.8876 26.1072 37.5637 25.7457 37.2121C25.4059 36.8805 25.3859 36.4703 25.6895 36.1012C25.993 35.732 26.3867 35.6945 26.7945 35.9336C26.914 36.0038 27.024 36.0878 27.1405 36.1768C27.2068 36.2275 27.2753 36.2797 27.3488 36.332L29.3023 34.2227C28.2758 33.318 26.6211 33.3496 25.5242 34.2707C24.9561 34.7449 24.5786 35.4086 24.4614 36.1393C24.3442 36.87 24.4952 37.6185 24.8865 38.2466C25.2778 38.8748 25.883 39.3402 26.5905 39.5571C27.2981 39.7741 28.0602 39.7278 28.7363 39.4269C30.1578 38.7977 30.8434 37.2555 30.2422 35.5762ZM24.8391 24.2948C25.6186 24.8191 26.5361 25.1003 27.4755 25.1029C28.7312 25.102 29.9358 24.6054 30.8273 23.721C31.7187 22.8366 32.2249 21.6359 32.2357 20.3803C32.2405 19.4409 31.9666 18.5211 31.4485 17.7375C30.9304 16.9539 30.1914 16.3416 29.3252 15.9781C28.4589 15.6146 27.5043 15.5164 26.5822 15.6957C25.66 15.8751 24.8118 16.324 24.145 16.9856C23.4781 17.6472 23.0225 18.4918 22.8358 19.4125C22.6492 20.3332 22.7399 21.2886 23.0965 22.1577C23.4531 23.0268 24.0596 23.7706 24.8391 24.2948ZM29.1819 22.8879C28.6817 23.2264 28.0924 23.4091 27.4884 23.4131C27.0851 23.4171 26.6851 23.341 26.3114 23.1893C25.9378 23.0375 25.598 22.8131 25.3117 22.529C25.0255 22.245 24.7985 21.9069 24.6438 21.5344C24.4892 21.1619 24.4101 20.7625 24.4111 20.3592C24.4104 19.7552 24.5886 19.1645 24.9233 18.6617C25.2579 18.1589 25.734 17.7664 26.2915 17.5339C26.8489 17.3014 27.4628 17.2392 28.0555 17.3552C28.6483 17.4711 29.1934 17.7601 29.6221 18.1855C30.0509 18.611 30.344 19.1539 30.4645 19.7458C30.585 20.3376 30.5274 20.9519 30.2992 21.5111C30.0709 22.0703 29.6822 22.5494 29.1819 22.8879ZM8.07134 3.63695C8.2956 3.63695 8.51986 3.63603 8.74408 3.63512H8.74412C9.19241 3.6333 9.64053 3.63148 10.0881 3.63695C10.6624 3.64632 11.0151 3.96624 11.0256 4.45726C11.0362 4.94827 10.6834 5.31156 10.1221 5.31742C8.74087 5.33382 7.35884 5.33382 5.97602 5.31742C5.41352 5.31742 5.06665 4.95413 5.07134 4.46077C5.07602 3.96742 5.4229 3.64867 6.00063 3.64046C6.48873 3.63216 6.97801 3.63386 7.46722 3.63555C7.66863 3.63625 7.87003 3.63695 8.07134 3.63695ZM7.39102 8.68626C7.61511 8.68522 7.83924 8.68418 8.0635 8.68418C8.29415 8.68378 8.5248 8.68503 8.75539 8.68628C9.19731 8.68868 9.63906 8.69108 10.0803 8.68184C10.6791 8.66777 11.0412 8.31387 11.0237 7.80293C11.0108 7.31426 10.6592 7.00137 10.0733 7.00137C8.72796 6.99434 7.38342 6.99434 6.03967 7.00137C5.42092 7.00605 5.06585 7.32715 5.06936 7.83926C5.07288 8.35137 5.43147 8.67363 6.04671 8.68418C6.4951 8.69043 6.94297 8.68835 7.39102 8.68626Z" fill="#04122D"/>
</svg>