<svg xmlns="http://www.w3.org/2000/svg" width="48" height="50" viewBox="0 0 48 50" fill="none">
<path fill-rule="evenodd" clip-rule="evenodd" d="M37.5397 7.60038H46.8833C46.9711 7.60036 47.0581 7.61787 47.1391 7.65187C47.2201 7.68588 47.2935 7.73571 47.355 7.79843C47.4164 7.86115 47.4648 7.93551 47.4972 8.01716C47.5296 8.0988 47.5454 8.18609 47.5436 8.27391V18.6675C47.5436 18.8426 47.4741 19.0106 47.3502 19.1344C47.2264 19.2582 47.0584 19.3278 46.8833 19.3278H37.5397V46.1966C37.5397 46.696 37.4413 47.1906 37.2501 47.6521C37.059 48.1136 36.7788 48.5328 36.4256 48.886C36.0725 49.2392 35.6532 49.5194 35.1917 49.7105C34.7302 49.9017 34.2356 50.0001 33.7362 50.0001H13.715C12.7057 50.0001 11.7375 49.5995 11.0232 48.8864C10.3089 48.1733 9.90667 47.2059 9.90492 46.1966V30.8505H0.660328C0.485198 30.8505 0.317241 30.781 0.193406 30.6571C0.0695702 30.5333 0 30.3653 0 30.1902V19.7966C0 19.6215 0.0695702 19.4536 0.193406 19.3297C0.317241 19.2059 0.485198 19.1363 0.660328 19.1363H9.93794V3.80349C9.93969 2.79414 10.3419 1.82672 11.0562 1.11361C11.7706 0.400511 12.7387 0 13.748 0H33.7362C34.7449 0 35.7123 0.400724 36.4256 1.11402C37.1389 1.82731 37.5397 2.79474 37.5397 3.80349V7.60038ZM15.9733 20.49H1.35367V29.5101H15.9733V20.49ZM35.4665 47.9269C35.9256 47.4679 36.1842 46.8458 36.186 46.1966V19.3146H30.9034C30.7282 19.3146 30.5603 19.245 30.4364 19.1212C30.3126 18.9974 30.243 18.8294 30.243 18.6543V8.2607C30.243 8.08558 30.3126 7.91762 30.4364 7.79378C30.5603 7.66995 30.7282 7.60038 30.9034 7.60038H36.186V3.80349C36.186 3.15376 35.9279 2.53064 35.4684 2.07121C35.009 1.61178 34.3859 1.35367 33.7362 1.35367H13.748C13.0983 1.35367 12.4752 1.61178 12.0157 2.07121C11.5563 2.53064 11.2982 3.15376 11.2982 3.80349V19.1495H16.6469C16.822 19.1495 16.99 19.2191 17.1138 19.3429C17.2376 19.4668 17.3072 19.6347 17.3072 19.8098V30.2034C17.3072 30.3785 17.2376 30.5465 17.1138 30.6703C16.99 30.7942 16.822 30.8637 16.6469 30.8637H11.2982V46.1966C11.3 46.8458 11.5586 47.4679 12.0177 47.9269C12.4767 48.386 13.0988 48.6446 13.748 48.6464H33.7362C34.3854 48.6446 35.0075 48.386 35.4665 47.9269ZM31.5703 17.9741H46.223V8.95405H31.5703V17.9741ZM21.5467 5.67214H19.8101C19.6297 5.67214 19.4567 5.60048 19.3291 5.47293C19.2016 5.34538 19.1299 5.17239 19.1299 4.992C19.1299 4.81162 19.2016 4.63862 19.3291 4.51107C19.4567 4.38352 19.6297 4.31187 19.8101 4.31187H21.5467C21.7271 4.31187 21.9001 4.38352 22.0276 4.51107C22.1552 4.63862 22.2269 4.81162 22.2269 4.992C22.2269 5.17239 22.1552 5.34538 22.0276 5.47293C21.9001 5.60048 21.7271 5.67214 21.5467 5.67214ZM27.7732 5.67214H23.8112C23.6308 5.67214 23.4578 5.60048 23.3303 5.47293C23.2027 5.34538 23.1311 5.17239 23.1311 4.992C23.1311 4.81162 23.2027 4.63862 23.3303 4.51107C23.4578 4.38352 23.6308 4.31187 23.8112 4.31187H27.7732C27.9536 4.31187 28.1266 4.38352 28.2541 4.51107C28.3817 4.63862 28.4533 4.81162 28.4533 4.992C28.4533 5.17239 28.3817 5.34538 28.2541 5.47293C28.1266 5.60048 27.9536 5.67214 27.7732 5.67214ZM26.519 42.776H20.9656C20.6259 42.776 20.3 42.9109 20.0598 43.1512C19.8195 43.3914 19.6846 43.7173 19.6846 44.057V45.4701C19.6793 45.6417 19.7085 45.8125 19.7705 45.9725C19.8325 46.1326 19.926 46.2785 20.0455 46.4017C20.165 46.5249 20.308 46.6228 20.4661 46.6896C20.6241 46.7565 20.794 46.7909 20.9656 46.7908H26.519C26.69 46.79 26.8592 46.7549 27.0165 46.6877C27.1738 46.6205 27.316 46.5224 27.4348 46.3993C27.5536 46.2762 27.6465 46.1306 27.7081 45.971C27.7697 45.8114 27.7987 45.6411 27.7934 45.4701V44.057C27.7934 43.7184 27.6594 43.3936 27.4205 43.1535C27.1817 42.9135 26.8576 42.7777 26.519 42.776ZM26.4397 45.4173L21.0449 45.4701L20.9656 44.1495L26.4133 44.057L26.4397 45.4173ZM24.1812 10.7501H15.2536C15.0741 10.7501 14.9019 10.6788 14.775 10.5518C14.6481 10.4249 14.5767 10.2527 14.5767 10.0732C14.5767 9.89372 14.6481 9.72156 14.775 9.59463C14.9019 9.4677 15.0741 9.39639 15.2536 9.39639H24.1812C24.3607 9.39639 24.5329 9.4677 24.6598 9.59463C24.7867 9.72156 24.8581 9.89372 24.8581 10.0732C24.8581 10.2527 24.7867 10.4249 24.6598 10.5518C24.5329 10.6788 24.3607 10.7501 24.1812 10.7501ZM24.8614 14.1905C24.8614 14.0153 24.7918 13.8474 24.6679 13.7236C24.5441 13.5997 24.3762 13.5302 24.201 13.5302H15.2536C15.0741 13.5302 14.9019 13.6015 14.775 13.7284C14.6481 13.8553 14.5767 14.0275 14.5767 14.207C14.5767 14.3865 14.6481 14.5587 14.775 14.6856C14.9019 14.8125 15.0741 14.8838 15.2536 14.8838H24.1812C24.2724 14.8867 24.3633 14.8706 24.4479 14.8366C24.5326 14.8026 24.6094 14.7514 24.6733 14.6862C24.7372 14.6211 24.7869 14.5434 24.8193 14.4581C24.8516 14.3727 24.866 14.2816 24.8614 14.1905ZM24.1814 35.2153H15.2538C15.0734 35.2153 14.9004 35.1436 14.7729 35.016C14.6453 34.8885 14.5736 34.7155 14.5736 34.5351C14.5736 34.3547 14.6453 34.1817 14.7729 34.0542C14.9004 33.9266 15.0734 33.855 15.2538 33.855H24.1814C24.3618 33.855 24.5348 33.9266 24.6624 34.0542C24.7899 34.1817 24.8616 34.3547 24.8616 34.5351C24.8616 34.7155 24.7899 34.8885 24.6624 35.016C24.5348 35.1436 24.3618 35.2153 24.1814 35.2153ZM24.8616 38.6556C24.8616 38.4805 24.792 38.3126 24.6682 38.1887C24.5443 38.0649 24.3764 37.9953 24.2012 37.9953H15.2538C15.0734 37.9953 14.9004 38.067 14.7729 38.1945C14.6453 38.3221 14.5736 38.4951 14.5736 38.6754C14.5736 38.8558 14.6453 39.0288 14.7729 39.1564C14.9004 39.2839 15.0734 39.3556 15.2538 39.3556H24.1814C24.2732 39.3585 24.3646 39.3423 24.4498 39.3078C24.535 39.2734 24.612 39.2216 24.676 39.1558C24.74 39.0899 24.7896 39.0114 24.8215 38.9253C24.8535 38.8392 24.8671 38.7473 24.8616 38.6556ZM22.6446 23.4859C22.5207 23.3621 22.4512 23.1941 22.4512 23.019C22.4512 22.8439 22.5207 22.6759 22.6446 22.5521C22.7684 22.4283 22.9364 22.3587 23.1115 22.3587H32.0325C32.2076 22.3587 32.3756 22.4283 32.4994 22.5521C32.6233 22.6759 32.6928 22.8439 32.6928 23.019C32.6928 23.1941 32.6233 23.3621 32.4994 23.4859C32.3756 23.6098 32.2076 23.6793 32.0325 23.6793H23.1115C22.9364 23.6793 22.7684 23.6098 22.6446 23.4859ZM32.0325 26.4527H23.1115C22.9364 26.4527 22.7684 26.5223 22.6446 26.6461C22.5207 26.77 22.4512 26.9379 22.4512 27.1131C22.4512 27.2882 22.5207 27.4561 22.6446 27.58C22.7684 27.7038 22.9364 27.7734 23.1115 27.7734H32.0325C32.2076 27.7734 32.3756 27.7038 32.4994 27.58C32.6233 27.4561 32.6928 27.2882 32.6928 27.1131C32.6928 26.9379 32.6233 26.77 32.4994 26.6461C32.3756 26.5223 32.2076 26.4527 32.0325 26.4527ZM4.99208 25.1122L6.60328 23.468C6.73025 23.3411 6.80158 23.1689 6.80158 22.9893C6.80158 22.8097 6.73025 22.6375 6.60328 22.5106C6.47631 22.3836 6.30411 22.3123 6.12454 22.3123C5.94498 22.3123 5.77278 22.3836 5.64581 22.5106L3.55257 24.6302C3.48763 24.6919 3.43593 24.7662 3.40059 24.8485C3.36526 24.9308 3.34704 25.0194 3.34704 25.1089C3.34704 25.1985 3.36526 25.2871 3.40059 25.3694C3.43593 25.4517 3.48763 25.526 3.55257 25.5877L5.68543 27.7205C5.8124 27.8475 5.9846 27.9188 6.16416 27.9188C6.34373 27.9188 6.51593 27.8475 6.6429 27.7205C6.76987 27.5936 6.8412 27.4214 6.8412 27.2418C6.8412 27.0622 6.76987 26.89 6.6429 26.7631L4.99208 25.1122ZM11.1594 27.8394C10.9793 27.8378 10.8066 27.7669 10.6774 27.6413C10.6125 27.5796 10.5608 27.5053 10.5254 27.423C10.4901 27.3407 10.4719 27.2521 10.4719 27.1625C10.4719 27.073 10.4901 26.9843 10.5254 26.902C10.5608 26.8197 10.6125 26.7455 10.6774 26.6838L12.3348 25.0264L10.6906 23.3887C10.6257 23.3271 10.574 23.2528 10.5386 23.1705C10.5033 23.0882 10.4851 22.9996 10.4851 22.91C10.4851 22.8204 10.5033 22.7318 10.5386 22.6495C10.574 22.5672 10.6257 22.493 10.6906 22.4313C10.7524 22.3653 10.827 22.3127 10.9099 22.2767C10.9929 22.2408 11.0823 22.2222 11.1727 22.2222C11.263 22.2222 11.3524 22.2408 11.4354 22.2767C11.5183 22.3127 11.5929 22.3653 11.6547 22.4313L13.7743 24.5509C13.8393 24.6126 13.891 24.6869 13.9263 24.7692C13.9617 24.8515 13.9799 24.9401 13.9799 25.0297C13.9799 25.1192 13.9617 25.2079 13.9263 25.2902C13.891 25.3725 13.8393 25.4467 13.7743 25.5084L11.6415 27.6413C11.5788 27.7052 11.5037 27.7558 11.4208 27.7899C11.338 27.8239 11.249 27.8408 11.1594 27.8394ZM9.24471 21.6984C9.15642 21.6804 9.06539 21.6806 8.97721 21.6991C8.88903 21.7176 8.80556 21.754 8.73196 21.8059C8.65835 21.8579 8.59615 21.9244 8.54919 22.0013C8.50224 22.0782 8.47151 22.1639 8.45891 22.2531L7.54106 27.6413C7.52306 27.7296 7.52331 27.8207 7.5418 27.9088C7.5603 27.997 7.59664 28.0805 7.6486 28.1541C7.70056 28.2277 7.76704 28.2899 7.84393 28.3369C7.92083 28.3838 8.00652 28.4145 8.09574 28.4271H8.20799C8.36822 28.4287 8.52356 28.372 8.64505 28.2675C8.76654 28.163 8.84589 28.0179 8.86832 27.8593L9.78617 22.4578C9.81484 22.2853 9.77393 22.1085 9.67243 21.9661C9.57092 21.8238 9.4171 21.7275 9.24471 21.6984ZM34.073 13.0415L36.1927 10.9218C36.2544 10.8569 36.3286 10.8052 36.4109 10.7698C36.4932 10.7345 36.5818 10.7163 36.6714 10.7163C36.761 10.7163 36.8496 10.7345 36.9319 10.7698C37.0142 10.8052 37.0885 10.8569 37.1501 10.9218C37.2151 10.9835 37.2668 11.0577 37.3021 11.14C37.3375 11.2223 37.3557 11.311 37.3557 11.4005C37.3557 11.4901 37.3375 11.5787 37.3021 11.661C37.2668 11.7433 37.2151 11.8176 37.1501 11.8793L35.5125 13.5169L37.1634 15.1743C37.2283 15.236 37.28 15.3103 37.3153 15.3926C37.3507 15.4749 37.3689 15.5635 37.3689 15.6531C37.3689 15.7426 37.3507 15.8312 37.3153 15.9136C37.28 15.9959 37.2283 16.0701 37.1634 16.1318C37.1017 16.1967 37.0274 16.2484 36.9451 16.2838C36.8628 16.3191 36.7742 16.3373 36.6846 16.3373C36.5951 16.3373 36.5064 16.3191 36.4241 16.2838C36.3418 16.2484 36.2676 16.1967 36.2059 16.1318L34.073 13.9989C34.009 13.9362 33.9585 13.8612 33.9244 13.7783C33.8903 13.6954 33.8735 13.6065 33.8749 13.5169C33.8744 13.4284 33.8917 13.3407 33.9257 13.2591C33.9597 13.1774 34.0098 13.1034 34.073 13.0415ZM41.1978 16.0723C41.2595 16.1373 41.3337 16.189 41.416 16.2243C41.4984 16.2596 41.587 16.2779 41.6765 16.2779C41.7661 16.2779 41.8547 16.2596 41.937 16.2243C42.0193 16.189 42.0936 16.1373 42.1553 16.0723L44.2881 13.9329C44.3531 13.8712 44.4048 13.7969 44.4401 13.7146C44.4754 13.6323 44.4937 13.5437 44.4937 13.4541C44.4937 13.3646 44.4754 13.2759 44.4401 13.1936C44.4048 13.1113 44.3531 13.0371 44.2881 12.9754L42.1685 10.8557C42.0441 10.7288 41.8745 10.6564 41.6968 10.6545C41.5191 10.6527 41.3479 10.7215 41.2209 10.8458C41.094 10.9702 41.0216 11.1399 41.0197 11.3176C41.0179 11.4953 41.0867 11.6664 41.211 11.7934L42.8552 13.4376L41.1978 15.095C41.1297 15.1569 41.0753 15.2324 41.0381 15.3165C41.0009 15.4007 40.9816 15.4917 40.9816 15.5837C40.9816 15.6757 41.0009 15.7667 41.0381 15.8509C41.0753 15.935 41.1297 16.0104 41.1978 16.0723ZM38.7282 16.8317H38.6093C38.5195 16.8199 38.4331 16.7898 38.3554 16.7432C38.2778 16.6966 38.2105 16.6345 38.1579 16.5608C38.1053 16.4871 38.0683 16.4034 38.0494 16.3148C38.0305 16.2262 38.0301 16.1347 38.048 16.0459L38.9659 10.6444C38.9785 10.5552 39.0092 10.4695 39.0562 10.3926C39.1031 10.3157 39.1653 10.2493 39.2389 10.1973C39.3125 10.1454 39.396 10.109 39.4842 10.0905C39.5724 10.072 39.6634 10.0718 39.7517 10.0898C39.8402 10.1025 39.9253 10.133 40.0016 10.1795C40.078 10.2261 40.1442 10.2876 40.196 10.3605C40.2479 10.4333 40.2844 10.516 40.3034 10.6034C40.3224 10.6908 40.3234 10.7811 40.3064 10.869L39.3885 16.2704C39.3646 16.4279 39.2847 16.5714 39.1633 16.6746C39.042 16.7777 38.8874 16.8335 38.7282 16.8317Z" fill="#04122D"/>
</svg>