<svg xmlns="http://www.w3.org/2000/svg" width="46" height="58" viewBox="0 0 46 58" fill="none">
  <path fill-rule="evenodd" clip-rule="evenodd" d="M28.8668 0.4766L28.8669 0.476607L28.8669 0.476623C29.0018 0.523971 29.1368 0.571378 29.2725 0.614648C30.0701 0.857141 30.7759 1.33478 31.2976 1.98505C31.8193 2.63533 32.1325 3.42795 32.1963 4.25918C32.2186 4.53691 32.2256 4.81699 32.2256 5.0959V26.0818C32.2339 26.3047 32.2221 26.5279 32.1904 26.7486C32.168 26.9468 32.0688 27.1283 31.9142 27.2543C31.7595 27.3802 31.5617 27.4406 31.3631 27.4225C31.1735 27.4302 30.988 27.3661 30.8437 27.2429C30.6994 27.1197 30.607 26.9465 30.585 26.758C30.5517 26.5189 30.5396 26.2774 30.5486 26.0361V9.57129V8.82363H3.74199V35.7768H30.5182C30.5214 35.7112 30.5252 35.6471 30.5289 35.584L30.5289 35.5838C30.5374 35.4417 30.5455 35.3045 30.5463 35.1674V30.201C30.5463 29.3807 30.8498 29.0959 31.6654 29.1123C35.3721 29.1826 38.6369 32.2705 38.8877 35.9678C38.9355 36.6777 38.9346 37.3917 38.9336 38.1051V38.1052C38.9334 38.2478 38.9332 38.3905 38.9334 38.533C38.9381 42.0314 38.9381 45.5291 38.9334 49.026C38.9334 49.0797 38.9303 49.137 38.9271 49.195C38.9171 49.3772 38.9067 49.567 38.992 49.6799C39.183 49.9342 39.4607 50.2178 39.749 50.2869C40.1428 50.3795 40.4521 50.1018 40.56 49.6893C40.6003 49.4888 40.6161 49.2842 40.6068 49.0799V31.3846V30.7799H39.8369C38.3756 30.7576 37.3232 29.7732 37.2588 28.3189C37.2304 27.6175 37.2359 26.9144 37.2414 26.2115V26.2114C37.2437 25.9278 37.2459 25.6444 37.2459 25.3611V19.3846C37.2459 17.3842 38.1728 16.442 40.1662 16.4045C40.2359 16.4045 40.3051 16.3994 40.3963 16.3928C40.4508 16.3888 40.5131 16.3843 40.5881 16.3799C40.5881 16.1846 40.5893 15.9894 40.5904 15.7944C40.5938 15.2354 40.5972 14.6773 40.5729 14.1205C40.5729 13.9916 40.4344 13.8575 40.3144 13.7413C40.3036 13.7309 40.293 13.7206 40.2827 13.7105C40.2741 13.7021 40.2657 13.6939 40.2576 13.6857C39.5156 12.9424 38.7718 12.2009 38.028 11.4594L38.0277 11.4591C36.9119 10.3468 35.796 9.23447 34.6865 8.11582C33.4959 6.91348 33.6482 5.10996 34.9924 4.1959C35.9369 3.55371 37.2096 3.58066 38.0393 4.3916C40.2525 6.5502 42.44 8.73496 44.6018 10.9459C45.4127 11.7662 45.6436 12.842 45.6412 13.9799C45.6342 16.3369 45.6365 18.6933 45.6389 21.05C45.64 22.2284 45.6412 23.4068 45.6412 24.5854V49.0869C45.6412 51.6943 44.5748 53.6572 42.19 54.7939C38.5455 56.5377 34.1393 53.9596 33.9588 49.9189C33.8685 47.89 33.8817 45.8565 33.8949 43.8228C33.9005 42.9528 33.9062 42.0828 33.9037 41.2131C33.9037 40.7232 33.905 40.2334 33.9063 39.7436C33.9089 38.7639 33.9115 37.7842 33.9037 36.8045C33.8896 35.5529 33.3236 34.7057 32.2631 34.3576C32.2594 34.424 32.2548 34.4888 32.2503 34.5525L32.2503 34.5528C32.2407 34.6893 32.2314 34.8208 32.2314 34.9518V52.142C32.2314 52.476 32.2736 52.7068 32.624 52.8979C33.1126 53.1621 33.4974 53.5837 33.7159 54.0944C33.9344 54.605 33.9737 55.1745 33.8275 55.7104C33.6873 56.2473 33.3721 56.7222 32.9317 57.0599C32.4913 57.3975 31.9508 57.5787 31.3959 57.5748C29.556 57.5834 27.716 57.5805 25.8765 57.5777C24.9568 57.5762 24.0372 57.5748 23.1178 57.5748H3.03769C1.2998 57.5736 0.154882 56.3033 0.389257 54.6627C0.498241 53.9197 0.872069 53.3045 1.53301 52.9682C1.97363 52.7432 2.02754 52.4607 2.02637 52.04C2.01725 49.117 2.01806 46.194 2.01887 43.271V43.2709C2.0191 42.4358 2.01933 41.6006 2.01933 40.7654C2.01933 28.8404 2.01738 16.915 2.01348 4.98926C2.01348 3.22441 2.6416 1.83457 4.2084 0.952148C4.485 0.79499 4.79005 0.690522 5.09599 0.585748C5.24631 0.53427 5.39685 0.482717 5.54434 0.424805L28.7018 0.418945C28.7568 0.437963 28.8118 0.457277 28.8668 0.4766ZM30.5064 52.5205V37.5123H3.74316V52.5205H30.5064ZM3.71504 7.07402H30.551V4.91426C30.5416 3.08262 29.5479 2.09355 27.7139 2.09355H6.52754H6.19238C4.85527 2.13105 3.80527 3.08965 3.72559 4.42207C3.68766 5.02076 3.69696 5.62224 3.70643 6.2349V6.23492C3.71072 6.51207 3.71504 6.79151 3.71504 7.07402ZM42.2955 30.8139V31.5861V48.992C42.3102 49.3817 42.2768 49.7718 42.1959 50.1533C41.9053 51.3053 40.7756 52.0775 39.5838 51.9861C38.392 51.8947 37.3807 50.9689 37.3068 49.7666C37.253 48.8907 37.2577 48.0284 37.2624 47.1644V47.1643V47.1635C37.2642 46.8419 37.2659 46.52 37.2646 46.1971C37.2614 45.185 37.2651 44.1727 37.2688 43.1603C37.2771 40.8625 37.2855 38.5646 37.2131 36.2689C37.1393 33.9252 35.8432 32.2775 33.7373 31.2814C33.4445 31.1436 33.1268 31.0554 32.7812 30.9595L32.7811 30.9595C32.6067 30.9111 32.4252 30.8607 32.2361 30.801C32.2361 30.9682 32.2344 31.1254 32.2328 31.2752C32.2287 31.6501 32.2251 31.9791 32.2502 32.3057C32.2584 32.4229 32.426 32.5658 32.5514 32.615C34.6771 33.4412 35.5854 34.7525 35.5865 37.0424V48.9803C35.5835 49.3324 35.5991 49.6845 35.6334 50.035C35.8736 52.292 38.1588 54.0053 40.3994 53.615C42.6084 53.2295 43.9689 51.5537 43.9713 49.1818C43.9775 43.2678 43.9775 37.3541 43.9713 31.4408V30.8104L42.2955 30.8139ZM43.9361 18.085H40.1639C39.1936 18.085 38.9451 18.3357 38.9451 19.3143V26.0104V28.1877C38.9451 28.6775 39.1795 29.0701 39.6764 29.0842C40.6822 29.1135 41.6941 29.1081 42.7128 29.1026H42.7129C43.1183 29.1004 43.5249 29.0982 43.9326 29.0982L43.9361 18.085ZM17.1236 55.9014H30.9271C31.1131 55.9131 31.2998 55.9084 31.485 55.8873C31.9467 55.8029 32.2162 55.517 32.2057 55.04C32.1963 54.5889 31.9291 54.3229 31.492 54.2408C31.3256 54.2208 31.1577 54.2161 30.9904 54.2268H3.26269C3.07693 54.2137 2.8903 54.2208 2.70605 54.2479C2.29941 54.3404 2.05215 54.5994 2.03926 55.0307C2.02519 55.483 2.27363 55.7689 2.69785 55.8744C2.88173 55.905 3.06863 55.9133 3.25449 55.899L17.1236 55.9014ZM43.9713 16.3881C43.9713 16.0988 43.9695 15.8162 43.9678 15.538V15.5377C43.9645 14.9943 43.9612 14.4678 43.9713 13.9424C43.9936 13.0518 43.6771 12.3311 43.0396 11.7053C41.7561 10.4418 40.4797 9.16412 39.203 7.88626L39.2012 7.88441C38.533 7.21563 37.8648 6.54679 37.1955 5.87988C37.0956 5.76958 36.9836 5.67091 36.8615 5.58574C36.7058 5.47813 36.5178 5.42766 36.3291 5.44287C36.1405 5.45809 35.9629 5.53806 35.8265 5.66923C35.6901 5.80041 35.6032 5.97471 35.5806 6.1626C35.558 6.3505 35.6011 6.54043 35.7025 6.7002C35.8165 6.86972 35.952 7.02375 36.1057 7.1584C36.5101 7.56283 36.9142 7.96765 37.3183 8.37248L37.3184 8.37256C38.7796 9.83634 40.241 11.3003 41.7189 12.7471C42.1396 13.1596 42.3318 13.5885 42.3049 14.1721C42.2804 14.681 42.286 15.1923 42.2917 15.7086V15.7087V15.7089C42.2942 15.9343 42.2967 16.1606 42.2967 16.3881H43.9713ZM17.0894 27.4343H6.57764C5.63193 27.4343 5.37764 27.1882 5.37646 26.2542V11.6362C5.37646 10.7257 5.63662 10.4644 6.53076 10.4644H27.7229C28.5937 10.4644 28.8679 10.7257 28.8679 11.587V26.3175C28.8679 27.1729 28.5901 27.4319 27.7136 27.4319L17.0894 27.4343ZM7.06865 25.7175H27.1558V12.1847H7.06865V25.7175ZM24.3916 29.1086H17.126C14.6846 29.107 12.2428 29.107 9.80059 29.1086C9.03301 29.1098 8.74121 29.3852 8.73184 30.1375C8.7209 31.1234 8.7209 32.109 8.73184 33.0941C8.73887 33.8477 9.03301 34.1301 9.79355 34.1301H24.442C25.2213 34.1301 25.5049 33.843 25.5119 33.0449C25.5197 32.0965 25.5197 31.148 25.5119 30.1996C25.5049 29.3746 25.2283 29.1086 24.3916 29.1086ZM10.4475 30.8289H13.7486V32.4121H10.4475V30.8289ZM15.4854 30.8102H18.7666V32.4309H15.4854V30.8102ZM23.8021 32.418H20.5127V30.8242H23.8021V32.418Z" fill="#04122D"/>
</svg>