<svg xmlns="http://www.w3.org/2000/svg" width="48" height="60" viewBox="0 0 48 60" fill="none">
<path fill-rule="evenodd" clip-rule="evenodd" d="M24.2336 0.625C24.7269 0.859375 24.8781 1.27773 24.8687 1.79688C24.8605 2.18889 24.8623 2.58091 24.864 2.97278V2.97286V2.97294V2.97301V2.97309V2.97317V2.97325V2.97332V2.9734V2.97348C24.8658 3.36507 24.8675 3.75651 24.8593 4.14766C24.8465 4.80977 24.4902 5.21172 23.9769 5.19063C23.4636 5.16953 23.1625 4.79336 23.1566 4.14766C23.1484 3.75651 23.1502 3.36507 23.1519 2.97348V2.9734V2.97332V2.97325V2.97317V2.97309V2.97301V2.97294V2.97286V2.97278C23.1537 2.58091 23.1554 2.18889 23.1472 1.79688C23.1367 1.27539 23.289 0.859375 23.7824 0.625H24.2336ZM21.8229 59.3758C20.6006 58.9575 20.099 58.0868 20.1951 56.8165C20.2182 56.5102 20.2126 56.2018 20.2067 55.8714C20.2039 55.7151 20.201 55.5538 20.201 55.3856H17.808C16.1275 55.3774 15.2744 54.5266 15.2709 52.8473C15.2709 52.7429 15.2691 52.6382 15.2674 52.5335C15.2567 51.8966 15.2461 51.2587 15.6295 50.677C15.6758 50.6072 15.6188 50.4629 15.5668 50.3311C15.5516 50.2927 15.5368 50.2553 15.5252 50.2212C15.1443 49.1008 15.0822 47.9747 15.5744 46.8837C15.7326 46.5573 15.9859 46.2864 16.301 46.1067C16.6748 45.8981 16.7943 45.6672 16.7803 45.2536C16.7486 44.3372 16.7533 43.4184 16.7744 42.5008C16.8143 40.784 16.1147 39.5055 14.665 38.5727C11.7283 36.686 9.50293 34.1454 8.18457 30.9051C5.64043 24.6544 6.39746 18.7657 10.4826 13.4032C13.2389 9.78326 16.9736 7.69264 21.4596 6.95787C21.5725 6.93869 21.6863 6.92539 21.8006 6.91803C22.3678 6.8817 22.7381 7.13131 22.8318 7.60006C22.9256 8.06881 22.6045 8.48014 22.0385 8.60787C21.7605 8.67074 21.4801 8.72423 21.1997 8.77771L21.1997 8.77772C20.7118 8.87078 20.2243 8.96378 19.751 9.10592C14.7635 10.6036 11.2455 13.7817 9.46309 18.6684C6.88965 25.7372 9.35059 32.9794 15.6236 37.1489C17.5748 38.4462 18.5275 40.2122 18.4912 42.5395C18.4811 43.2229 18.4844 43.9063 18.4878 44.602V44.6021V44.6022V44.6023V44.6024V44.6025V44.6026V44.6027V44.6027V44.6028C18.4895 44.9555 18.4912 45.3113 18.4912 45.6719H29.5068C29.5068 45.4638 29.5039 45.255 29.501 45.0459V45.0457V45.0456V45.0454V45.0453V45.0451V45.0449V45.0448V45.0446V45.0445V45.0444C29.4945 44.5758 29.488 44.1055 29.5139 43.6376C29.5265 43.4118 29.5363 43.1852 29.546 42.9584L29.5461 42.9581C29.5815 42.1347 29.6171 41.3089 29.7916 40.5133C30.074 39.2243 30.8674 38.1965 31.9654 37.4524C33.7982 36.2114 35.4529 34.8051 36.7268 32.9618C38.0815 31.0108 38.9754 28.7777 39.3412 26.4309L39.3471 26.394L39.3471 26.3939C39.3636 26.2904 39.3792 26.1918 39.4033 26.0922C39.551 25.5063 39.9213 25.2192 40.4076 25.3012C40.8939 25.3833 41.1588 25.7829 41.0779 26.3876C40.8261 28.3221 40.2417 30.1986 39.3506 31.934C37.9818 34.5825 36.0881 36.7833 33.5768 38.3922C31.8787 39.4797 31.0971 40.9575 31.2225 42.9626C31.2493 43.3998 31.2439 43.837 31.2385 44.2742C31.2337 44.6573 31.2289 45.0404 31.2459 45.4235C31.2584 45.535 31.2937 45.6428 31.3495 45.7402C31.4053 45.8375 31.4806 45.9224 31.5705 45.9895C32.3275 46.47 32.7424 47.1239 32.7283 48.0251C32.7257 48.1884 32.7297 48.3527 32.7337 48.5172C32.7496 49.1705 32.7655 49.8254 32.3686 50.4227C32.3193 50.4965 32.3686 50.6723 32.4248 50.7743C32.9088 51.7575 32.8221 52.7934 32.6088 53.7989C32.4131 54.7235 31.5963 55.3083 30.6482 55.3598C30.3022 55.3786 29.955 55.3775 29.6078 55.3764C29.4777 55.376 29.3475 55.3756 29.2174 55.3762H27.7982C27.7982 55.5619 27.7949 55.7399 27.7917 55.9126V55.9126V55.9127V55.9127V55.9128V55.9128V55.9129V55.9129V55.913V55.913V55.9131C27.7856 56.2436 27.7798 56.5548 27.7982 56.8633C27.8885 58.1184 27.3635 58.9551 26.174 59.3665L21.8229 59.3758ZM23.992 47.4368H18.2768C17.6322 47.4368 17.31 47.4368 17.1488 47.5979C16.9877 47.759 16.9877 48.0813 16.9877 48.7258C16.9877 49.6106 17.0803 49.702 17.9756 49.702H29.6357C30.3275 49.702 30.6738 49.702 30.8459 49.5289C31.0183 49.3553 31.0156 49.0079 31.0104 48.3122C31.0045 47.5235 30.9189 47.4368 30.108 47.4368C28.0666 47.436 26.0279 47.436 23.992 47.4368ZM24.0002 53.6641H29.7236C30.3682 53.6641 30.6904 53.6641 30.8516 53.503C31.0127 53.3419 31.0127 53.0196 31.0127 52.3751C31.0127 51.4938 30.9494 51.4294 30.067 51.4294H18.3893C17.6783 51.4294 17.3238 51.4294 17.1486 51.6066C16.9742 51.7829 16.9772 52.1344 16.983 52.8356C16.9912 53.5645 17.0861 53.6653 17.815 53.6665C19.8783 53.6704 21.9396 53.6696 23.999 53.6641H24.0002ZM21.9236 55.4301V57.1809C21.9236 57.5208 22.09 57.6579 22.4158 57.6567C22.664 57.6567 22.9121 57.6576 23.1603 57.6585H23.1604H23.1605H23.1605H23.1606H23.1606H23.1607H23.1607H23.161C23.977 57.6614 24.7932 57.6644 25.608 57.6356C25.7697 57.6297 26.0428 57.3743 26.058 57.2149C26.0942 56.7961 26.0881 56.3743 26.0817 55.942L26.0817 55.9418C26.0793 55.773 26.0768 55.6026 26.0768 55.4301H21.9236ZM29.2303 14.9888C28.1674 16.0528 28.1674 16.0528 26.7471 15.3696C26.7471 15.1459 26.7482 14.921 26.7493 14.695V14.695V14.695V14.695V14.695V14.695V14.6949V14.6949V14.6949C26.7521 14.1077 26.755 13.5138 26.7389 12.9181C26.7213 12.1177 26.3041 11.6349 25.5272 11.6032C24.4994 11.5575 23.467 11.5599 22.4393 11.6032C21.7139 11.6337 21.299 12.0989 21.2545 12.8267L21.2471 12.9309C21.2182 13.3352 21.1887 13.7489 21.2545 14.1427C21.4127 15.0837 21.0834 15.6251 20.1459 15.8595C19.8787 15.9274 19.7123 15.9649 19.5061 15.7423C19.0244 15.2255 18.5264 14.7216 18.0096 14.2411C17.4178 13.6927 16.7873 13.6622 16.2189 14.1931C15.4795 14.8821 14.7635 15.6005 14.0732 16.3399C13.5647 16.8849 13.5904 17.5235 14.0955 18.0896C14.3005 18.3183 14.5198 18.5333 14.7394 18.7485L14.7394 18.7486L14.7394 18.7486L14.7395 18.7486L14.7395 18.7486L14.7395 18.7486L14.7395 18.7487L14.7396 18.7487L14.7396 18.7488L14.7397 18.7489L14.7398 18.749L14.7399 18.7491L14.7401 18.7492L14.7402 18.7493L14.7403 18.7494L14.7404 18.7495L14.7405 18.7496C14.8344 18.8417 14.9284 18.9338 15.0213 19.0271C15.8663 19.8779 15.8641 19.8837 15.4415 20.9781L15.4256 21.0192C15.3166 21.304 15.176 21.3942 14.8854 21.3872C14.2186 21.372 13.5494 21.3778 12.8826 21.3872C11.9545 21.4001 11.5022 21.8349 11.4857 22.7524C11.4693 23.67 11.4705 24.604 11.4857 25.5052C11.501 26.4064 11.965 26.8599 12.8768 26.8903C12.9705 26.8934 13.0648 26.8985 13.1594 26.9036L13.1595 26.9037L13.1597 26.9037L13.1598 26.9037L13.16 26.9037L13.1601 26.9037L13.1603 26.9037L13.1605 26.9037C13.4698 26.9205 13.7808 26.9375 14.0768 26.881C15.0189 26.6993 15.5111 27.0907 15.7455 27.9825C15.8217 28.2544 15.8463 28.4208 15.6283 28.6259C15.115 29.111 14.6111 29.6079 14.1318 30.1271C13.5799 30.7247 13.5693 31.3798 14.1213 31.9657C14.7881 32.6747 15.476 33.3661 16.1861 34.0317C16.7721 34.5814 17.4213 34.5544 18.0201 34.0036C18.0827 33.9458 18.1466 33.8885 18.2107 33.831L18.2107 33.831L18.2107 33.831L18.2108 33.8309L18.211 33.8307C18.4626 33.6051 18.717 33.377 18.9037 33.1071C19.4416 32.3442 20.0428 32.1872 20.8561 32.6864L20.8576 32.6874C21.1122 32.8462 21.2685 32.9438 21.2557 33.2724C21.2311 33.9591 21.2357 34.6481 21.2557 35.336C21.2779 36.1774 21.7455 36.6485 22.5811 36.6638C23.5365 36.6833 24.4904 36.6833 25.4428 36.6638C26.2479 36.6474 26.7072 36.1774 26.7436 35.3677C26.7529 35.0879 26.7498 34.8071 26.7467 34.5266C26.7451 34.3865 26.7436 34.2465 26.7436 34.1067L26.7436 34.0877C26.7447 32.8808 26.7447 32.8646 27.8592 32.4251C27.9645 32.3967 28.0748 32.3925 28.182 32.4128C28.2891 32.4331 28.3903 32.4774 28.4779 32.5423C28.7699 32.8019 29.0443 33.0808 29.3188 33.3599C29.5401 33.5848 29.7614 33.8098 29.992 34.0247C30.5662 34.5603 31.2154 34.5837 31.7815 34.0564C32.5104 33.3767 33.2123 32.6712 33.8908 31.947C34.4229 31.3786 34.4064 30.7364 33.885 30.1505C33.6827 29.9221 33.4639 29.7084 33.2449 29.4946L33.2448 29.4945L33.2447 29.4944L33.2446 29.4943L33.2445 29.4942L33.2445 29.4942C33.149 29.4009 33.0534 29.3076 32.9592 29.213C32.1323 28.3849 32.1351 28.3775 32.5274 27.3274L32.5467 27.2759C32.6639 26.9618 32.8232 26.8786 33.1326 26.888C33.8006 26.9083 34.4686 26.9083 35.1365 26.888C36.0189 26.861 36.4854 26.404 36.5018 25.538C36.5229 24.5829 36.5252 23.6255 36.5018 22.6704C36.483 21.8571 36.0143 21.4153 35.1998 21.3884C35.109 21.3853 35.0177 21.3808 34.9263 21.3763L34.926 21.3763C34.5953 21.3599 34.2627 21.3433 33.9424 21.3966C33.0307 21.5478 32.4916 21.2478 32.2572 20.3161C32.174 19.988 32.1764 19.8064 32.4166 19.5802C32.917 19.1091 33.4045 18.6239 33.8732 18.12C34.3994 17.5552 34.4404 16.9189 33.9377 16.3751C33.2381 15.6192 32.5068 14.8903 31.7533 14.1872C31.2154 13.6833 30.6154 13.7056 30.0506 14.1872C29.8368 14.3676 29.6418 14.568 29.4472 14.7679C29.3751 14.8419 29.3031 14.9159 29.2303 14.9888ZM33.9069 23.1016L33.9086 23.1016H33.9089H33.9094H33.9097H33.9102H33.9106H33.911H33.9114C34.189 23.1028 34.4708 23.104 34.7592 23.104L34.7615 25.1677C34.5061 25.1677 34.2534 25.1696 34.0026 25.1715C33.4237 25.1759 32.8548 25.1803 32.2865 25.1607C31.6736 25.1407 31.3455 25.4149 31.1475 25.981C30.9116 26.6447 30.6401 27.2953 30.3342 27.9298C30.0975 28.4302 30.1397 28.8415 30.5393 29.2259C30.9619 29.6298 31.3772 30.0371 31.7855 30.4376L31.7855 30.4376L31.7856 30.4376L31.7856 30.4377L31.7856 30.4377L31.7857 30.4377C31.9649 30.6135 32.1428 30.788 32.3193 30.9603L30.8088 32.4427C30.6629 32.2924 30.5117 32.1359 30.3571 31.9759C29.9776 31.5831 29.5781 31.1696 29.1893 30.7774C28.642 30.2255 28.4065 30.2067 27.7221 30.5173C27.0998 30.7997 26.4647 31.0564 25.8213 31.2907C25.2846 31.4829 25.0139 31.811 25.0291 32.397C25.0439 32.9717 25.0408 33.5463 25.0377 34.1352C25.0363 34.3857 25.035 34.6387 25.035 34.8954H22.9725V32.4966C22.9701 31.729 22.8084 31.5286 22.117 31.2696C21.4772 31.0306 20.8432 30.7704 20.2256 30.4786C19.7041 30.2337 19.2846 30.2794 18.8838 30.7024C18.4781 31.1313 18.0613 31.5503 17.6408 31.9729L17.6403 31.9733C17.4658 32.1488 17.2907 32.3248 17.1154 32.5024L15.6682 30.9942C15.8267 30.8371 15.9861 30.6776 16.1466 30.5169C16.5536 30.1098 16.968 29.6952 17.3932 29.2927C17.8397 28.8649 17.9205 28.4302 17.6275 27.8595C17.3359 27.2606 17.0807 26.6446 16.8635 26.0149C16.601 25.306 16.4217 25.1618 15.6424 25.1618H13.2564V23.097H15.6506C16.3982 23.0923 16.6092 22.9224 16.867 22.2192C17.0863 21.5905 17.3418 20.975 17.6322 20.3759C17.9217 19.8052 17.8397 19.3692 17.3826 18.945C16.93 18.5249 16.4892 18.0888 16.0426 17.6469L16.0425 17.6469C15.9098 17.5156 15.7766 17.3837 15.6424 17.2517L17.201 15.822C17.34 15.964 17.4852 16.113 17.635 16.2668L17.6366 16.2685L17.6372 16.269L17.6373 16.2692C18.0147 16.6565 18.4213 17.074 18.8334 17.486C19.3795 18.0357 19.594 18.0474 20.3029 17.7204C20.9031 17.4333 21.5189 17.1801 22.1475 16.9622C22.7217 16.7712 22.9889 16.436 22.9736 15.8278C22.9588 15.2536 22.9619 14.6793 22.9651 14.0933C22.9664 13.8446 22.9678 13.5938 22.9678 13.3399H25.0291C25.0291 13.6039 25.0288 13.8663 25.0286 14.1286L25.0286 14.134C25.0281 14.6617 25.0275 15.1889 25.0291 15.7271C25.0314 16.5345 25.1744 16.7091 25.9174 16.9845C26.5446 17.2054 27.1582 17.4633 27.7549 17.7567C28.3045 18.0368 28.7287 17.956 29.1365 17.5224C29.5312 17.1022 29.9322 16.6878 30.3351 16.2714L30.3358 16.2707L30.3361 16.2705L30.3364 16.2701C30.5062 16.0947 30.6762 15.9189 30.8463 15.7423C31.1887 16.0963 31.5057 16.4255 31.8273 16.7595L32.3229 17.2739C32.1683 17.4262 32.0116 17.5816 31.8529 17.7389L31.8527 17.739L31.8526 17.7392C31.4349 18.1532 31.004 18.5804 30.565 18.9989C30.1479 19.4021 30.0928 19.8157 30.3471 20.3396C30.6566 20.9719 30.9259 21.6232 31.1533 22.2896C31.3502 22.8696 31.7123 23.1134 32.3041 23.104C32.8327 23.097 33.3613 23.0993 33.9065 23.1016H33.9066H33.9066H33.9067H33.9067H33.9067H33.9068H33.9069H33.9069ZM41.1299 22.0094C41.1404 22.5098 40.8275 22.9036 40.3834 22.968C39.9568 23.0301 39.5631 22.7337 39.4459 22.2321C39.3612 21.8775 39.2897 21.518 39.2183 21.1585L39.2182 21.1584L39.2182 21.1583L39.2182 21.1582L39.2182 21.158L39.2181 21.1579L39.2181 21.1578L39.2181 21.1577C39.0771 20.4483 38.9361 19.7391 38.6935 19.068C36.5865 13.2286 32.4369 9.78679 26.3525 8.67233C26.3006 8.66298 26.2486 8.65731 26.1977 8.65176C26.1337 8.64478 26.0714 8.63798 26.0127 8.62428C25.4267 8.49772 25.1021 8.12741 25.1584 7.65749C25.2205 7.14421 25.64 6.79968 26.2529 6.9403C26.5557 7.00957 26.8609 7.07508 27.1667 7.1407L27.1667 7.14071C28.2989 7.38371 29.4385 7.62827 30.4857 8.07116C36.0322 10.4079 39.4799 14.5762 40.865 20.4473C40.9377 20.7535 40.9831 21.0663 41.0285 21.3789L41.0285 21.379L41.0286 21.3792L41.0286 21.3794L41.0286 21.3795L41.0286 21.3797L41.0287 21.3798L41.0287 21.38C41.0491 21.5205 41.0695 21.661 41.0924 21.8008C41.1036 21.8521 41.1121 21.9034 41.1197 21.9494L41.1197 21.9495L41.1229 21.9691L41.1273 21.9947L41.1299 22.0094ZM2.32667 24.97L2.32717 24.97C2.4856 24.9685 2.64407 24.9671 2.80254 24.9671V24.9718C2.9607 24.9718 3.11899 24.9741 3.27732 24.9765C3.59412 24.9812 3.91109 24.9858 4.22754 24.9718C4.74316 24.9495 5.09473 24.6214 5.09473 24.1702C5.09941 23.6804 4.83691 23.33 4.36113 23.3089C3.33926 23.2644 2.31152 23.2667 1.28848 23.3089C0.805664 23.33 0.536133 23.705 0.564258 24.1737C0.592383 24.6425 0.879492 24.9495 1.37637 24.9671C1.69273 24.9757 2.00961 24.9728 2.32667 24.97ZM44.683 24.9715H44.6828H44.6827C44.3659 24.9746 44.049 24.9778 43.7326 24.9684C43.258 24.9543 42.9463 24.6625 42.9123 24.1856C42.8783 23.7086 43.1467 23.3336 43.6225 23.3137C44.6631 23.2692 45.7084 23.275 46.7502 23.3207C47.2096 23.3407 47.4533 23.7121 47.4369 24.1574C47.4158 24.6262 47.1393 24.9426 46.6412 24.9649C46.3093 24.9797 45.981 24.9748 45.6525 24.9698H45.6525H45.6525H45.6524H45.6524H45.6524L45.6521 24.9698C45.4879 24.9673 45.3236 24.9649 45.1588 24.9649L45.1576 24.9684C44.9995 24.9684 44.8413 24.9699 44.6831 24.9715H44.683ZM10.8052 10.4393L10.8052 10.4393C10.8564 10.3624 10.9074 10.2857 10.9622 10.218C10.9178 10.1215 10.8835 10.0315 10.8522 9.94932L10.8522 9.9493C10.7927 9.79298 10.7439 9.66484 10.6563 9.57344C9.97197 8.86094 9.2794 8.15313 8.55752 7.4793C8.20361 7.14883 7.78291 7.18282 7.43135 7.525C7.10557 7.84727 7.03643 8.2668 7.35049 8.6043C8.06182 9.37539 8.79658 10.116 9.57471 10.8098C9.74463 10.9621 10.1794 10.9598 10.4114 10.859C10.5726 10.789 10.689 10.6139 10.8052 10.4393ZM37.6805 10.9131L37.6804 10.913C37.5118 10.809 37.3299 10.6967 37.2554 10.5354C37.15 10.3069 37.13 9.86276 37.2777 9.69635C37.9808 8.90299 38.739 8.15065 39.5183 7.4276C39.8312 7.13698 40.2402 7.21081 40.5519 7.50846C40.8636 7.80612 40.9796 8.21862 40.6902 8.53737C40.0543 9.23574 39.3763 9.89564 38.6985 10.5554L38.6985 10.5554L38.6984 10.5554L38.6984 10.5555C38.6006 10.6507 38.5027 10.7459 38.405 10.8413C38.3428 10.902 38.2483 10.9287 38.121 10.9646C38.0495 10.9848 37.9677 11.0079 37.8753 11.0417C37.8185 10.9983 37.7506 10.9564 37.6805 10.9131ZM10.3189 37.3364C10.243 37.2895 10.1686 37.2435 10.1054 37.1948C10.0169 37.2328 9.9355 37.2609 9.86258 37.286L9.86255 37.286L9.86251 37.286C9.73084 37.3314 9.62679 37.3672 9.55817 37.4351C9.4567 37.5342 9.35506 37.6331 9.2534 37.7321C8.60372 38.3648 7.95367 38.9979 7.34567 39.6616C7.03278 40.0015 7.1195 40.4245 7.44763 40.7409C7.77575 41.0573 8.19645 41.1101 8.53044 40.7972C9.27458 40.0976 10.0117 39.3757 10.6879 38.6081C10.8484 38.4241 10.8484 37.9753 10.7453 37.721C10.6789 37.5588 10.4952 37.4453 10.3189 37.3364ZM40.899 40.2428C40.8477 40.304 40.7987 40.3752 40.7489 40.4476C40.6325 40.6166 40.5116 40.7922 40.3459 40.8628C40.1092 40.9635 39.6826 40.9577 39.5127 40.8053C38.7336 40.1076 37.9904 39.3707 37.2861 38.5975C36.985 38.2682 37.0518 37.8358 37.3775 37.5147C37.6822 37.2159 38.0947 37.1303 38.4111 37.4233C39.1916 38.144 39.9346 38.9128 40.6705 39.678C40.7437 39.7512 40.7769 39.8613 40.819 40.0011C40.8409 40.074 40.8653 40.1549 40.899 40.2428ZM27.1923 20.8904C26.3408 20.0336 25.1864 19.5461 23.9784 19.5332C22.7612 19.541 21.5967 20.0311 20.7404 20.8963C19.884 21.7614 19.4058 22.9308 19.4104 24.148C19.4268 26.6758 21.5151 28.7535 24.0206 28.7336C25.2284 28.7096 26.3783 28.2115 27.222 27.3469C28.0656 26.4824 28.5354 25.3206 28.5299 24.1126C28.5244 22.9046 28.0439 21.7473 27.1923 20.8904ZM26.6603 23.0498C26.8016 23.3994 26.8727 23.7734 26.8694 24.1504C26.8629 24.9119 26.5541 25.6395 26.0111 26.1734C25.468 26.7072 24.7352 27.0034 23.9737 26.9969C23.2123 26.9903 22.4846 26.6816 21.9508 26.1385C21.4169 25.5955 21.1207 24.8626 21.1272 24.1012C21.1305 23.7241 21.2079 23.3514 21.3552 23.0043C21.5025 22.6572 21.7167 22.3425 21.9856 22.0782C22.2544 21.8139 22.5728 21.6051 22.9223 21.4638C23.2719 21.3225 23.6459 21.2515 24.0229 21.2547C24.4 21.2579 24.7727 21.3354 25.1198 21.4827C25.4669 21.6299 25.7816 21.8441 26.0459 22.113C26.3102 22.3819 26.519 22.7002 26.6603 23.0498Z" fill="#04122D"/>
</svg>