<svg xmlns="http://www.w3.org/2000/svg" width="60" height="60" viewBox="0 0 60 60" fill="none">
  <path fill-rule="evenodd" clip-rule="evenodd" d="M45.8914 23.3217C46.1263 23.0328 46.366 22.7379 46.6116 22.4349C46.7521 22.6416 46.9059 22.8389 47.0722 23.0255C50.1839 26.1739 53.2983 29.3208 56.4155 32.4661C57.2112 33.2724 57.9038 33.0813 58.2167 31.9833C58.3014 31.6855 58.3837 31.3868 58.4659 31.0881C58.6294 30.4945 58.7929 29.9008 58.9761 29.3138C59.1284 28.8216 59.0476 28.4138 58.7968 27.9708C56.8726 24.5458 54.9542 21.1145 53.0417 17.677C52.9447 17.5028 52.8266 17.3255 52.7078 17.1472C52.4016 16.6877 52.0915 16.2223 52.1311 15.7892C52.1752 15.3079 52.6339 14.8446 53.0641 14.4102C53.1712 14.302 53.2766 14.1956 53.3733 14.0911C54.9669 12.3829 56.0966 10.2951 56.6546 8.02666C57.0436 6.5126 57.339 4.99971 57.0436 3.43408C56.6979 1.59072 55.3069 0.64619 53.4811 1.00478C53.1081 1.06359 52.7439 1.16911 52.3972 1.31885C49.655 2.63838 47.4097 4.51338 45.9261 7.20869C45.3706 8.21767 44.8585 9.25244 44.3616 10.2907C44.1987 10.6235 44.0101 10.7243 43.6585 10.6774C43.2586 10.6248 42.8557 10.5913 42.4523 10.5577C42.2896 10.5441 42.1267 10.5305 41.964 10.5157C41.0587 10.4339 40.1534 10.3514 39.2482 10.2689C36.1986 9.99104 33.1489 9.71315 30.0964 9.46103C29.7472 9.42939 29.3183 9.59931 29.0253 9.8126C28.4729 10.2148 27.9488 10.6563 27.4245 11.0979C27.2247 11.2663 27.0248 11.4347 26.8233 11.6009C25.9327 12.3345 26.0511 13.0739 27.1327 13.4817C30.1015 14.5966 33.0702 15.7138 36.039 16.8333C37.0938 17.2308 38.148 17.631 39.2248 18.0399C39.5512 18.1638 39.8796 18.2885 40.2108 18.4142C40.0593 18.7127 39.9092 19.0092 39.7599 19.3041C39.1786 20.4527 38.6102 21.5755 38.0218 22.688C37.9491 22.8263 37.689 22.9095 37.5026 22.9364C36.3249 23.111 35.1448 23.281 33.9624 23.4145C33.3577 23.4872 32.9663 23.7532 32.6979 24.3075C32.445 24.8279 32.1631 25.3352 31.8809 25.8429C31.7316 26.1116 31.5822 26.3804 31.437 26.6513C30.9694 27.5278 31.1956 28.0364 32.153 28.2919C32.8808 28.4872 33.6079 28.6841 34.3293 28.8794C34.5082 28.9278 34.6867 28.9761 34.8647 29.0243C34.8479 29.5233 34.9604 30.0181 35.1915 30.4607C35.4225 30.9033 35.7642 31.2785 36.1833 31.5498C36.6024 31.8212 37.0845 31.9795 37.5829 32.0092C38.0813 32.039 38.5789 31.9392 39.0272 31.7196C39.2187 31.9554 39.41 32.1926 39.6018 32.4303C40.0239 32.9537 40.4481 33.4796 40.88 33.9978C41.4202 34.647 41.9979 34.6341 42.5206 33.9673C42.73 33.7005 42.9342 33.4294 43.1384 33.1583C43.4804 32.7042 43.8225 32.2501 44.1894 31.8157C44.5972 31.3317 44.6968 30.8653 44.4964 30.2536C44.1261 29.1239 43.8167 27.9731 43.5132 26.8235C43.4849 26.713 43.4789 26.598 43.4954 26.4852C43.5119 26.3724 43.5506 26.2639 43.6093 26.1661C44.3387 25.2317 45.0863 24.312 45.8914 23.3217ZM55.3549 4.44036C55.3653 4.56778 55.3761 4.70053 55.3913 4.84033C55.1007 7.38213 54.4632 9.85127 52.7604 11.956C47.9058 17.9333 43.062 23.9185 38.2292 29.9114C37.8894 30.3345 37.5284 30.2653 37.1944 30.0462C36.8604 29.827 36.5722 29.5563 36.8253 29.0618C37.9146 26.9258 38.9994 24.7878 40.0841 22.6499C42.5807 17.7292 45.0768 12.8095 47.6265 7.91768C48.8288 5.60908 50.8327 4.03174 53.194 2.93603C53.4008 2.84306 53.6198 2.78031 53.8444 2.74971C54.6261 2.63135 55.0831 2.929 55.2601 3.7001C55.3138 3.93421 55.3335 4.1758 55.3549 4.44036ZM43.0277 12.4411C43.0673 12.4506 43.1148 12.4619 43.1757 12.4751L40.9562 16.7571L28.9714 12.2489C29.5491 11.6442 30.0542 11.2212 31.0022 11.3231C33.9154 11.6344 36.8349 11.8864 39.7542 12.1383C40.7913 12.2278 41.8284 12.3173 42.8651 12.4095C42.9136 12.4139 42.9584 12.4246 43.0277 12.4411ZM56.8444 30.0603L47.7038 21.2267L50.7624 17.3806C50.7977 17.4404 50.8311 17.4964 50.8631 17.5499C50.935 17.6706 50.9995 17.7788 51.0612 17.8892C51.5814 18.8159 52.0993 19.7441 52.6172 20.6724C53.9939 23.14 55.3708 25.6079 56.7929 28.0493C57.2593 28.852 57.0788 29.4837 56.8444 30.0603ZM41.9424 31.749C41.8548 31.8614 41.7651 31.9764 41.6733 32.0958C41.5666 31.9642 41.4613 31.836 41.3578 31.71C41.0318 31.3132 40.7234 30.9377 40.4405 30.5419C40.408 30.4669 40.394 30.3851 40.3997 30.3035C40.4054 30.2219 40.4307 30.1429 40.4733 30.0731C40.8439 29.5868 41.2297 29.1152 41.6524 28.5985C41.7645 28.4616 41.8791 28.3214 41.9968 28.177C42.0616 28.4005 42.1258 28.6184 42.1889 28.8324C42.3677 29.4386 42.5371 30.0131 42.6835 30.5935C42.7146 30.7144 42.5862 30.8941 42.4927 31.0248L42.4878 31.0317C42.3151 31.2712 42.1335 31.504 41.9424 31.749ZM36.5239 24.9185C36.6483 24.9007 36.7748 24.8826 36.9038 24.8642L35.6546 27.3509L33.4397 26.7649C33.5042 26.6472 33.5669 26.5316 33.6286 26.4179C33.8285 26.0496 34.0179 25.7007 34.2202 25.3587C34.2907 25.2787 34.3885 25.2277 34.4944 25.2157C35.1449 25.1156 35.7971 25.0224 36.5239 24.9185ZM0.931494 23.7464C1.19399 22.6788 1.5104 21.637 2.20415 20.7522C3.3479 19.2909 4.83032 18.4507 6.67954 18.2667C6.87067 18.2483 7.06179 18.2343 7.26446 18.2194L7.26476 18.2194C7.35899 18.2125 7.45572 18.2054 7.5561 18.1976V12.5562L7.45324 12.5457L7.45321 12.5457C7.34456 12.5346 7.24736 12.5247 7.14946 12.5175C6.5354 12.4671 6.19321 12.1577 6.18267 11.553C6.16157 10.3812 6.16157 9.20928 6.18267 8.0374C6.19321 7.40693 6.55767 7.06123 7.19282 7.06123C12.0561 7.05576 16.9194 7.05576 21.7827 7.06123C22.4284 7.06123 22.7588 7.38936 22.7694 8.04326C22.7822 8.78646 22.7801 9.52965 22.778 10.2728C22.7772 10.5515 22.7764 10.8302 22.7764 11.1089C22.7764 12.2808 22.6124 12.4636 21.4264 12.5479V18.1249C21.6751 18.1728 21.925 18.212 22.174 18.2511H22.174C22.7174 18.3363 23.2567 18.4209 23.7702 18.5937C26.3917 19.4667 28.0417 21.8245 28.0475 24.7202C28.0639 33.3663 28.0639 42.0128 28.0475 50.6597C28.0475 52.7421 26.9389 54.2796 24.9678 54.9429C24.574 55.0758 24.5847 55.3063 24.5961 55.5524C24.5982 55.5993 24.6004 55.6466 24.5999 55.694C24.5799 57.4331 23.8499 58.4351 22.1975 58.9753C22.1488 59.0006 22.1038 59.0326 22.0639 59.0702H20.9284C20.888 59.0329 20.8422 59.0021 20.7924 58.9788C19.1518 58.4573 18.3842 57.4284 18.3502 55.7257C18.3502 55.6017 18.3396 55.4778 18.3292 55.3562C18.3245 55.3019 18.3199 55.248 18.3163 55.1948H10.603V55.919C10.5901 57.1366 10.0452 58.0507 9.00103 58.6612C8.70417 58.812 8.399 58.9458 8.08696 59.062H6.95142C5.15728 58.4983 4.26665 57.296 4.33696 55.3905C4.33696 55.2464 4.13657 55.0144 3.97954 54.9581C2.94712 54.5831 2.09634 53.9796 1.56196 53.0151C1.37505 52.6785 1.24288 52.3117 1.11069 51.9449L1.11069 51.9449L1.11065 51.9448C1.05141 51.7803 0.992163 51.6159 0.927979 51.4542L0.931494 23.7464ZM6.93735 53.2741V52.53C6.93735 44.4136 6.93228 36.2968 6.92212 28.1796C6.92212 26.7229 6.88813 25.2616 6.33032 23.8788C5.93657 22.9015 5.27563 22.1901 4.24556 21.8608C3.89399 21.7437 3.65024 21.8011 3.44517 22.1456C2.96469 22.9646 2.72126 23.901 2.74204 24.8503C2.75063 33.3839 2.75063 41.9175 2.74204 50.4511C2.74204 50.621 2.74204 50.7921 2.74907 50.9608C2.81821 52.0976 3.73813 53.1604 4.82212 53.2659C5.27978 53.3079 5.74011 53.2969 6.22336 53.2853H6.22342C6.45537 53.2798 6.6926 53.2741 6.93735 53.2741ZM22.5491 53.281L22.5493 53.281H22.5494C22.879 53.2713 23.1849 53.2623 23.4854 53.2987C24.8624 53.4651 26.2393 52.3495 26.237 50.6034C26.2252 41.98 26.2229 33.3558 26.2299 24.7308C26.2372 23.8573 26.0145 22.9972 25.5842 22.237C25.3569 21.8327 25.1073 21.7354 24.6678 21.8854C23.3624 22.3401 22.6756 23.3456 22.4342 24.5995C22.2018 25.8226 22.0841 27.0647 22.0827 28.3097C22.0581 34.3802 22.0592 40.4513 22.0603 46.5221V46.5222C22.0606 48.5459 22.061 50.5696 22.0604 52.5933L22.0545 53.2905C22.2262 53.2905 22.3904 53.2857 22.5491 53.281ZM8.79009 43.4011V53.2636H20.21V43.4011H8.79009ZM8.76899 27.6874H20.2147L20.2182 27.6368C20.4103 24.8415 20.6004 22.0742 23.3459 20.3386C22.7413 20.1979 22.1389 20.0608 21.5342 20.0491C20.8191 20.0341 20.1024 20.0473 19.3866 20.0605H19.3865L19.3863 20.0605C18.8729 20.07 18.3601 20.0794 17.8487 20.0784C14.5213 20.0714 11.194 20.0573 7.86665 20.0362C6.62329 20.0362 6.17798 20.1042 5.65298 20.4229C8.3867 22.0932 8.57577 24.8599 8.76552 27.6366L8.76899 27.6874ZM20.2124 33.8843H8.78071V41.5214H20.217L20.2124 33.8843ZM19.5292 18.1636V12.5737H9.4604V18.1636H19.5292ZM20.2323 29.5847H8.7772V31.9917H20.2299L20.2323 29.5847ZM8.02134 10.6636H20.912V8.91748H8.02134V10.6636ZM8.76196 55.2347H6.19673C6.12993 55.9917 6.15571 56.6644 6.86704 57.0675C7.07031 57.1919 7.30566 57.2537 7.54381 57.2454C7.78197 57.2371 8.01242 57.1589 8.20649 57.0206C8.87052 56.5845 8.8173 55.9222 8.76236 55.2384L8.76196 55.2335V55.2347ZM22.7413 55.2206H20.1807C20.1338 55.9319 20.1116 56.5905 20.7666 57.0194C20.9758 57.1696 21.2273 57.2496 21.4848 57.248C21.7423 57.2463 21.9927 57.163 22.1999 57.0101C22.8596 56.5683 22.8092 55.9085 22.7413 55.2194V55.2206ZM32.6204 59.062C32.1516 58.7456 32.0098 58.3085 32.0344 57.7519C32.0622 57.2017 32.0564 56.6503 32.0503 56.0775L32.0503 56.0772C32.0476 55.8291 32.045 55.5769 32.045 55.319H29.795C28.9524 55.319 28.6465 55.0015 28.643 54.1472C28.6415 53.778 28.6428 53.4026 28.6442 53.0252V53.0247C28.6459 52.5289 28.6477 52.0293 28.643 51.5351C28.6254 50.1769 29.2149 49.2194 30.4805 48.6944C30.5558 48.6575 30.6287 48.6156 30.6985 48.569V43.2956C30.6985 41.0444 32.0461 39.6851 34.2973 39.6839C40.6747 39.6776 47.0524 39.6776 53.4305 39.6839C55.6829 39.6839 57.02 41.0397 57.0235 43.2991V48.5901C58.0008 48.9522 58.8317 49.5429 58.9536 50.5823C59.1082 51.9065 59.0789 53.2577 59.0438 54.596C59.0321 55.0718 58.6032 55.3179 58.1063 55.3179H55.6829C55.6829 55.5678 55.6802 55.8158 55.6775 56.0623L55.6775 56.0634V56.0634C55.6713 56.6316 55.6653 57.1923 55.6922 57.7519C55.7192 58.3097 55.575 58.7456 55.1063 59.062H51.8145C51.7415 58.9949 51.6668 58.9296 51.5921 58.8643C51.4267 58.72 51.2617 58.5758 51.1172 58.4128L50.9585 58.2335C50.2353 57.4167 49.5115 56.5991 48.8192 55.7561C48.5368 55.4128 48.2332 55.3062 47.8032 55.3097C47.2764 55.3146 46.749 55.325 46.2215 55.3355C44.6306 55.3669 43.0383 55.3983 41.4586 55.2804C39.8555 55.1632 38.7528 55.6319 37.8551 56.9468C37.49 57.4809 37.022 57.9455 36.5543 58.4098L36.5543 58.4098C36.3375 58.625 36.1208 58.8401 35.9145 59.062H32.6204ZM55.1813 48.4729C55.1842 48.3978 55.188 48.3261 55.1917 48.2564V48.2563C55.1984 48.1292 55.2047 48.0088 55.2047 47.887V43.4597C55.2047 41.9737 54.7243 41.4944 53.2313 41.4944H34.5012H34.0477C33.1032 41.5507 32.5512 42.1062 32.5243 43.0542C32.5133 43.4948 32.517 43.9364 32.5206 44.378V44.3782C32.5224 44.599 32.5243 44.8198 32.5243 45.0405V48.4472H34.4895C34.4895 48.27 34.4876 48.0985 34.4857 47.9306V47.9304C34.4821 47.6053 34.4787 47.2942 34.4895 46.9835C34.5375 45.8479 35.2793 45.1085 36.409 45.0991C37.9231 45.0851 39.4368 45.0851 40.95 45.0991C42.1149 45.1108 42.845 45.8573 42.8707 47.0304C42.8785 47.3412 42.876 47.652 42.8734 47.9696C42.8721 48.131 42.8707 48.2942 42.8707 48.4601C42.9456 48.4651 43.0121 48.4708 43.0736 48.4761H43.0737C43.1826 48.4854 43.2756 48.4933 43.37 48.494H44.8465C44.8465 48.3237 44.8458 48.1592 44.8452 47.9986C44.8439 47.6886 44.8427 47.3932 44.8465 47.0983C44.8641 45.8257 45.5918 45.1062 46.8704 45.0956C48.3079 45.0886 49.7457 45.0886 51.184 45.0956C52.4731 45.1015 53.2137 45.8491 53.236 47.1464C53.2406 47.43 53.2391 47.7141 53.2376 48.0066V48.0074C53.2368 48.1569 53.236 48.3087 53.236 48.4636L55.1813 48.4729ZM57.2684 53.4733C57.2684 53.228 57.2693 52.9897 57.2703 52.7561C57.2721 52.3022 57.2738 51.8659 57.2684 51.4296C57.2579 50.6901 56.8793 50.3433 56.1247 50.3444C49.3364 50.3546 42.5477 50.3636 35.7586 50.3714C34.8777 50.3714 33.9967 50.3635 33.1157 50.3556C32.5975 50.3509 32.0792 50.3463 31.561 50.3433C30.9504 50.3433 30.5063 50.6538 30.4805 51.1917C30.4536 51.7131 30.4596 52.2362 30.4658 52.7694V52.7694V52.7697C30.4684 53.0021 30.4711 53.2364 30.4711 53.4733H57.2684ZM41.0321 46.946H36.3446V48.4694H41.0321V46.946ZM51.3891 46.9554H46.6957V48.4589H51.3891V46.9554ZM33.8954 55.3483V57.2784C34.0523 57.2639 34.2179 57.2659 34.3806 57.2679C34.7316 57.2721 35.0692 57.2761 35.2782 57.1144C35.6923 56.7946 36.03 56.3761 36.3895 55.9308C36.5437 55.7397 36.702 55.5436 36.8719 55.3483H33.8954ZM53.8243 57.187V55.3765H50.8875C51.0033 55.5119 51.1182 55.6366 51.2288 55.7566L51.2288 55.7566C51.4542 56.0011 51.6612 56.2257 51.8192 56.4804C52.3067 57.2644 52.9922 57.378 53.8243 57.187Z" fill="#04122D"/>
</svg>