<svg width="36" height="36" viewBox="0 0 36 36" fill="none" xmlns="http://www.w3.org/2000/svg">
<rect x="0.189941" y="0.393555" width="35.19" height="35.19" rx="17.595" fill="#29334C"/>
<g clip-path="url(#clip0_103_329)">
<path d="M24.1238 14.7334C24.155 14.8584 24.155 15.0146 24.155 15.1396C24.155 19.4834 20.8425 24.4834 14.8113 24.4834C12.9675 24.4834 11.2175 23.9521 9.78003 23.0146C10.03 23.0459 10.3113 23.0459 10.5613 23.0459C12.0925 23.0459 13.53 22.5459 14.655 21.6396C13.1863 21.6084 11.9988 20.6709 11.5925 19.3584C11.78 19.3896 11.9988 19.4209 12.1863 19.4209C12.4988 19.4209 12.78 19.3896 13.0613 19.3271C11.5613 19.0146 10.4363 17.7021 10.4363 16.1084C10.4363 16.0771 10.4363 16.0771 10.4363 16.0459C10.8738 16.2959 11.3738 16.4521 11.905 16.4834C11.03 15.8896 10.4363 14.8896 10.4363 13.7334C10.4363 13.1396 10.6238 12.5771 10.905 12.0771C12.4988 14.0771 14.9363 15.3896 17.655 15.5146C17.5925 15.2646 17.5613 15.0146 17.5613 14.7646C17.5613 12.9521 19.03 11.4834 20.8425 11.4834C21.8113 11.4834 22.655 11.8896 23.2488 12.5146C23.9988 12.3896 24.7175 12.1084 25.3425 11.7334C25.0925 12.4834 24.5613 13.1396 23.905 13.5459C24.5613 13.4521 25.1863 13.2959 25.78 13.0146C25.3425 13.6709 24.78 14.2646 24.1238 14.7334Z" fill="#1AC2FA"/>
</g>
<defs>
<clipPath id="clip0_103_329">
<rect width="16" height="16" fill="white" transform="matrix(1 0 0 -1 9.78003 25.9834)"/>
</clipPath>
</defs>
</svg>
