<svg xmlns="http://www.w3.org/2000/svg" width="46" height="51" viewBox="0 0 46 51" fill="none">
  <path fill-rule="evenodd" clip-rule="evenodd" d="M2.55432 50.1097L3.06765 50.3186H21.5417C21.864 50.0679 22.1446 49.8172 21.9834 49.3695C21.8223 48.9218 21.4522 48.8622 21.0284 48.8622H18.981C18.7262 48.8771 18.4744 48.8015 18.27 48.6485C18.0657 48.4955 17.9222 48.2752 17.8648 48.0265C17.7991 47.7161 17.8946 47.5012 18.2468 47.5012H42.9048C42.9608 47.5012 43.022 47.4947 43.0847 47.4881C43.3225 47.4629 43.5813 47.4354 43.6569 47.7519C43.7018 47.937 43.6782 48.132 43.5904 48.301C43.5026 48.47 43.3566 48.6015 43.1793 48.6711C42.8989 48.7933 42.5958 48.8543 42.29 48.8502H25.2962H25.0037C24.5859 48.8323 24.2099 48.886 24.0427 49.3456C23.8756 49.8053 24.1621 50.0679 24.4725 50.3186H43.048C43.4961 50.1329 43.9274 49.9093 44.3373 49.6501C44.6796 49.357 44.9295 48.9709 45.0566 48.5386C45.1838 48.1063 45.1827 47.6464 45.0536 47.2147C44.779 46.4208 44.1403 46.0209 43.0659 46.0209C43.0354 46.0131 43.0069 45.9989 42.9824 45.9791V38.876C42.9824 38.0404 42.7317 37.6464 42.2362 37.6822C41.7408 37.718 41.514 38.0762 41.514 38.876V45.3225C41.514 45.9194 41.4304 46.003 40.8335 46.003H20.7001C20.139 46.003 20.0136 45.8836 20.0136 45.3166V32.4653C20.0136 31.9162 20.133 31.7908 20.6702 31.7908H40.8335C41.4006 31.7908 41.4961 31.8863 41.4961 32.4474V34.9424C41.4856 35.0461 41.4973 35.1507 41.5304 35.2495C41.5635 35.3483 41.6172 35.4388 41.688 35.5152C41.7588 35.5916 41.8451 35.6521 41.941 35.6926C42.037 35.7331 42.1405 35.7527 42.2446 35.7502C42.3487 35.7476 42.4511 35.7229 42.545 35.6778C42.6388 35.6326 42.722 35.568 42.7889 35.4882C42.8559 35.4084 42.9051 35.3153 42.9333 35.215C42.9615 35.1147 42.9681 35.0096 42.9525 34.9066C42.9525 34.5923 42.9565 34.2779 42.9605 33.9635C42.9684 33.3348 42.9764 32.7061 42.9525 32.0773C42.9404 31.6824 42.798 31.3026 42.5475 30.9971C42.297 30.6916 41.9525 30.4775 41.5677 30.3881C41.2806 30.3334 40.9883 30.3114 40.6962 30.3224H26.3288C25.8116 30.3173 25.2983 30.2328 24.8068 30.0717C24.127 29.8462 23.8489 29.807 23.7402 29.6503C23.6333 29.496 23.6906 29.2278 23.6906 28.5556C23.7025 28.4266 23.7025 28.2967 23.6906 28.1676C23.6189 27.7916 23.8099 27.5946 24.1084 27.3976C25.7403 26.3555 26.9954 24.8179 27.6898 23.0104C27.9093 22.4452 28.068 21.8607 28.2298 21.2643C28.3056 20.9851 28.382 20.7034 28.4658 20.4199H28.8358C29.2506 20.393 29.6543 20.2747 30.018 20.0735C30.3816 19.8722 30.6963 19.593 30.9393 19.2558C31.1824 18.9186 31.3478 18.5319 31.4237 18.1232C31.4997 17.7146 31.4843 17.2942 31.3786 16.8922C31.2848 16.5925 31.2346 16.2809 31.2294 15.967C31.2155 15.2088 31.2115 14.4492 31.2075 13.6892C31.1995 12.1697 31.1916 10.6484 31.104 9.13249C31.0606 8.34297 30.8585 7.5703 30.5098 6.86062C30.1611 6.15094 29.673 5.5188 29.0746 5.00194C28.3822 4.40504 27.6838 3.80814 26.9795 3.21124C26.7238 2.98308 26.4569 2.76792 26.1796 2.56659C24.8185 1.60906 23.2808 0.931322 21.6557 0.572696C20.0306 0.21407 18.3505 0.181692 16.7128 0.477439C14.3225 0.838724 12.0989 1.91928 10.3379 3.57535C10.2334 3.67912 10.151 3.80294 10.0956 3.93937C10.0403 4.07579 10.013 4.22201 10.0156 4.36923C10.0872 4.91241 10.7259 5.07954 11.2094 4.72737C11.4325 4.56527 11.6513 4.39708 11.87 4.22903C12.3358 3.87108 12.8008 3.51374 13.3045 3.21721C15.4639 1.95189 17.9955 1.47511 20.4673 1.86822C22.9685 2.14212 25.2787 3.33553 26.9496 5.21683C27.0948 5.39013 27.2684 5.53747 27.463 5.65256C27.9675 5.93821 28.406 6.32731 28.7496 6.79434C29.0931 7.26137 29.3341 7.79578 29.4566 8.36249C29.8294 9.77087 29.796 11.1959 29.7625 12.624C29.7428 13.4596 29.7232 14.2963 29.7849 15.1313L28.4299 14.8806V12.6721C28.4635 12.3589 28.3719 12.0451 28.1751 11.7991C27.9784 11.5532 27.6923 11.3949 27.3794 11.3589C26.9286 11.2909 26.4986 11.1233 26.1207 10.8683C25.7428 10.6133 25.4265 10.2772 25.1947 9.88458C24.5561 8.88179 23.6786 8.73854 22.7654 9.47869C21.4893 10.5258 20.0043 11.2884 18.4098 11.7156C16.8154 12.1428 15.148 12.2247 13.5194 11.9558C12.5999 11.7876 11.6508 11.9718 10.8611 12.4718C10.0713 12.9717 9.4988 13.7508 9.25751 14.6538C9.2377 14.7166 9.20372 14.7741 9.15818 14.8217C9.11264 14.8693 9.05677 14.9058 8.99487 14.9284C8.69903 14.9902 8.413 15.0292 8.11743 15.0694C8.01344 15.0836 7.90826 15.0979 7.80107 15.1134C7.80002 14.8207 7.79491 14.5272 7.7898 14.2334C7.76583 12.856 7.74176 11.4724 8.13533 10.1293C8.45951 9.16606 8.83205 8.21977 9.25154 7.29404C9.34614 7.12131 9.37039 6.91872 9.31923 6.72855C9.26808 6.53837 9.14546 6.37529 8.97696 6.27334C8.88682 6.22533 8.78771 6.1965 8.68588 6.18866C8.58405 6.18082 8.4817 6.19414 8.38527 6.22777C8.28884 6.26141 8.20041 6.31465 8.12555 6.38412C8.05069 6.4536 7.99102 6.53782 7.9503 6.63148C7.0981 8.09198 6.5784 9.72241 6.4282 11.4067C6.35931 12.4132 6.35177 13.4246 6.34421 14.4378C6.33998 15.0049 6.33575 15.5725 6.32076 16.1401C6.31607 16.3654 6.27785 16.5887 6.20735 16.8027C6.04618 17.2402 6.01053 17.714 6.1044 18.1707C6.19827 18.6274 6.41793 19.0488 6.73859 19.3872C7.04252 19.7268 7.41673 19.9961 7.83522 20.1765C8.25371 20.3569 8.70645 20.444 9.162 20.4318C9.17277 20.4792 9.18663 20.5234 9.19997 20.566C9.22361 20.6414 9.24557 20.7115 9.24557 20.784C9.40363 22.0562 9.83019 23.2803 10.497 24.3752C11.1638 25.4701 12.0557 26.4108 13.1135 27.135C13.4896 27.3316 13.7932 27.6432 13.98 28.0243C14.1668 28.4054 14.2271 28.8362 14.1521 29.254C14.1564 29.3895 14.1144 29.5225 14.033 29.631C13.9516 29.7395 13.8357 29.8171 13.7044 29.8509C11.2492 30.6985 8.7959 31.5521 6.34463 32.4116C5.5594 32.6375 4.84929 33.0703 4.28856 33.6646C3.72784 34.2589 3.33709 34.993 3.15719 35.79C2.78345 37.3702 2.4697 38.9653 2.15652 40.5575C2.07455 40.9743 1.99262 41.3908 1.90967 41.8068L1.89446 41.8818C1.54704 43.5953 1.18918 45.3602 0.900907 47.1252C0.777236 47.738 0.875681 48.3747 1.17862 48.9216C1.48156 49.4684 1.96922 49.8896 2.55432 50.1097ZM23.5174 10.7083L23.792 10.4994C24.0925 11.0619 24.5093 11.554 25.0146 11.943C25.5199 12.332 26.1022 12.609 26.7228 12.7557C26.7848 12.7889 26.8378 12.8367 26.8773 12.8949C26.9168 12.9531 26.9416 13.02 26.9496 13.0899C26.9479 13.7773 26.9556 14.4646 26.9633 15.152C26.9823 16.8522 27.0013 18.5525 26.878 20.2527C26.7206 22.0727 25.9428 23.7833 24.6747 25.0981C23.4066 26.4129 21.7252 27.2521 19.9122 27.4752C16.5158 27.8453 13.788 26.6754 11.8301 23.852C10.9937 22.6201 10.5523 21.1627 10.5647 19.6737V15.8118C10.5707 14.0748 11.6033 13.2153 13.3045 13.4242C17.065 13.8778 20.5329 13.0959 23.5174 10.7083ZM16.5815 48.8323H9.03068V42.4037V41.962C9.03172 41.8617 9.01204 41.7623 8.97285 41.67C8.93367 41.5776 8.87585 41.4944 8.80299 41.4255C8.73014 41.3566 8.64384 41.3034 8.54949 41.2694C8.45515 41.2354 8.35479 41.2212 8.25472 41.2278C8.16065 41.2286 8.06766 41.2479 7.98106 41.2846C7.89445 41.3213 7.81593 41.3747 7.74997 41.4418C7.68401 41.5089 7.63191 41.5883 7.59664 41.6755C7.56137 41.7627 7.54362 41.856 7.5444 41.9501V42.8573H3.18703L3.72424 40.1474C3.97892 38.886 4.2336 37.6265 4.48828 36.369C4.58651 35.796 4.83819 35.2603 5.21656 34.8189C5.59493 34.3774 6.08584 34.0468 6.63712 33.8621C8.324 33.2464 10.0222 32.6618 11.7316 32.0733C12.5083 31.8059 13.2872 31.5378 14.0685 31.2655C14.164 32.3519 14.5699 33.3069 15.5488 33.7546C16.521 34.1225 17.5184 34.4197 18.5333 34.644V45.9851C18.191 45.9456 17.8442 45.9939 17.5257 46.1255C17.2072 46.257 16.9274 46.4676 16.7128 46.7372C16.5136 47.046 16.3969 47.4008 16.3739 47.7676C16.3509 48.1344 16.4224 48.501 16.5815 48.8323ZM2.72435 45.2307C2.78194 44.9378 2.83965 44.6442 2.89455 44.3496H7.53843V48.8263H6.89975C6.54758 48.8263 6.19607 48.8297 5.84457 48.833C5.14155 48.8396 4.43853 48.8462 3.73021 48.8263C2.66773 48.7965 2.21409 48.2712 2.36928 47.2147C2.46448 46.5525 2.59411 45.8931 2.72435 45.2307ZM15.5846 28.5019C17.7362 29.2421 20.078 29.2125 22.2102 28.4183L22.2043 30.3344H20.8791C19.2496 30.3403 18.5333 31.0268 18.5333 32.6324V33.0682C18.312 33.0197 18.0939 32.9774 17.8798 32.936C17.4354 32.85 17.0081 32.7673 16.6053 32.6384C16.3106 32.557 16.0508 32.3808 15.8663 32.1369C15.6818 31.8931 15.5828 31.5952 15.5846 31.2894V28.5019ZM28.9919 18.8869C28.8089 18.9365 28.6177 18.9483 28.4299 18.9216V16.4326C28.6155 16.405 28.8047 16.4152 28.9863 16.4626C29.1678 16.5101 29.3378 16.5937 29.4862 16.7086C29.6345 16.8235 29.7581 16.9672 29.8494 17.1311C29.9407 17.2949 29.998 17.4756 30.0177 17.6622C30.0009 17.8511 29.9459 18.0345 29.8559 18.2015C29.766 18.3684 29.643 18.5152 29.4944 18.6331C29.3459 18.7509 29.1749 18.8373 28.9919 18.8869ZM8.26916 16.5493C8.51978 16.4251 8.79978 16.3723 9.07844 16.3968V18.9455C8.80982 18.9694 8.53966 18.9219 8.29539 18.8076C8.05113 18.6933 7.84145 18.5164 7.68766 18.2949C7.55965 18.1235 7.48802 17.9166 7.48267 17.7028C7.47733 17.4889 7.53853 17.2787 7.65782 17.1011C7.80703 16.8645 8.01855 16.6736 8.26916 16.5493ZM32.7928 40.2623C33.0605 39.8649 33.204 39.3969 33.2052 38.9178C33.21 38.6013 33.1517 38.2869 33.0339 37.9931C32.916 37.6993 32.7409 37.4318 32.5187 37.2063C32.2965 36.9808 32.0317 36.8017 31.7397 36.6795C31.4477 36.5573 31.1342 36.4944 30.8176 36.4944C30.3385 36.4885 29.8685 36.6251 29.4672 36.8868C29.0659 37.1486 28.7514 37.5237 28.5636 37.9645C28.3759 38.4053 28.3234 38.892 28.4128 39.3627C28.5022 39.8334 28.7295 40.267 29.0657 40.6083C29.402 40.9496 29.8321 41.1833 30.3015 41.2797C30.7708 41.3761 31.2582 41.3308 31.7018 41.1497C32.1453 40.9685 32.5251 40.6597 32.7928 40.2623ZM31.6619 38.5528C31.7106 38.6683 31.7361 38.7924 31.7369 38.9178H31.713C31.713 39.106 31.657 39.29 31.5522 39.4463C31.4474 39.6026 31.2984 39.7242 31.1243 39.7957C30.9502 39.8672 30.7588 39.8853 30.5743 39.8477C30.3899 39.8101 30.2208 39.7185 30.0886 39.5846C29.9564 39.4506 29.8669 39.2804 29.8317 39.0955C29.7964 38.9106 29.8169 38.7195 29.8906 38.5463C29.9642 38.3731 30.0877 38.2257 30.2454 38.1228C30.403 38.02 30.5877 37.9664 30.7759 37.9687C30.9013 37.9679 31.0256 37.9919 31.1418 38.0391C31.258 38.0864 31.3637 38.1561 31.4529 38.2442C31.5422 38.3324 31.6132 38.4372 31.6619 38.5528Z" fill="#1D78F2"/>
</svg>