<svg xmlns="http://www.w3.org/2000/svg" width="51" height="51" viewBox="0 0 51 51" fill="none">
  <path fill-rule="evenodd" clip-rule="evenodd" d="M50.424 40.3499L50.424 40.35C50.3941 40.4544 50.3643 40.5589 50.3344 40.6484C49.4988 45.3042 45.9771 48.9453 41.3809 50.0197L39.9484 50.3182H39.7693L39.7692 50.3182H39.4709H39.0531L39.053 50.3182H37.5011C37.4414 50.2883 37.3966 50.2734 37.3518 50.2585C37.3071 50.2436 37.2623 50.2287 37.2026 50.1988C34.8747 49.9004 32.7259 48.8856 31.0546 47.3337C30.8158 47.0949 30.5174 46.9756 30.2189 46.9756H4.01499C2.1646 47.0949 0.612661 45.6624 0.493281 43.812V43.4538V3.75999C0.373901 1.9096 1.80646 0.357661 3.65685 0.238281H4.07468H38.6949C38.9336 0.238281 39.1724 0.238281 39.4112 0.297971C41.2019 0.656111 42.2166 1.96929 42.2166 3.87937V26.9197C42.1569 27.2182 42.336 27.5166 42.6941 27.636C46.574 28.8895 49.4988 32.1724 50.3344 36.1717C50.3344 36.5298 50.3941 36.9476 50.5135 37.3058V40.0515C50.4837 40.141 50.4538 40.2455 50.424 40.3499ZM29.2042 45.3042C26.6375 41.0065 26.2794 36.7089 28.9057 32.4709C31.5321 28.2329 35.591 26.6213 40.4856 27.0391V11.9972H2.1646V12.5344V43.3345C2.1646 44.767 2.7615 45.3639 4.19406 45.3639L29.2042 45.3042ZM2.1646 10.2662H40.4856V3.99875C40.4856 2.56619 39.8887 1.96929 38.4561 1.96929H4.19406H3.71654C2.88088 1.96929 2.1646 2.68557 2.1646 3.52123C2.12487 4.99142 2.13803 6.48806 2.15128 7.99354V7.99356V7.99357V7.99359V7.99361V7.99363V7.99364V7.99366V7.99367V7.99369V7.9937V7.99372V7.99373V7.99374V7.99376V7.99377C2.15793 8.74976 2.1646 9.50798 2.1646 10.2662ZM38.8143 48.6469C44.3654 48.6469 48.8422 44.1701 48.8422 38.6786C48.8422 33.1872 44.3654 28.6507 38.8739 28.6507C33.3228 28.6507 28.846 33.0678 28.846 38.619C28.7863 44.1104 33.2631 48.5872 38.8143 48.6469ZM9.62592 35.2763H6.40266C5.02979 35.336 3.83599 34.2615 3.7763 32.8887V32.5902V27.8747C3.71661 26.5018 4.79103 25.308 6.1639 25.2484H6.40266H12.8492C14.222 25.1887 15.4158 26.2034 15.4755 27.5763V27.7553V32.7096C15.5352 34.0825 14.4608 35.2166 13.0879 35.2166H12.9089C12.1058 35.3058 11.3027 35.295 10.4747 35.2838H10.4746C10.1949 35.2801 9.9123 35.2763 9.62592 35.2763ZM6.93987 26.9794L13.8042 32.7096V27.815C13.8042 27.3972 13.5058 26.9794 13.0282 26.9794H12.9089C11.6462 26.9399 10.3574 26.9526 9.02524 26.9658H9.02519H9.02515H9.0251H9.02505H9.02501H9.02496H9.02492H9.02487H9.02482H9.02478H9.02473H9.02468H9.02449H9.02443H9.02437H9.02432H9.02426H9.0242H9.02414H9.02408H9.02402H9.02396H9.0239H9.02384H9.02379H9.02373C8.34126 26.9725 7.64741 26.9794 6.93987 26.9794ZM5.44762 27.8747V32.5305C5.44762 33.3065 5.74607 33.6049 6.52204 33.6049H11.8941C12.0135 33.6049 12.1329 33.605 12.312 33.5453L5.44762 27.8747ZM24.2499 36.9476H14.6398H4.73129H4.6716C4.19408 36.9476 3.77625 37.3058 3.77625 37.7833C3.77625 38.2608 4.13439 38.619 4.73129 38.619H4.91036H24.3096C24.4887 38.619 24.7274 38.619 24.9065 38.5593C25.1453 38.4996 25.384 38.2608 25.4437 38.0221C25.5631 37.6042 25.3243 37.1267 24.9065 37.0073C24.6677 36.9476 24.4887 36.9476 24.2499 36.9476ZM13.8042 17.4887V15.5189C13.8042 14.8623 14.1026 14.3848 14.6398 14.3848C15.177 14.3848 15.4755 14.8027 15.4755 15.5189V19.5182C15.5352 20.4135 16.3112 21.1298 17.2065 21.0701C17.8034 21.0701 18.2809 20.712 18.5794 20.1748C18.6988 19.8763 18.8181 19.5182 18.8181 19.2197V15.3996C18.8181 14.8027 19.1166 14.3848 19.6538 14.3848C20.191 14.3848 20.4895 14.743 20.4895 15.3996V19.3988C20.4895 21.0701 19.236 22.443 17.5646 22.6817C15.8336 22.9205 14.222 21.8461 13.9236 20.1151C13.8042 19.3391 13.7445 18.4437 13.8042 17.4887ZM24.6779 21.1005C24.9491 20.746 25.2263 20.3837 25.5035 19.9957L25.8019 20.4135C26.0407 20.7418 26.2944 21.0701 26.548 21.3984L26.5481 21.3985C26.8018 21.7268 27.0554 22.055 27.2942 22.3833L27.3539 22.443C27.6523 22.8011 28.1895 22.8608 28.5477 22.5624C28.9058 22.2639 28.9655 21.7267 28.667 21.3686C28.6073 21.2492 28.5477 21.1298 28.4283 21.0104C28.3176 20.8666 28.2049 20.7207 28.091 20.5732C27.59 19.9247 27.0641 19.2439 26.5779 18.5631L26.8166 18.205L28.6073 15.8174C28.8461 15.5189 28.9058 15.1011 28.667 14.8027C28.488 14.5639 28.1895 14.4445 27.8911 14.4445C27.6523 14.5042 27.4135 14.6236 27.2345 14.8623C26.8553 15.3173 26.5003 15.7964 26.1387 16.2842C25.931 16.5644 25.7212 16.8475 25.5035 17.1306L25.0856 16.5337C24.6678 15.9368 24.1903 15.3399 23.7128 14.743L23.7128 14.743C23.474 14.5639 23.1756 14.4445 22.8771 14.4445C22.5787 14.5042 22.3996 14.6833 22.2802 14.9817C22.2802 15.2802 22.3399 15.6383 22.519 15.8771C22.9169 16.474 23.3679 17.0709 23.8189 17.6678C24.0444 17.9662 24.2699 18.2647 24.4887 18.5631C23.7726 19.518 23.1161 20.4132 22.4597 21.3083L22.4593 21.3089L22.3996 21.3686C22.1011 21.7267 22.1608 22.2639 22.519 22.5624L22.5787 22.622C22.9965 22.8608 23.5337 22.7414 23.7725 22.3236C24.0601 21.9081 24.3649 21.5097 24.6776 21.1009L24.6776 21.1009L24.6777 21.1009L24.6779 21.1006L24.6779 21.1006L24.6779 21.1006L24.6779 21.1006L24.6779 21.1005L24.6779 21.1005L24.6779 21.1005ZM12.1925 40.2903H19.4747C19.8329 40.2903 20.2507 40.4097 20.3701 40.7678C20.4894 41.0066 20.4298 41.305 20.3104 41.5438C20.0716 41.8422 19.7732 41.9616 19.415 41.9616C18.6192 42.0014 17.8233 41.9881 17.0274 41.9749L17.0267 41.9749C16.629 41.9682 16.2313 41.9616 15.8336 41.9616H5.08943H4.73129C4.25377 41.9616 3.83594 41.6035 3.83594 41.1259C3.83594 40.6484 4.19408 40.2903 4.6716 40.2903H4.73129H10.3421H12.1925ZM30.9949 25.3081H24.6678L18.1616 25.2484C17.6841 25.1887 17.3259 25.4871 17.2065 25.905V26.2034C17.2662 26.6213 17.6244 26.9794 18.1019 26.9197H31.4128C31.7709 26.86 32.0694 26.5616 32.129 26.2034C32.1887 25.7856 31.8903 25.3678 31.4128 25.3081H30.9949ZM22.5787 29.4864H26.9957C27.6523 29.4864 28.0105 29.7848 28.0105 30.3221C28.0105 30.8593 27.5926 31.1577 26.9361 31.1577H18.1616C17.505 31.1577 17.0872 30.7996 17.1469 30.2624C17.1469 29.8445 17.5647 29.4864 17.9826 29.4864H18.0422H22.5787ZM18.1616 35.2763H21.743C22.9368 35.2763 24.0709 35.2763 25.2647 35.2166C25.5035 35.2166 25.7422 35.2166 25.9213 35.0972C26.2794 34.9778 26.3988 34.56 26.2794 34.2019C26.16 33.784 25.7422 33.5453 25.3244 33.605H18.1616C17.505 33.605 17.1469 33.9034 17.1469 34.4406C17.1469 34.9778 17.505 35.2763 18.1616 35.2763ZM32.129 8.5949H28.1298C26.7569 8.65458 25.5631 7.63986 25.5034 6.26699V6.1476C25.5034 4.77473 26.6375 3.64062 28.0104 3.64062H28.1298H36.3073C37.6802 3.64062 38.8143 4.77473 38.7546 6.1476C38.7546 7.28171 37.9786 8.23675 36.9639 8.5352C36.7251 8.59489 36.4267 8.5949 36.1282 8.5949H32.129ZM32.1887 6.92357H36.1879C36.4267 6.92357 36.6654 6.86388 36.8445 6.7445C37.143 6.56543 37.2623 6.1476 37.0833 5.84915C36.9639 5.49101 36.5461 5.25225 36.1879 5.25225H28.1895C27.5329 5.25225 27.1747 5.61039 27.1747 6.08791C27.1747 6.56543 27.5329 6.92357 28.1895 6.92357H32.1887ZM10.4615 6.08791C10.4615 7.46078 11.5957 8.59489 12.9685 8.59489C14.3414 8.59489 15.4755 7.46078 15.4755 6.08791C15.4755 4.71504 14.3414 3.58093 12.9685 3.58093C11.5957 3.58093 10.4615 4.71504 10.4615 6.08791ZM13.0282 5.25225C13.5057 5.31194 13.8639 5.67008 13.8042 6.1476C13.7445 6.56543 13.446 6.86388 13.0282 6.92357C12.5507 6.92357 12.1926 6.62512 12.1329 6.1476V6.02822C12.1926 5.5507 12.5507 5.19256 13.0282 5.25225ZM6.28322 8.59489C4.91035 8.59489 3.77625 7.46078 3.77625 6.08791C3.77625 4.71504 4.91035 3.58093 6.28322 3.58093C7.65609 3.58093 8.79021 4.71504 8.79021 6.08791C8.79021 7.46078 7.71578 8.59489 6.28322 8.59489ZM7.11888 6.08791C7.11888 5.61039 6.76074 5.25225 6.28322 5.25225C5.8057 5.25225 5.44757 5.67008 5.44757 6.1476C5.44757 6.56543 5.8057 6.92357 6.28322 6.98326C6.70105 6.98326 7.11888 6.68481 7.11888 6.20729V6.08791ZM41.3213 41.1259H38.874L36.4268 41.1856H36.3074C35.412 41.1856 34.6957 42.0213 34.7554 42.9166C34.9345 44.8864 36.4864 46.498 38.5159 46.6771C40.7841 46.9158 42.8136 45.1848 43.0523 42.9166V42.7375C42.9927 41.8422 42.2167 41.1259 41.3213 41.1259ZM37.5609 44.9461C36.7849 44.4686 36.3074 43.6926 36.3074 42.7972H41.3213C41.3213 43.2748 41.202 43.6926 40.9632 44.0507C40.3066 45.2445 38.7547 45.6624 37.5609 44.9461ZM46.3352 36.1119C46.3352 37.9623 44.9026 39.4546 43.0523 39.4546H42.9926C41.1422 39.4546 39.6499 37.9623 39.7096 36.1119C39.7096 34.2616 41.2019 32.7693 43.0523 32.829C44.843 32.829 46.3352 34.2616 46.3352 36.1119ZM43.8879 37.4848C44.5445 37.1267 44.843 36.291 44.6042 35.5747C44.3654 34.8585 43.6492 34.3809 42.8732 34.4406C42.0972 34.5003 41.5003 35.0972 41.3809 35.8732C41.2616 36.5895 41.56 37.1864 42.1569 37.4848C42.2166 36.4701 42.4554 36.1716 42.9926 36.1716C43.5298 36.1716 43.8282 36.4701 43.8879 37.4848ZM37.9786 36.112C37.9786 34.3213 36.4864 32.829 34.636 32.829C32.8453 32.829 31.353 34.3213 31.353 36.1717C31.353 37.9624 32.8453 39.4546 34.6957 39.4546C36.4864 39.4546 37.9786 37.9624 37.9786 36.112ZM34.636 36.1717C34.0988 36.1717 33.86 36.5298 33.8003 37.5445C33.1437 37.1267 32.8453 36.3507 33.1437 35.6942C33.2631 35.0973 33.7406 34.6794 34.2778 34.5601C35.1732 34.3213 36.0685 34.8585 36.3073 35.7538C36.4864 36.4104 36.2476 37.1267 35.6507 37.4849C35.5313 37.067 35.3523 36.7089 35.1732 36.3507C35.1135 36.2314 34.815 36.1717 34.636 36.1717Z" fill="#1D78F2"/>
</svg>