<svg xmlns="http://www.w3.org/2000/svg" width="52" height="50" viewBox="0 0 52 50" fill="none">
  <path fill-rule="evenodd" clip-rule="evenodd" d="M51.0319 36.673V3.64059C50.8516 3.1993 50.6381 2.7723 50.3932 2.36323C50.0638 1.89526 49.6195 1.51989 49.1032 1.27319C48.5868 1.0265 48.0156 0.916765 47.4446 0.954545H42.5559H4.6528C3.16055 0.948576 1.97272 1.47385 1.31016 2.85866C1.08698 3.34566 0.970958 3.87489 0.969925 4.4106V35.8792C0.954272 36.3415 1.03511 36.8021 1.20729 37.2315C1.37948 37.6609 1.63922 38.0497 1.96998 38.3731C2.30074 38.6966 2.69526 38.9476 3.12839 39.1102C3.56152 39.2727 4.02376 39.3433 4.48567 39.3173H20.3632H20.9601C20.9659 40.5689 20.616 41.7964 19.9513 42.8569C19.632 43.3127 19.2049 43.6824 18.7082 43.9334C18.2115 44.1844 17.6605 44.3087 17.1041 44.2955C16.8483 44.304 16.5918 44.3049 16.3352 44.3058C15.8735 44.3074 15.4119 44.3091 14.9553 44.3551C14.3276 44.4097 13.7441 44.7009 13.323 45.1697C12.902 45.6385 12.6749 46.2498 12.6878 46.8798C12.7007 47.5097 12.9526 48.1112 13.3925 48.5624C13.8324 49.0135 14.4273 49.2806 15.0568 49.3094H15.3492H36.6705C37.0117 49.3405 37.3556 49.3013 37.681 49.1942C38.0065 49.0872 38.3065 48.9146 38.5627 48.6871C38.8188 48.4596 39.0256 48.182 39.1703 47.8714C39.3149 47.5609 39.3944 47.224 39.4038 46.8815C39.4132 46.5391 39.3523 46.1983 39.2249 45.8803C39.0975 45.5623 38.9062 45.2738 38.663 45.0326C38.4197 44.7914 38.1296 44.6025 37.8105 44.4778C37.4914 44.3531 37.1502 44.2951 36.8078 44.3074H35.2976C33.0354 44.3492 31.8117 43.1494 31.3044 41.0006C31.2179 40.6341 31.1684 40.2563 31.1166 39.8613L31.1165 39.8611C31.0933 39.6835 31.0695 39.5024 31.0417 39.3173H47.158C49.2412 39.3173 50.1485 38.7085 50.9364 36.7685C50.9484 36.7327 50.9961 36.673 51.0319 36.673ZM6.00776 30.901V5.99238H46.0001V30.901H6.00776ZM2.68303 35.5509V32.6857L49.3367 32.6917C49.3367 33.0866 49.3427 33.4769 49.3487 33.8661L49.3487 33.8665C49.3606 34.6418 49.3725 35.4127 49.3367 36.2075C49.298 36.5937 49.1207 36.9529 48.8375 37.2184C48.5544 37.484 48.1847 37.638 47.7967 37.652H47.2595H4.77815C3.27993 37.652 2.68303 37.061 2.68303 35.5509ZM4.34838 5.59843V30.9428H2.65318V4.64936C2.65318 3.22873 3.26202 2.63183 4.67667 2.63183H47.3311C48.7697 2.63183 49.3666 3.2347 49.3666 4.63742V30.9368H47.7012V5.56261C47.7012 4.52998 47.4684 4.29718 46.4418 4.29718H5.61978C4.56923 4.29718 4.34838 4.52401 4.34838 5.59843ZM29.842 41.9019C30.1562 42.7178 30.5169 43.5149 30.9224 44.2895L20.9422 44.2835C22.0265 42.8568 22.6267 41.121 22.6553 39.3292H29.2928C29.4252 40.1968 29.6085 41.0559 29.842 41.9019ZM36.4079 47.656H26.0039L15.6119 47.65C15.4123 47.6538 15.2127 47.6418 15.015 47.6142C14.834 47.5977 14.6659 47.5136 14.5442 47.3786C14.4225 47.2436 14.3561 47.0677 14.3584 46.886C14.3396 46.792 14.3404 46.6951 14.3607 46.6014C14.3809 46.5076 14.4203 46.4191 14.4763 46.3413C14.5323 46.2634 14.6037 46.198 14.6861 46.1489C14.7685 46.0999 14.8602 46.0684 14.9553 46.0563C15.4381 45.9936 15.9251 45.9697 16.4117 45.9847H24.2132H34.468H36.7063C37.3032 45.9847 37.6554 46.3189 37.6852 46.8382C37.6973 47.0356 37.6337 47.2301 37.5072 47.3821C37.3807 47.5341 37.201 47.632 37.0048 47.656C36.8061 47.6718 36.6065 47.6718 36.4079 47.656ZM39.3745 20.9149L36.8556 20.1807L36.9153 19.5957V8.7978C36.9153 7.8547 36.6526 7.604 35.7215 7.604H13.0393C12.0783 7.604 11.8455 7.8547 11.8455 8.7978V23.6129C11.8455 25.0275 11.9708 25.1529 13.3676 25.1529H31.4477C31.7759 25.1529 31.955 25.2126 32.0446 25.5826C32.1874 26.1837 32.371 26.7726 32.5549 27.3627L32.5549 27.3628C32.5938 27.4876 32.6327 27.6124 32.6713 27.7374C32.928 28.5671 33.6263 28.7283 34.2232 28.1314C34.4738 27.8808 34.7063 27.609 34.9421 27.3333L34.9422 27.3333L34.9423 27.3332L34.9425 27.3329C35.038 27.2213 35.134 27.1091 35.232 26.9973C35.9423 27.7195 36.5392 28.3164 37.1361 28.9133C37.2182 29.0377 37.3299 29.1398 37.4612 29.2104C37.5925 29.281 37.7392 29.3179 37.8882 29.3179C38.0372 29.3179 38.184 29.281 38.3152 29.2104C38.4465 29.1398 38.5582 29.0377 38.6403 28.9133L40.6757 26.8481C41.2308 26.287 41.2308 25.899 40.6757 25.3439L38.7776 23.4577C38.8601 23.3835 38.9416 23.3111 39.0221 23.2395L39.0236 23.2382L39.0238 23.238C39.2862 23.0048 39.5373 22.7816 39.7744 22.5444C40.4608 21.858 40.2997 21.1954 39.3745 20.9149ZM31.017 22.2543C31.1359 22.6558 31.2553 23.0588 31.376 23.4636H13.5347V13.5014H35.1663V19.6554C34.7247 19.5231 34.2815 19.3924 33.8397 19.262L33.8395 19.262C33.0456 19.0277 32.2564 18.7949 31.4894 18.5571C31.3196 18.4768 31.1303 18.447 30.944 18.4714C30.7577 18.4957 30.5824 18.5731 30.4389 18.6944C30.3043 18.8373 30.2167 19.0181 30.1878 19.2123C30.159 19.4065 30.1904 19.6049 30.2777 19.7808C30.527 20.6009 30.7708 21.4237 31.0166 22.2529L31.0167 22.2535L31.017 22.2543ZM35.1484 9.34695V11.7763H13.5227V9.34695H35.1484ZM33.9487 26.1616L32.3012 20.5866L37.7808 22.1564L37.2615 22.6996C37.1427 22.7898 37.0464 22.9062 36.9802 23.0398C36.9139 23.1734 36.8794 23.3205 36.8794 23.4696C36.8794 23.6187 36.9139 23.7658 36.9802 23.8994C37.0464 24.033 37.1427 24.1494 37.2615 24.2396L39.0522 26.0303L37.8106 27.2241L36.3542 25.7378C35.5484 24.9499 35.041 24.9499 34.2531 25.7378C34.1443 25.8737 34.0426 26.0151 33.9487 26.1616ZM26.0099 35.9866H23.7178C23.0672 35.9866 22.6792 35.6583 22.6852 35.139C22.6912 34.6197 23.0672 34.3272 23.694 34.3212H28.3498C28.9765 34.3212 29.3466 34.6316 29.3526 35.139C29.3585 35.6463 28.9765 35.9806 28.3259 35.9866C27.8039 35.9906 27.2873 35.9892 26.7742 35.9879H26.7735L26.7709 35.9879C26.5164 35.9872 26.2629 35.9866 26.0099 35.9866ZM22.4822 16.8082H19.3604H16.1849C15.4746 16.8142 15.1642 17.1186 15.1642 17.817V20.8015C15.1437 20.9405 15.1563 21.0825 15.2008 21.2158C15.2454 21.3491 15.3207 21.47 15.4206 21.5688C15.5206 21.6676 15.6424 21.7415 15.7762 21.7845C15.91 21.8275 16.0521 21.8383 16.1909 21.8162H22.4882C23.1925 21.8162 23.5029 21.5058 23.5029 20.7955V17.811C23.491 17.1007 23.2045 16.8082 22.4822 16.8082ZM16.8535 20.1151V18.4855H21.7838V20.1151H16.8535Z" fill="#1D78F2"/>
</svg>